<svg width="14" height="14" viewBox="0 0 14 14" fill="none" xmlns="http://www.w3.org/2000/svg">
<path d="M7.06685 12.175C7.3842 12.175 7.6428 11.9083 7.6428 11.5689C7.6428 11.2417 7.3842 10.975 7.06685 10.975C6.7495 10.975 6.47916 11.2417 6.47916 11.5689C6.49091 11.9083 6.7495 12.175 7.06685 12.175ZM9.81437 1H4.18562C3.52694 1 3 1.53333 3 2.2V11.8C3 12.4667 3.52694 13 4.18562 13H9.81437C10.4731 13 11 12.4667 11 11.8V2.2C11 1.53333 10.4731 1 9.81437 1ZM9.82756 12.4H4.3032C3.98585 12.4 3.72726 12.1333 3.72726 11.7939V10.375H10.4152V11.7939C10.4035 12.1212 10.1449 12.4 9.82753 12.4H9.82756ZM10.2727 9.54394H3.72727V2.34394C3.72727 2.01667 3.97991 1.75 4.28995 1.75H9.68708C9.99713 1.75 10.2498 2.01667 10.2498 2.34394V9.54394H10.2727Z" fill="#878787"/>
</svg>
