<svg width="16" height="16" viewBox="0 0 16 16" fill="none" xmlns="http://www.w3.org/2000/svg">
<path d="M12.3547 2.68268C12.2798 2.51805 12.1589 2.3786 12.0065 2.28113C11.8542 2.18366 11.6769 2.13234 11.496 2.13335H3.06933C2.696 2.13335 2.36533 2.34401 2.208 2.68268C2.05067 3.02135 2.10133 3.40801 2.34133 3.69335L5.30667 7.21601V11.9307C5.30667 12.376 5.57067 12.776 5.98133 12.9493L8.10667 13.8587C8.21067 13.904 8.32 13.9253 8.432 13.9253C8.592 13.9253 8.74933 13.88 8.88533 13.7893C8.9994 13.7145 9.09302 13.6124 9.15774 13.4923C9.22245 13.3721 9.25622 13.2378 9.256 13.1013V7.21601L12.2213 3.69335C12.4613 3.40801 12.512 3.02135 12.3547 2.68268ZM8.18933 6.82668V12.7333L6.4 11.9707C6.384 11.9627 6.37333 11.9493 6.37333 11.9307V6.82668L3.32267 3.20001H11.2453L8.18933 6.82668ZM13.3333 11.6427H11.6053C11.312 11.6427 11.072 11.8827 11.072 12.176C11.072 12.4693 11.312 12.7093 11.6053 12.7093H13.3333C13.6267 12.7093 13.8667 12.4693 13.8667 12.176C13.8667 11.8827 13.6267 11.6427 13.3333 11.6427ZM13.3333 9.33601H11.6053C11.312 9.33601 11.072 9.57601 11.072 9.86935C11.072 10.1627 11.312 10.4027 11.6053 10.4027H13.3333C13.6267 10.4027 13.8667 10.1627 13.8667 9.86935C13.8667 9.57601 13.6267 9.33601 13.3333 9.33601Z" fill="#8C8C8C"/>
<path d="M11.072 7.56535C11.072 7.85868 11.312 8.09868 11.6053 8.09868H13.3333C13.6267 8.09868 13.8667 7.85868 13.8667 7.56535C13.8667 7.27201 13.6267 7.03201 13.3333 7.03201H11.6053C11.4639 7.03201 11.3282 7.0882 11.2282 7.18822C11.1282 7.28824 11.072 7.4239 11.072 7.56535Z" fill="#8C8C8C"/>
</svg>
