<svg width="24" height="24" viewBox="0 0 24 24" fill="none" xmlns="http://www.w3.org/2000/svg">
<path d="M19.7158 1.69043C20.6588 1.69048 21.4307 2.46227 21.4307 3.40527V21.1426C21.4306 21.6311 21.0275 21.9999 20.5732 22C20.4962 22 20.4189 21.9829 20.3418 21.9658L12.2227 19.7539C12.1541 19.7282 12.0771 19.7197 12 19.7197C11.9229 19.7197 11.8544 19.7368 11.7773 19.7539L3.65821 21.9658C3.53104 22.0022 3.39662 22.0086 3.2666 21.9844C3.13662 21.9601 3.0137 21.9059 2.90821 21.8262C2.80268 21.7464 2.71702 21.6429 2.65821 21.5244C2.5994 21.4059 2.56903 21.2749 2.56934 21.1426V3.40527C2.56934 2.46227 3.3412 1.69049 4.28418 1.69043H19.7158ZM4.28418 3.40527V20.0195L11.3223 18.0986C11.5452 18.0386 11.7685 18.0049 12 18.0049C12.2315 18.0049 12.4548 18.0386 12.6777 18.0986L19.7158 20.0195V3.40527H4.28418ZM14.5723 12.835C15.0436 12.8352 15.4296 13.221 15.4297 13.6924C15.4297 14.1638 15.0436 14.5496 14.5723 14.5498H7.71387C7.24235 14.5498 6.85645 14.1639 6.85645 13.6924C6.85652 13.2209 7.2424 12.835 7.71387 12.835H14.5723ZM16.2861 7.69141C16.7577 7.69141 17.1436 8.07731 17.1436 8.54883C17.1435 9.02028 16.7576 9.40625 16.2861 9.40625H7.71387C7.2424 9.40625 6.85652 9.02028 6.85645 8.54883C6.85645 8.07731 7.24235 7.69141 7.71387 7.69141H16.2861Z" fill="#414141"/>
</svg>
