<svg width="12" height="13" viewBox="0 0 12 13" fill="none" xmlns="http://www.w3.org/2000/svg">
<mask id="mask0_13_1591" style="mask-type:luminance" maskUnits="userSpaceOnUse" x="0" y="0" width="12" height="13">
<path d="M12 0.5H0V12.5H12V0.5Z" fill="white"/>
</mask>
<g mask="url(#mask0_13_1591)">
<path d="M10.3763 10.7853C10.4782 10.7853 10.573 10.785 10.6675 10.7853C10.8626 10.7865 11.0002 10.9161 11 11.0983C11 11.2791 10.8596 11.4116 10.6667 11.4116H1.33412C1.15961 11.4116 1.02647 11.3063 1.00392 11.1518C0.979606 10.9865 1.07059 10.84 1.22784 10.7969C1.26255 10.7875 1.30019 10.7863 1.33666 10.7857C1.42921 10.7843 1.52176 10.7853 1.6249 10.7853V10.6928V2.95783C1.6249 2.50155 1.91451 2.12685 2.34902 2.02509C2.42392 2.00744 2.50294 2.00116 2.58 2.00116C4.0255 1.99979 5.4706 1.99978 6.91589 2.00037C7.46864 2.00076 7.87491 2.41121 7.87491 2.96827C7.87531 5.54219 7.87511 8.11609 7.87511 10.69V10.7799H9.74786C9.74903 10.7583 9.75119 10.7353 9.75119 10.7123V6.11316C9.75119 5.89199 9.62511 5.76492 9.40668 5.76453C9.20805 5.76453 9.00923 5.76649 8.8106 5.76374C8.64629 5.76139 8.52001 5.64253 8.50099 5.47901C8.48393 5.33155 8.5859 5.18569 8.73492 5.14765C8.7659 5.13981 8.79903 5.13862 8.83119 5.13843C9.03001 5.13764 9.22864 5.13768 9.42747 5.13807C9.96296 5.13945 10.3755 5.552 10.3759 6.09082C10.3769 7.62612 10.3763 9.16137 10.3763 10.6965V10.7853ZM2.24883 10.7812H7.24805C7.24903 10.7561 7.25079 10.7351 7.25079 10.7139V2.97236C7.25079 2.75569 7.12374 2.62745 6.90922 2.62745C5.46824 2.62745 4.02726 2.62748 2.58628 2.62787C2.55216 2.62787 2.51667 2.62963 2.48373 2.63807C2.3302 2.67728 2.24863 2.79802 2.24863 2.98194L2.24883 10.7812ZM4.74648 5.76453C4.43765 5.76453 4.12883 5.76588 3.82 5.76392C3.61079 5.76274 3.46785 5.58863 3.50628 5.38648C3.53255 5.24726 3.6551 5.13944 3.79942 5.13904C4.43216 5.13748 5.06491 5.13708 5.69765 5.13904C5.86785 5.13963 5.99766 5.27885 5.99785 5.44983C6.00073 5.62353 5.85981 5.76542 5.68609 5.76374C5.37275 5.76609 5.05961 5.76453 4.74648 5.76453ZM4.74452 8.27533C5.06177 8.27533 5.37942 8.27218 5.69687 8.27649C5.92432 8.27943 6.06844 8.52079 5.96746 8.72431C5.90667 8.84647 5.80334 8.90175 5.66746 8.90155C5.05628 8.90096 4.4451 8.90137 3.83412 8.90137L3.80804 8.90119C3.6372 8.89874 3.49961 8.76028 3.49824 8.58942C3.49617 8.41809 3.63357 8.27761 3.80491 8.27588C4.11804 8.27333 4.43138 8.27513 4.74452 8.27533ZM4.74746 7.33216C4.43863 7.33216 4.12981 7.33411 3.82099 7.33136C3.58902 7.3294 3.43804 7.11513 3.52079 6.9065C3.57216 6.7765 3.67353 6.7061 3.81138 6.70551C4.4355 6.70316 5.05961 6.70298 5.68354 6.70533C5.86707 6.70592 5.99981 6.84589 5.99785 7.02393C5.99589 7.19844 5.86315 7.32999 5.6802 7.33136C5.36942 7.33371 5.05863 7.33216 4.74746 7.33216Z" fill="#8C8C8C"/>
<path fill-rule="evenodd" clip-rule="evenodd" d="M10.5263 10.6353H10.6675C10.9895 10.6373 11.1503 10.7916 11.15 11.0984C11.15 11.4072 10.9889 11.5616 10.6667 11.5616H1.33412C1.0528 11.5616 0.893258 11.4322 0.855494 11.1735C0.814966 10.8979 0.925857 10.7242 1.18816 10.6522C1.22514 10.6422 1.27383 10.6367 1.33425 10.6357C1.36792 10.6352 1.41481 10.635 1.4749 10.635V2.95782C1.4749 2.69526 1.55176 2.46486 1.70548 2.2666C1.86013 2.06714 2.06324 1.93795 2.31482 1.87903C2.39369 1.86045 2.48208 1.8512 2.58 1.8512L5.47602 1.85004L6.91593 1.8504C7.23396 1.85063 7.4984 1.95714 7.70925 2.16998C7.91969 2.38242 8.02491 2.64854 8.02491 2.96826L8.02507 4.36395L8.02511 10.6298H9.60119V6.11316C9.60119 5.98098 9.53626 5.91472 9.40641 5.91449C9.36777 5.91449 9.30957 5.91464 9.23181 5.91486C9.04395 5.9154 8.90286 5.915 8.80853 5.9137C8.53608 5.9098 8.38391 5.77068 8.352 5.49634C8.3216 5.23358 8.43687 5.06893 8.69782 5.00232C8.73307 4.99339 8.77723 4.98878 8.83028 4.98846L9.12916 4.98779L9.42759 4.98804C9.73709 4.98883 9.99742 5.09517 10.2086 5.30701C10.4199 5.51899 10.5257 5.78022 10.5259 6.0907L10.5263 10.6353ZM10.2259 6.09088L10.2263 10.6965V10.9353H10.6675C10.7893 10.936 10.8501 10.9903 10.85 11.0981C10.85 11.2071 10.7889 11.2616 10.6667 11.2616H1.33412C1.22573 11.2616 1.16514 11.2178 1.15235 11.1301C1.13755 11.0295 1.17595 10.9667 1.26753 10.9415C1.27981 10.9382 1.30366 10.9362 1.33909 10.9357C1.38121 10.935 1.44619 10.9349 1.53404 10.9351C1.57377 10.9352 1.60405 10.9353 1.6249 10.9353H1.7749V2.95782C1.7749 2.52834 1.97768 2.26612 2.38323 2.17114C2.43974 2.15783 2.50533 2.15118 2.58 2.15118L5.47614 2.15002L6.91585 2.15039C7.15048 2.15056 7.34391 2.22745 7.49612 2.3811C7.64865 2.53508 7.72491 2.73083 7.72491 2.96826L7.72507 4.36401L7.72511 10.69V10.9298H9.88989L9.89764 10.788C9.89783 10.7844 9.8982 10.7786 9.89873 10.7706C9.90037 10.746 9.90119 10.7265 9.90119 10.7123V6.11316C9.90119 5.78134 9.73645 5.6151 9.40695 5.6145C9.36772 5.6145 9.30905 5.61464 9.23094 5.61487C9.04475 5.61541 8.90533 5.61505 8.81267 5.61377C8.71585 5.61238 8.66162 5.56165 8.64999 5.46167C8.63968 5.3726 8.68036 5.31637 8.77201 5.29297C8.78333 5.29011 8.80336 5.28863 8.8321 5.28845L9.1298 5.28778L9.42734 5.28802C9.65377 5.28861 9.84336 5.36557 9.99611 5.5188C10.1491 5.67231 10.2257 5.86297 10.2259 6.09088ZM2.09863 2.98193V10.7812H2.24883V10.9312H7.39231L7.39794 10.787C7.39815 10.7817 7.39853 10.7738 7.39909 10.7634C7.40022 10.7421 7.40079 10.7256 7.40079 10.7139V2.97235C7.40079 2.64242 7.23693 2.47748 6.90921 2.47748L2.58628 2.47784C2.53188 2.47784 2.48532 2.48277 2.44661 2.49268C2.21462 2.55193 2.09863 2.71502 2.09863 2.98193ZM7.10079 10.6312H2.39863V2.98193C2.39863 2.87035 2.43937 2.8042 2.52085 2.78339C2.53526 2.7797 2.55707 2.77783 2.58628 2.77783L6.90924 2.77747C6.97479 2.77747 7.02301 2.79305 7.05388 2.82422C7.08515 2.8558 7.10079 2.90517 7.10079 2.97235V10.6312ZM4.7466 5.91449L5.68549 5.91376C5.81386 5.91462 5.92405 5.86946 6.01462 5.77826C6.10557 5.68669 6.14998 5.57714 6.14785 5.44965C6.1477 5.32356 6.10507 5.21597 6.01995 5.12689C5.93255 5.03542 5.82519 4.98945 5.69789 4.98901L4.87148 4.98767L3.79901 4.98901C3.55197 4.98968 3.40527 5.11284 3.35892 5.35846C3.33088 5.50595 3.36282 5.6352 3.45474 5.74622C3.54659 5.85716 3.66821 5.91309 3.81958 5.91394L4.19507 5.91498L4.52145 5.91467L4.71245 5.91449H4.7466ZM5.80176 5.56683C5.77028 5.59853 5.7322 5.6142 5.68753 5.61377L5.68596 5.61371L4.74635 5.6145H4.7124L4.52118 5.61469L4.19481 5.61499L3.82043 5.61395C3.76299 5.61363 3.71812 5.59395 3.68581 5.55493C3.6539 5.51639 3.64317 5.46956 3.65364 5.41449C3.66939 5.33107 3.71811 5.28923 3.79982 5.289L4.87185 5.28772L5.69742 5.289C5.79759 5.28935 5.84773 5.34299 5.84785 5.44995C5.84861 5.49616 5.83324 5.53513 5.80176 5.56683ZM5.62684 7.18176L4.74742 7.18195L4.45385 7.18256L4.19788 7.18286L3.82225 7.1814C3.7576 7.18085 3.70866 7.15702 3.67542 7.10992C3.64385 7.0652 3.63881 7.01577 3.66029 6.96161C3.68812 6.89118 3.73849 6.85584 3.81139 6.85553L5.68306 6.85529C5.73222 6.85545 5.77215 6.87128 5.80284 6.90277C5.83339 6.93411 5.84839 6.97391 5.84786 7.02222C5.84668 7.12748 5.79045 7.18056 5.67918 7.1814L5.62684 7.18176ZM4.74765 7.48199L5.62691 7.48175L5.68123 7.48138C5.98892 7.47908 6.14445 7.32717 6.14784 7.02563C6.14929 6.89464 6.1059 6.78387 6.01767 6.69336C5.92836 6.60174 5.81715 6.55572 5.68402 6.5553L3.81136 6.55548C3.60223 6.55637 3.45888 6.65504 3.38129 6.85138C3.31999 7.00593 3.33633 7.14979 3.43032 7.28296C3.52271 7.41385 3.65251 7.47997 3.81972 7.48138L4.19671 7.48285L4.4542 7.48254L4.74765 7.48199ZM4.48801 8.42493L4.74409 8.42529C4.80688 8.42529 4.90147 8.42512 5.02699 8.42474C5.32409 8.42388 5.54674 8.42444 5.69493 8.42645C5.75279 8.4272 5.79675 8.45255 5.8268 8.5025C5.85722 8.55306 5.85934 8.60471 5.83317 8.65747C5.8019 8.7203 5.74672 8.7517 5.6676 8.75159L5.64069 8.75153L3.83525 8.7514L3.81019 8.75122C3.70308 8.74969 3.64909 8.69511 3.64823 8.58759C3.6477 8.5434 3.66288 8.50553 3.69378 8.47394C3.72468 8.44234 3.7619 8.42634 3.80545 8.4259L4.17826 8.4245L4.48801 8.42493ZM4.74452 8.12531L4.48847 8.12494L4.17863 8.12451L3.80436 8.12592C3.67657 8.1272 3.56822 8.17326 3.47931 8.26416C3.3904 8.35506 3.34672 8.46411 3.34825 8.59125C3.34926 8.71703 3.39424 8.82466 3.48319 8.91418C3.57214 9.0037 3.67971 9.04934 3.8059 9.05115L3.83299 9.05139L5.64066 9.05157H5.66732C5.8704 9.05187 6.01521 8.96505 6.10175 8.79114C6.17672 8.64003 6.17076 8.49227 6.08385 8.34784C5.99638 8.20246 5.86803 8.12866 5.69881 8.12646C5.5491 8.12443 5.32487 8.12388 5.02612 8.12476C4.90097 8.12512 4.80708 8.12531 4.74452 8.12531Z" fill="#8C8C8C"/>
</g>
</svg>
