<svg width="14" height="15" viewBox="0 0 14 15" fill="none" xmlns="http://www.w3.org/2000/svg">
<path d="M2.07812 10.9287C2.07816 11.3124 2.22637 11.6813 2.49121 11.959C2.75607 12.2366 3.11769 12.4018 3.50098 12.4199H3.5L3.57227 12.4219H10.4287C10.8124 12.4218 11.1813 12.2736 11.459 12.0088C11.7366 11.7439 11.9018 11.3823 11.9199 10.999L11.9219 10.9287V8.34375H8.92773C8.88886 8.81957 8.677 9.26521 8.3291 9.59375C7.96979 9.93304 7.49419 10.1221 7 10.1221C6.50581 10.1221 6.03021 9.93304 5.6709 9.59375C5.323 9.26521 5.11114 8.81957 5.07227 8.34375H2.07812V10.9287ZM6.21191 8.34473C6.24661 8.51722 6.33397 8.675 6.4668 8.79199C6.61416 8.9217 6.80368 8.99316 7 8.99316C7.19632 8.99316 7.38584 8.9217 7.5332 8.79199C7.66603 8.675 7.75339 8.51722 7.78809 8.34473H6.21191ZM3.57129 4.63574C3.18758 4.63578 2.81866 4.78397 2.54102 5.04883C2.26347 5.3137 2.09815 5.67536 2.08008 6.05859L2.07812 6.12988V7.21582H11.9219V6.12891C11.9219 5.74515 11.7737 5.37533 11.5088 5.09766C11.244 4.82016 10.8822 4.6558 10.499 4.6377V4.63672L10.4277 4.63574H3.57129ZM6.31445 2.57812C6.10953 2.57809 5.91229 2.65682 5.7627 2.79688C5.61315 2.93693 5.52223 3.12856 5.50879 3.33301L5.50684 3.3877V3.50684H8.49316V3.38574C8.4932 3.18094 8.41529 2.98354 8.27539 2.83398C8.13533 2.68439 7.94276 2.59352 7.73828 2.58008V2.5791L7.68457 2.57812H6.31445ZM9.62109 3.50684H10.4287C11.1092 3.50688 11.763 3.7718 12.252 4.24512C12.7409 4.71847 13.0268 5.36377 13.0488 6.04395V6.04492L13.0498 6.12793V10.9287C13.0498 11.6092 12.7848 12.263 12.3115 12.752C11.8382 13.2407 11.1937 13.5267 10.5137 13.5488H10.5127L10.4297 13.5498H3.57129C2.8908 13.5498 2.23696 13.2848 1.74805 12.8115C1.2593 12.3382 0.973257 11.6937 0.951172 11.0137V11.0127L0.950195 10.9297V6.12891C0.950201 5.44837 1.21512 4.79461 1.68848 4.30566C2.16179 3.81677 2.80622 3.53088 3.48633 3.50879H3.4873L3.57031 3.50684H4.37891V3.38574C4.37887 2.88593 4.57182 2.40545 4.91797 2.04492C5.26425 1.6844 5.73685 1.4713 6.23633 1.45117H6.2373L6.31348 1.4502H7.68555C8.18529 1.45016 8.66585 1.64319 9.02637 1.98926C9.34186 2.29229 9.54444 2.69227 9.60352 3.12207L9.62012 3.30762V3.30859L9.62109 3.38477V3.50684Z" fill="#B0B2B5" stroke="#B0B2B5" stroke-width="0.1"/>
</svg>
