<svg width="24" height="24" viewBox="0 0 24 24" fill="none" xmlns="http://www.w3.org/2000/svg">
<path d="M12.0254 0.714844C13.4702 0.714844 14.8753 0.975595 16.1992 1.49121C17.4801 1.99071 18.6319 2.70785 19.6201 3.61816C20.6137 4.5339 21.3955 5.6026 21.9434 6.79492C22.5126 8.03275 22.7998 9.35108 22.7998 10.707C22.7998 12.8098 22.104 14.8218 20.7881 16.5244C19.5072 18.1757 17.7458 19.4134 15.6943 20.1035C15.4312 20.1921 14.9367 20.7561 14.5742 21.167C13.8169 22.0344 13.0329 22.9287 11.999 22.9287C10.9517 22.9287 10.1699 22.0293 9.41797 21.1592C9.06081 20.7456 8.56929 20.1792 8.30078 20.0879C6.25997 19.3924 4.51189 18.1517 3.24707 16.5029C1.94192 14.803 1.25195 12.799 1.25195 10.707C1.252 9.35105 1.53918 8.03277 2.1084 6.79492C2.65624 5.60256 3.43532 4.53392 4.43164 3.61816C5.41987 2.70513 6.57161 1.99071 7.85254 1.49121C9.17369 0.975642 10.578 0.714891 12.0254 0.714844ZM12.0234 2.32324C6.97215 2.32324 2.86349 6.08277 2.86328 10.707C2.86328 14.1901 5.25861 17.3462 8.82227 18.5654C9.50423 18.7992 10.055 19.4325 10.6377 20.1064C10.933 20.4474 11.2386 20.8023 11.5205 21.0439C11.8213 21.3018 11.9641 21.3203 11.999 21.3203C12.0235 21.3203 12.1635 21.3068 12.4746 21.0439C12.7592 20.8023 13.0652 20.4504 13.3633 20.1094C13.9487 19.4407 14.5049 18.8064 15.1816 18.5781C18.7717 17.3696 21.1834 14.2067 21.1836 10.7051C21.1836 6.08344 17.0747 2.32341 12.0234 2.32324ZM16.4814 9.88574C16.927 9.88597 17.2871 10.2458 17.2871 10.6914C17.287 13.6185 14.9046 16.0009 11.9775 16.001C9.05039 16.001 6.66804 13.6185 6.66797 10.6914C6.66797 10.2457 7.02795 9.88587 7.47363 9.88574C7.91943 9.88574 8.2793 10.2456 8.2793 10.6914C8.27937 12.7296 9.93929 14.3896 11.9775 14.3896C14.0157 14.3896 15.6757 12.7296 15.6758 10.6914C15.6758 10.2456 16.0357 9.88574 16.4814 9.88574Z" fill="#414141"/>
</svg>
