<svg width="16" height="16" viewBox="0 0 16 16" fill="none" xmlns="http://www.w3.org/2000/svg">
<mask id="path-1-outside-1_37_26" maskUnits="userSpaceOnUse" x="0.142578" y="0.142578" width="15" height="15" fill="black">
<rect fill="white" x="0.142578" y="0.142578" width="15" height="15"/>
<path d="M4.60645 1.14258C4.71325 1.14276 4.79962 1.22788 4.7998 1.33105V2.05762H11.2002V1.33105C11.2004 1.22718 11.2843 1.14275 11.3936 1.14258H11.9199C12.0269 1.14258 12.1141 1.22777 12.1143 1.33105V2.05762H13.0293C14.0388 2.05784 14.8574 2.87794 14.8574 3.88477V13.0303C14.8573 14.0391 14.0404 14.8572 13.0293 14.8574H2.9707C1.96125 14.8572 1.14272 14.037 1.14258 13.0303V3.88477C1.14258 2.87581 1.95947 2.05783 2.9707 2.05762H3.88574V1.33105C3.88593 1.22708 3.97068 1.14258 4.08008 1.14258H4.60645ZM2.05762 5.71387V13.0303C2.05775 13.5328 2.46697 13.9432 2.9707 13.9434H13.0293C13.5349 13.9431 13.9423 13.5348 13.9424 13.0303V5.71387H2.05762ZM8.16309 7.2002C8.37791 7.20022 8.58024 7.23604 8.76953 7.30762C8.95846 7.37927 9.12584 7.47883 9.27148 7.60645C9.41729 7.73441 9.53681 7.88834 9.62891 8.06738C9.72092 8.24647 9.7719 8.44621 9.78223 8.66602H8.90723C8.88671 8.44611 8.80833 8.26843 8.67285 8.13281C8.53723 7.9973 8.35427 7.92871 8.12402 7.92871C7.96557 7.92877 7.82888 7.95887 7.71387 8.01758C7.59882 8.07644 7.50111 8.15389 7.42188 8.25098C7.34253 8.34819 7.27902 8.45973 7.23047 8.58496C7.18178 8.71041 7.14203 8.84231 7.11133 8.98047C7.08066 9.11847 7.05861 9.25526 7.0459 9.39062C7.03307 9.5261 7.02191 9.65299 7.01172 9.77051L7.02734 9.78613C7.14497 9.57138 7.30751 9.41152 7.51465 9.30664C7.72171 9.20196 7.94519 9.14946 8.18555 9.14941C8.4514 9.14941 8.68963 9.1951 8.89941 9.28711C9.10897 9.37915 9.28686 9.50601 9.43262 9.66699C9.57842 9.82816 9.68984 10.0193 9.7666 10.2393C9.84334 10.4593 9.88184 10.6974 9.88184 10.9531C9.88181 11.2139 9.83923 11.4553 9.75488 11.6777C9.67048 11.9003 9.54916 12.0955 9.39062 12.2617C9.23207 12.4279 9.04299 12.5574 8.82324 12.6494C8.60318 12.7415 8.35975 12.7871 8.09375 12.7871C7.69976 12.7871 7.3763 12.7141 7.12305 12.5684C6.86979 12.4225 6.67023 12.223 6.52441 11.9697C6.37859 11.7165 6.27692 11.4195 6.2207 11.0791C6.16441 10.7391 6.13674 10.3723 6.13672 9.97852C6.13672 9.65633 6.17123 9.33123 6.24023 9.00391C6.30931 8.67653 6.42337 8.37799 6.58203 8.10938C6.74051 7.84085 6.94873 7.62194 7.20703 7.45312C7.46535 7.28428 7.78438 7.2002 8.16309 7.2002ZM8.06348 9.83984C7.90483 9.83984 7.76469 9.86995 7.64453 9.92871C7.5245 9.98755 7.42347 10.0664 7.3418 10.166C7.25988 10.2658 7.19811 10.3826 7.15723 10.5156C7.11627 10.6487 7.0957 10.7893 7.0957 10.9375C7.0957 11.0859 7.11627 11.2265 7.15723 11.3594C7.19811 11.4925 7.25988 11.612 7.3418 11.7168C7.42349 11.8215 7.52448 11.9045 7.64453 11.9658C7.76467 12.0272 7.90483 12.0576 8.06348 12.0576C8.22183 12.0576 8.3599 12.0259 8.47754 11.9619C8.59513 11.898 8.69407 11.8153 8.77344 11.7129C8.85267 11.6106 8.91085 11.4911 8.94922 11.3555C8.98755 11.22 9.00683 11.0807 9.00684 10.9375C9.00684 10.7944 8.98752 10.6565 8.94922 10.5234C8.91087 10.3905 8.85261 10.2736 8.77344 10.1738C8.69407 10.0741 8.59517 9.99304 8.47754 9.93164C8.35993 9.87035 8.22177 9.8399 8.06348 9.83984ZM2.9707 2.97168C2.465 2.97189 2.05762 3.38015 2.05762 3.88477V4.7998H13.9424V3.88477C13.9424 3.38212 13.5331 2.97192 13.0293 2.97168H12.1143V3.69727C12.1142 3.80136 12.0294 3.88574 11.9199 3.88574H11.3936C11.2866 3.88559 11.2002 3.80058 11.2002 3.69727V2.97168H4.7998V3.69727C4.79977 3.80125 4.71576 3.88556 4.60645 3.88574H4.0791C3.97227 3.88549 3.88578 3.80052 3.88574 3.69727V2.97168H2.9707Z"/>
</mask>
<path d="M4.60645 1.14258C4.71325 1.14276 4.79962 1.22788 4.7998 1.33105V2.05762H11.2002V1.33105C11.2004 1.22718 11.2843 1.14275 11.3936 1.14258H11.9199C12.0269 1.14258 12.1141 1.22777 12.1143 1.33105V2.05762H13.0293C14.0388 2.05784 14.8574 2.87794 14.8574 3.88477V13.0303C14.8573 14.0391 14.0404 14.8572 13.0293 14.8574H2.9707C1.96125 14.8572 1.14272 14.037 1.14258 13.0303V3.88477C1.14258 2.87581 1.95947 2.05783 2.9707 2.05762H3.88574V1.33105C3.88593 1.22708 3.97068 1.14258 4.08008 1.14258H4.60645ZM2.05762 5.71387V13.0303C2.05775 13.5328 2.46697 13.9432 2.9707 13.9434H13.0293C13.5349 13.9431 13.9423 13.5348 13.9424 13.0303V5.71387H2.05762ZM8.16309 7.2002C8.37791 7.20022 8.58024 7.23604 8.76953 7.30762C8.95846 7.37927 9.12584 7.47883 9.27148 7.60645C9.41729 7.73441 9.53681 7.88834 9.62891 8.06738C9.72092 8.24647 9.7719 8.44621 9.78223 8.66602H8.90723C8.88671 8.44611 8.80833 8.26843 8.67285 8.13281C8.53723 7.9973 8.35427 7.92871 8.12402 7.92871C7.96557 7.92877 7.82888 7.95887 7.71387 8.01758C7.59882 8.07644 7.50111 8.15389 7.42188 8.25098C7.34253 8.34819 7.27902 8.45973 7.23047 8.58496C7.18178 8.71041 7.14203 8.84231 7.11133 8.98047C7.08066 9.11847 7.05861 9.25526 7.0459 9.39062C7.03307 9.5261 7.02191 9.65299 7.01172 9.77051L7.02734 9.78613C7.14497 9.57138 7.30751 9.41152 7.51465 9.30664C7.72171 9.20196 7.94519 9.14946 8.18555 9.14941C8.4514 9.14941 8.68963 9.1951 8.89941 9.28711C9.10897 9.37915 9.28686 9.50601 9.43262 9.66699C9.57842 9.82816 9.68984 10.0193 9.7666 10.2393C9.84334 10.4593 9.88184 10.6974 9.88184 10.9531C9.88181 11.2139 9.83923 11.4553 9.75488 11.6777C9.67048 11.9003 9.54916 12.0955 9.39062 12.2617C9.23207 12.4279 9.04299 12.5574 8.82324 12.6494C8.60318 12.7415 8.35975 12.7871 8.09375 12.7871C7.69976 12.7871 7.3763 12.7141 7.12305 12.5684C6.86979 12.4225 6.67023 12.223 6.52441 11.9697C6.37859 11.7165 6.27692 11.4195 6.2207 11.0791C6.16441 10.7391 6.13674 10.3723 6.13672 9.97852C6.13672 9.65633 6.17123 9.33123 6.24023 9.00391C6.30931 8.67653 6.42337 8.37799 6.58203 8.10938C6.74051 7.84085 6.94873 7.62194 7.20703 7.45312C7.46535 7.28428 7.78438 7.2002 8.16309 7.2002ZM8.06348 9.83984C7.90483 9.83984 7.76469 9.86995 7.64453 9.92871C7.5245 9.98755 7.42347 10.0664 7.3418 10.166C7.25988 10.2658 7.19811 10.3826 7.15723 10.5156C7.11627 10.6487 7.0957 10.7893 7.0957 10.9375C7.0957 11.0859 7.11627 11.2265 7.15723 11.3594C7.19811 11.4925 7.25988 11.612 7.3418 11.7168C7.42349 11.8215 7.52448 11.9045 7.64453 11.9658C7.76467 12.0272 7.90483 12.0576 8.06348 12.0576C8.22183 12.0576 8.3599 12.0259 8.47754 11.9619C8.59513 11.898 8.69407 11.8153 8.77344 11.7129C8.85267 11.6106 8.91085 11.4911 8.94922 11.3555C8.98755 11.22 9.00683 11.0807 9.00684 10.9375C9.00684 10.7944 8.98752 10.6565 8.94922 10.5234C8.91087 10.3905 8.85261 10.2736 8.77344 10.1738C8.69407 10.0741 8.59517 9.99304 8.47754 9.93164C8.35993 9.87035 8.22177 9.8399 8.06348 9.83984ZM2.9707 2.97168C2.465 2.97189 2.05762 3.38015 2.05762 3.88477V4.7998H13.9424V3.88477C13.9424 3.38212 13.5331 2.97192 13.0293 2.97168H12.1143V3.69727C12.1142 3.80136 12.0294 3.88574 11.9199 3.88574H11.3936C11.2866 3.88559 11.2002 3.80058 11.2002 3.69727V2.97168H4.7998V3.69727C4.79977 3.80125 4.71576 3.88556 4.60645 3.88574H4.0791C3.97227 3.88549 3.88578 3.80052 3.88574 3.69727V2.97168H2.9707Z" fill="#B0B2B5"/>
<path d="M4.60645 1.14258L4.60662 1.04258H4.60645V1.14258ZM4.7998 1.33105H4.8998L4.8998 1.33087L4.7998 1.33105ZM4.7998 2.05762H4.6998V2.15762H4.7998V2.05762ZM11.2002 2.05762V2.15762H11.3002V2.05762H11.2002ZM11.2002 1.33105L11.1002 1.33088V1.33105H11.2002ZM11.3936 1.14258V1.04258L11.3934 1.04258L11.3936 1.14258ZM12.1143 1.33105H12.2143L12.2143 1.33087L12.1143 1.33105ZM12.1143 2.05762H12.0143V2.15762H12.1143V2.05762ZM13.0293 2.05762L13.0293 1.95762H13.0293V2.05762ZM14.8574 3.88477H14.9574V3.88476L14.8574 3.88477ZM14.8574 13.0303L14.9574 13.0303V13.0303H14.8574ZM13.0293 14.8574V14.9574H13.0293L13.0293 14.8574ZM2.9707 14.8574L2.97068 14.9574H2.9707V14.8574ZM1.14258 13.0303H1.04258V13.0303L1.14258 13.0303ZM1.14258 3.88477H1.04258H1.14258ZM2.9707 2.05762V1.95762H2.97068L2.9707 2.05762ZM3.88574 2.05762V2.15762H3.98574V2.05762H3.88574ZM3.88574 1.33105L3.78574 1.33088V1.33105H3.88574ZM2.05762 5.71387V5.61387H1.95762V5.71387H2.05762ZM2.05762 13.0303H1.95762V13.0303L2.05762 13.0303ZM2.9707 13.9434L2.97066 14.0434H2.9707V13.9434ZM13.0293 13.9434V14.0434H13.0293L13.0293 13.9434ZM13.9424 13.0303L14.0424 13.0303V13.0303H13.9424ZM13.9424 5.71387H14.0424V5.61387H13.9424V5.71387ZM8.16309 7.2002L8.1631 7.1002H8.16309V7.2002ZM8.76953 7.30762L8.80499 7.21412L8.8049 7.21408L8.76953 7.30762ZM9.27148 7.60645L9.33745 7.53129L9.33739 7.53123L9.27148 7.60645ZM9.62891 8.06738L9.71785 8.02168L9.71783 8.02164L9.62891 8.06738ZM9.78223 8.66602V8.76602H9.88703L9.88212 8.66132L9.78223 8.66602ZM8.90723 8.66602L8.80766 8.6753L8.81612 8.76602H8.90723V8.66602ZM8.67285 8.13281L8.7436 8.06214L8.74353 8.06207L8.67285 8.13281ZM8.12402 7.92871V7.82871H8.12399L8.12402 7.92871ZM7.71387 8.01758L7.66841 7.92851L7.66832 7.92855L7.71387 8.01758ZM7.42188 8.25098L7.49935 8.31421L7.49935 8.31421L7.42188 8.25098ZM7.23047 8.58496L7.32369 8.62114L7.32371 8.62111L7.23047 8.58496ZM7.11133 8.98047L7.20895 9.00216V9.00216L7.11133 8.98047ZM7.0459 9.39062L7.14545 9.40005L7.14546 9.39998L7.0459 9.39062ZM7.01172 9.77051L6.91209 9.76187L6.90807 9.80828L6.94101 9.84122L7.01172 9.77051ZM7.02734 9.78613L6.95663 9.85684L7.05097 9.95118L7.11505 9.83417L7.02734 9.78613ZM7.51465 9.30664L7.46953 9.2174L7.46948 9.21742L7.51465 9.30664ZM8.18555 9.14941V9.04941H8.18553L8.18555 9.14941ZM8.89941 9.28711L8.93963 9.19555L8.93958 9.19553L8.89941 9.28711ZM9.43262 9.66699L9.50677 9.59991L9.50675 9.59987L9.43262 9.66699ZM9.7666 10.2393L9.86102 10.2063L9.86102 10.2063L9.7666 10.2393ZM9.88184 10.9531L9.98184 10.9531V10.9531H9.88184ZM9.75488 11.6777L9.84838 11.7132L9.84839 11.7132L9.75488 11.6777ZM9.39062 12.2617L9.46297 12.3308L9.46299 12.3307L9.39062 12.2617ZM8.82324 12.6494L8.86185 12.7417L8.86188 12.7416L8.82324 12.6494ZM8.09375 12.7871L8.09375 12.8871H8.09375V12.7871ZM7.12305 12.5684L7.07315 12.655L7.07316 12.655L7.12305 12.5684ZM6.52441 11.9697L6.61108 11.9198L6.61107 11.9198L6.52441 11.9697ZM6.2207 11.0791L6.31937 11.0628L6.31936 11.0628L6.2207 11.0791ZM6.13672 9.97852H6.03672V9.97852L6.13672 9.97852ZM6.24023 9.00391L6.14239 8.98326L6.14239 8.98328L6.24023 9.00391ZM6.58203 8.10938L6.66813 8.16023L6.66815 8.1602L6.58203 8.10938ZM7.20703 7.45312L7.26174 7.53683L7.26174 7.53683L7.20703 7.45312ZM8.06348 9.83984L8.06351 9.73984H8.06348V9.83984ZM7.64453 9.92871L7.6006 9.83888L7.60052 9.83892L7.64453 9.92871ZM7.3418 10.166L7.41909 10.2295L7.41911 10.2294L7.3418 10.166ZM7.15723 10.5156L7.2528 10.545L7.25281 10.545L7.15723 10.5156ZM7.0957 10.9375H6.9957V10.9375L7.0957 10.9375ZM7.15723 11.3594L7.25282 11.33L7.25279 11.3299L7.15723 11.3594ZM7.3418 11.7168L7.42065 11.6553L7.42059 11.6552L7.3418 11.7168ZM7.64453 11.9658L7.69004 11.8768L7.69003 11.8768L7.64453 11.9658ZM8.06348 12.0576V12.1576H8.06351L8.06348 12.0576ZM8.47754 11.9619L8.42978 11.8741L8.42976 11.8741L8.47754 11.9619ZM8.77344 11.7129L8.85247 11.7742L8.85249 11.7741L8.77344 11.7129ZM8.94922 11.3555L8.853 11.3282L8.853 11.3282L8.94922 11.3555ZM9.00684 10.9375L9.10684 10.9375V10.9375H9.00684ZM8.94922 10.5234L9.04531 10.4958L9.0453 10.4957L8.94922 10.5234ZM8.77344 10.1738L8.85176 10.1116L8.8517 10.1116L8.77344 10.1738ZM8.47754 9.93164L8.52381 9.84299L8.52375 9.84296L8.47754 9.93164ZM2.9707 2.97168V2.87168H2.97066L2.9707 2.97168ZM2.05762 4.7998H1.95762V4.8998H2.05762V4.7998ZM13.9424 4.7998V4.8998H14.0424V4.7998H13.9424ZM13.9424 3.88477H13.8424H13.9424ZM13.0293 2.97168L13.0293 2.87168H13.0293V2.97168ZM12.1143 2.97168V2.87168H12.0143V2.97168H12.1143ZM12.1143 3.69727L12.2143 3.6973V3.69727H12.1143ZM11.3936 3.88574L11.3934 3.98574H11.3936V3.88574ZM11.2002 3.69727H11.1002V3.6973L11.2002 3.69727ZM11.2002 2.97168H11.3002V2.87168H11.2002V2.97168ZM4.7998 2.97168V2.87168H4.6998V2.97168H4.7998ZM4.7998 3.69727L4.8998 3.6973V3.69727H4.7998ZM4.60645 3.88574V3.98574L4.60661 3.98574L4.60645 3.88574ZM4.0791 3.88574L4.07886 3.98574H4.0791V3.88574ZM3.88574 3.69727H3.78574V3.6973L3.88574 3.69727ZM3.88574 2.97168H3.98574V2.87168H3.88574V2.97168ZM4.60645 1.14258L4.60628 1.24258C4.66007 1.24267 4.69972 1.28521 4.6998 1.33124L4.7998 1.33105L4.8998 1.33087C4.89951 1.17054 4.76642 1.04285 4.60662 1.04258L4.60645 1.14258ZM4.7998 1.33105H4.6998V2.05762H4.7998H4.8998V1.33105H4.7998ZM4.7998 2.05762V2.15762H11.2002V2.05762V1.95762H4.7998V2.05762ZM11.2002 2.05762H11.3002V1.33105H11.2002H11.1002V2.05762H11.2002ZM11.2002 1.33105L11.3002 1.33123C11.3003 1.28393 11.3381 1.24266 11.3937 1.24258L11.3936 1.14258L11.3934 1.04258C11.2305 1.04283 11.1005 1.17043 11.1002 1.33088L11.2002 1.33105ZM11.3936 1.14258V1.24258H11.9199V1.14258V1.04258H11.3936V1.14258ZM11.9199 1.14258V1.24258C11.9742 1.24258 12.0142 1.28558 12.0143 1.33124L12.1143 1.33105L12.2143 1.33087C12.214 1.16996 12.0795 1.04258 11.9199 1.04258V1.14258ZM12.1143 1.33105H12.0143V2.05762H12.1143H12.2143V1.33105H12.1143ZM12.1143 2.05762V2.15762H13.0293V2.05762V1.95762H12.1143V2.05762ZM13.0293 2.05762L13.0293 2.15762C13.9836 2.15783 14.7574 2.93316 14.7574 3.88477L14.8574 3.88477L14.9574 3.88476C14.9574 2.82272 14.0941 1.95785 13.0293 1.95762L13.0293 2.05762ZM14.8574 3.88477H14.7574V13.0303H14.8574H14.9574V3.88477H14.8574ZM14.8574 13.0303L14.7574 13.0303C14.7573 13.9839 13.9852 14.7572 13.0293 14.7574L13.0293 14.8574L13.0293 14.9574C14.0957 14.9572 14.9573 14.0943 14.9574 13.0303L14.8574 13.0303ZM13.0293 14.8574V14.7574H2.9707V14.8574V14.9574H13.0293V14.8574ZM2.9707 14.8574L2.97072 14.7574C2.01651 14.7572 1.24271 13.9818 1.24258 13.0303L1.14258 13.0303L1.04258 13.0303C1.04273 14.0922 1.906 14.9572 2.97068 14.9574L2.9707 14.8574ZM1.14258 13.0303H1.24258V3.88477H1.14258H1.04258V13.0303H1.14258ZM1.14258 3.88477H1.24258C1.24258 2.93104 2.01469 2.15782 2.97072 2.15762L2.9707 2.05762L2.97068 1.95762C1.90424 1.95784 1.04258 2.82057 1.04258 3.88477H1.14258ZM2.9707 2.05762V2.15762H3.88574V2.05762V1.95762H2.9707V2.05762ZM3.88574 2.05762H3.98574V1.33105H3.88574H3.78574V2.05762H3.88574ZM3.88574 1.33105L3.98574 1.33123C3.98582 1.28433 4.02391 1.24258 4.08008 1.24258V1.14258V1.04258C3.91745 1.04258 3.78603 1.16983 3.78574 1.33088L3.88574 1.33105ZM4.08008 1.14258V1.24258H4.60645V1.14258V1.04258H4.08008V1.14258ZM2.05762 5.71387H1.95762V13.0303H2.05762H2.15762V5.71387H2.05762ZM2.05762 13.0303L1.95762 13.0303C1.95776 13.588 2.41166 14.0431 2.97066 14.0434L2.9707 13.9434L2.97074 13.8434C2.52228 13.8432 2.15773 13.4777 2.15762 13.0302L2.05762 13.0303ZM2.9707 13.9434V14.0434H13.0293V13.9434V13.8434H2.9707V13.9434ZM13.0293 13.9434L13.0293 14.0434C13.5902 14.0431 14.0422 13.5899 14.0424 13.0303L13.9424 13.0303L13.8424 13.0302C13.8423 13.4796 13.4796 13.8432 13.0293 13.8434L13.0293 13.9434ZM13.9424 13.0303H14.0424V5.71387H13.9424H13.8424V13.0303H13.9424ZM13.9424 5.71387V5.61387H2.05762V5.71387V5.81387H13.9424V5.71387ZM8.16309 7.2002L8.16307 7.3002C8.36658 7.30022 8.55686 7.33411 8.73416 7.40115L8.76953 7.30762L8.8049 7.21408C8.60362 7.13797 8.38925 7.10022 8.1631 7.1002L8.16309 7.2002ZM8.76953 7.30762L8.73407 7.40112C8.91237 7.46874 9.06933 7.56227 9.20558 7.68166L9.27148 7.60645L9.33739 7.53123C9.18235 7.39539 9.00455 7.2898 8.80499 7.21412L8.76953 7.30762ZM9.27148 7.60645L9.20552 7.68161C9.34159 7.80102 9.45343 7.94487 9.53998 8.11312L9.62891 8.06738L9.71783 8.02164C9.62018 7.83181 9.49299 7.6678 9.33745 7.53129L9.27148 7.60645ZM9.62891 8.06738L9.53996 8.11309C9.62481 8.27822 9.67262 8.46376 9.68234 8.67071L9.78223 8.66602L9.88212 8.66132C9.87119 8.42865 9.81704 8.21471 9.71785 8.02168L9.62891 8.06738ZM9.78223 8.66602V8.56602H8.90723V8.66602V8.76602H9.78223V8.66602ZM8.90723 8.66602L9.00679 8.65673C8.98445 8.4172 8.89791 8.2166 8.7436 8.06214L8.67285 8.13281L8.6021 8.20349C8.71875 8.32025 8.78898 8.47503 8.80766 8.6753L8.90723 8.66602ZM8.67285 8.13281L8.74353 8.06207C8.58567 7.90434 8.37539 7.82871 8.12402 7.82871V7.92871V8.02871C8.33315 8.02871 8.4888 8.09027 8.60217 8.20355L8.67285 8.13281ZM8.12402 7.92871L8.12399 7.82871C7.95289 7.82877 7.80004 7.86132 7.66841 7.92851L7.71387 8.01758L7.75933 8.10665C7.85772 8.05643 7.97826 8.02876 8.12406 8.02871L8.12402 7.92871ZM7.71387 8.01758L7.66832 7.92855C7.54174 7.99332 7.43291 8.0793 7.3444 8.18775L7.42188 8.25098L7.49935 8.31421C7.56931 8.22849 7.65591 8.15956 7.75941 8.1066L7.71387 8.01758ZM7.42188 8.25098L7.3444 8.18774C7.25779 8.29387 7.18921 8.41475 7.13723 8.54881L7.23047 8.58496L7.32371 8.62111C7.36883 8.50472 7.42727 8.40251 7.49935 8.31421L7.42188 8.25098ZM7.23047 8.58496L7.13724 8.54878C7.08664 8.67916 7.04545 8.81592 7.01371 8.95878L7.11133 8.98047L7.20895 9.00216C7.2386 8.86869 7.27692 8.74166 7.32369 8.62114L7.23047 8.58496ZM7.11133 8.98047L7.01371 8.95878C6.98221 9.10052 6.95947 9.24144 6.94634 9.38127L7.0459 9.39062L7.14546 9.39998C7.15775 9.26908 7.17912 9.13642 7.20895 9.00216L7.11133 8.98047ZM7.0459 9.39062L6.94634 9.3812C6.93348 9.51707 6.92229 9.64428 6.91209 9.76187L7.01172 9.77051L7.11134 9.77915C7.12153 9.66171 7.13267 9.53513 7.14545 9.40005L7.0459 9.39062ZM7.01172 9.77051L6.94101 9.84122L6.95663 9.85684L7.02734 9.78613L7.09805 9.71542L7.08243 9.6998L7.01172 9.77051ZM7.02734 9.78613L7.11505 9.83417C7.22352 9.63612 7.37168 9.49112 7.55982 9.39586L7.51465 9.30664L7.46948 9.21742C7.24334 9.33192 7.06641 9.50664 6.93964 9.7381L7.02734 9.78613ZM7.51465 9.30664L7.55977 9.39588C7.75238 9.2985 7.96035 9.24946 8.18557 9.24941L8.18555 9.14941L8.18553 9.04941C7.93003 9.04947 7.69103 9.10541 7.46953 9.2174L7.51465 9.30664ZM8.18555 9.14941V9.24941C8.43989 9.24941 8.66409 9.29309 8.85925 9.37869L8.89941 9.28711L8.93958 9.19553C8.71517 9.09711 8.46291 9.04941 8.18555 9.04941V9.14941ZM8.89941 9.28711L8.8592 9.37867C9.05652 9.46533 9.22267 9.5841 9.35849 9.73411L9.43262 9.66699L9.50675 9.59987C9.35106 9.42792 9.16142 9.29296 8.93963 9.19555L8.89941 9.28711ZM9.43262 9.66699L9.35846 9.73408C9.49463 9.8846 9.59949 10.0639 9.67219 10.2722L9.7666 10.2393L9.86102 10.2063C9.78019 9.97473 9.66221 9.77172 9.50677 9.59991L9.43262 9.66699ZM9.7666 10.2393L9.67218 10.2722C9.74489 10.4807 9.78184 10.7075 9.78184 10.9531H9.88184H9.98184C9.98184 10.6872 9.94179 10.4379 9.86102 10.2063L9.7666 10.2393ZM9.88184 10.9531L9.78184 10.9531C9.78181 11.2028 9.74108 11.4321 9.66138 11.6423L9.75488 11.6777L9.84839 11.7132C9.93738 11.4785 9.98181 11.225 9.98184 10.9531L9.88184 10.9531ZM9.75488 11.6777L9.66138 11.6423C9.58147 11.853 9.46713 12.0366 9.31826 12.1927L9.39062 12.2617L9.46299 12.3307C9.63119 12.1544 9.75948 11.9476 9.84838 11.7132L9.75488 11.6777ZM9.39062 12.2617L9.31828 12.1927C9.16952 12.3486 8.99202 12.4703 8.78461 12.5572L8.82324 12.6494L8.86188 12.7416C9.09396 12.6444 9.29461 12.5072 9.46297 12.3308L9.39062 12.2617ZM8.82324 12.6494L8.78464 12.5572C8.57826 12.6435 8.34817 12.6871 8.09375 12.6871V12.7871V12.8871C8.37132 12.8871 8.62811 12.8395 8.86185 12.7417L8.82324 12.6494ZM8.09375 12.7871L8.09375 12.6871C7.71143 12.6871 7.40664 12.6162 7.17294 12.4817L7.12305 12.5684L7.07316 12.655C7.34596 12.8121 7.6881 12.8871 8.09375 12.8871L8.09375 12.7871ZM7.12305 12.5684L7.17294 12.4817C6.93497 12.3447 6.7481 12.1578 6.61108 11.9198L6.52441 11.9697L6.43775 12.0196C6.59237 12.2882 6.80461 12.5004 7.07315 12.655L7.12305 12.5684ZM6.52441 11.9697L6.61107 11.9198C6.47215 11.6786 6.37395 11.3933 6.31937 11.0628L6.2207 11.0791L6.12204 11.0954C6.17989 11.4456 6.28503 11.7544 6.43775 12.0196L6.52441 11.9697ZM6.2207 11.0791L6.31936 11.0628C6.26409 10.729 6.23674 10.3677 6.23672 9.97851L6.13672 9.97852L6.03672 9.97852C6.03674 10.3769 6.06473 10.7493 6.12205 11.0954L6.2207 11.0791ZM6.13672 9.97852H6.23672C6.23672 9.66352 6.27045 9.34533 6.33808 9.02453L6.24023 9.00391L6.14239 8.98328C6.072 9.31713 6.03672 9.64915 6.03672 9.97852H6.13672ZM6.24023 9.00391L6.33808 9.02455C6.40507 8.70704 6.51539 8.41883 6.66813 8.16023L6.58203 8.10938L6.49593 8.05852C6.33135 8.33716 6.21354 8.64602 6.14239 8.98326L6.24023 9.00391ZM6.58203 8.10938L6.66815 8.1602C6.81895 7.9047 7.01649 7.69712 7.26174 7.53683L7.20703 7.45312L7.15232 7.36942C6.88097 7.54677 6.66208 7.777 6.49591 8.05855L6.58203 8.10938ZM7.20703 7.45312L7.26174 7.53683C7.50037 7.38086 7.79927 7.3002 8.16309 7.3002V7.2002V7.1002C7.7695 7.1002 7.43033 7.1877 7.15232 7.36942L7.20703 7.45312ZM8.06348 9.83984V9.73984C7.89213 9.73984 7.73654 9.7724 7.6006 9.83888L7.64453 9.92871L7.68846 10.0185C7.79284 9.9675 7.91754 9.93984 8.06348 9.93984V9.83984ZM7.64453 9.92871L7.60052 9.83892C7.4683 9.90373 7.3557 9.99139 7.26448 10.1026L7.3418 10.166L7.41911 10.2294C7.49124 10.1415 7.58071 10.0714 7.68855 10.0185L7.64453 9.92871ZM7.3418 10.166L7.26451 10.1026C7.17375 10.2131 7.10607 10.3417 7.06164 10.4862L7.15723 10.5156L7.25281 10.545C7.29015 10.4235 7.34602 10.3185 7.41909 10.2295L7.3418 10.166ZM7.15723 10.5156L7.06165 10.4862C7.01759 10.6293 6.9957 10.7799 6.9957 10.9375H7.0957H7.1957C7.1957 10.7987 7.21495 10.668 7.2528 10.545L7.15723 10.5156ZM7.0957 10.9375L6.9957 10.9375C6.9957 11.0952 7.01759 11.2458 7.06166 11.3888L7.15723 11.3594L7.25279 11.3299C7.21495 11.2071 7.1957 11.0765 7.1957 10.9375L7.0957 10.9375ZM7.15723 11.3594L7.06164 11.3887C7.10595 11.533 7.17325 11.6635 7.26301 11.7784L7.3418 11.7168L7.42059 11.6552C7.34652 11.5604 7.29028 11.4519 7.25282 11.33L7.15723 11.3594ZM7.3418 11.7168L7.26295 11.7783C7.3538 11.8948 7.46625 11.987 7.59903 12.0549L7.64453 11.9658L7.69003 11.8768C7.5827 11.8219 7.49318 11.7483 7.42065 11.6553L7.3418 11.7168ZM7.64453 11.9658L7.59902 12.0549C7.73571 12.1247 7.89202 12.1576 8.06348 12.1576V12.0576V11.9576C7.91764 11.9576 7.79363 11.9297 7.69004 11.8768L7.64453 11.9658ZM8.06348 12.0576L8.06351 12.1576C8.23531 12.1576 8.39042 12.1231 8.52532 12.0498L8.47754 11.9619L8.42976 11.8741C8.32937 11.9287 8.20835 11.9576 8.06344 11.9576L8.06348 12.0576ZM8.47754 11.9619L8.5253 12.0498C8.65433 11.9796 8.76415 11.8881 8.85247 11.7742L8.77344 11.7129L8.6944 11.6516C8.62399 11.7425 8.53593 11.8164 8.42978 11.8741L8.47754 11.9619ZM8.77344 11.7129L8.85249 11.7741C8.9405 11.6605 9.00402 11.5291 9.04544 11.3827L8.94922 11.3555L8.853 11.3282C8.81768 11.453 8.76485 11.5607 8.69439 11.6516L8.77344 11.7129ZM8.94922 11.3555L9.04544 11.3827C9.08631 11.2383 9.10683 11.0898 9.10684 10.9375L9.00684 10.9375L8.90684 10.9375C8.90684 11.0716 8.8888 11.2018 8.853 11.3282L8.94922 11.3555ZM9.00684 10.9375H9.10684C9.10684 10.7853 9.08627 10.638 9.04531 10.4958L8.94922 10.5234L8.85312 10.5511C8.88877 10.6749 8.90684 10.8035 8.90684 10.9375H9.00684ZM8.94922 10.5234L9.0453 10.4957C9.00376 10.3518 8.93995 10.2227 8.85176 10.1116L8.77344 10.1738L8.69512 10.236C8.76527 10.3244 8.81798 10.4293 8.85314 10.5512L8.94922 10.5234ZM8.77344 10.1738L8.8517 10.1116C8.7633 10.0005 8.65336 9.91061 8.52381 9.84299L8.47754 9.93164L8.43127 10.0203C8.53699 10.0755 8.62484 10.1477 8.69518 10.2361L8.77344 10.1738ZM8.47754 9.93164L8.52375 9.84296C8.38927 9.77287 8.23465 9.7399 8.06351 9.73984L8.06348 9.83984L8.06344 9.93984C8.20889 9.93989 8.33059 9.96782 8.43132 10.0203L8.47754 9.93164ZM2.9707 2.97168L2.97066 2.87168C2.40973 2.87191 1.95762 3.32496 1.95762 3.88477H2.05762H2.15762C2.15762 3.43534 2.52028 3.07186 2.97074 3.07168L2.9707 2.97168ZM2.05762 3.88477H1.95762V4.7998H2.05762H2.15762V3.88477H2.05762ZM2.05762 4.7998V4.8998H13.9424V4.7998V4.6998H2.05762V4.7998ZM13.9424 4.7998H14.0424V3.88477H13.9424H13.8424V4.7998H13.9424ZM13.9424 3.88477H14.0424C14.0424 3.32693 13.5884 2.87195 13.0293 2.87168L13.0293 2.97168L13.0292 3.07168C13.4778 3.07189 13.8424 3.43731 13.8424 3.88477H13.9424ZM13.0293 2.97168V2.87168H12.1143V2.97168V3.07168H13.0293V2.97168ZM12.1143 2.97168H12.0143V3.69727H12.1143H12.2143V2.97168H12.1143ZM12.1143 3.69727L12.0143 3.69723C12.0142 3.74402 11.9763 3.78574 11.9199 3.78574V3.88574V3.98574C12.0825 3.98574 12.2142 3.85871 12.2143 3.6973L12.1143 3.69727ZM11.9199 3.88574V3.78574H11.3936V3.88574V3.98574H11.9199V3.88574ZM11.3936 3.88574L11.3937 3.78574C11.3397 3.78566 11.3002 3.74316 11.3002 3.69723L11.2002 3.69727L11.1002 3.6973C11.1003 3.858 11.2336 3.98551 11.3934 3.98574L11.3936 3.88574ZM11.2002 3.69727H11.3002V2.97168H11.2002H11.1002V3.69727H11.2002ZM11.2002 2.97168V2.87168H4.7998V2.97168V3.07168H11.2002V2.97168ZM4.7998 2.97168H4.6998V3.69727H4.7998H4.8998V2.97168H4.7998ZM4.7998 3.69727L4.6998 3.69723C4.69979 3.74438 4.66214 3.78565 4.60628 3.78574L4.60645 3.88574L4.60661 3.98574C4.76938 3.98547 4.89974 3.85812 4.8998 3.6973L4.7998 3.69727ZM4.60645 3.88574V3.78574H4.0791V3.88574V3.98574H4.60645V3.88574ZM4.0791 3.88574L4.07934 3.78574C4.02525 3.78561 3.98576 3.74301 3.98574 3.69723L3.88574 3.69727L3.78574 3.6973C3.7858 3.85803 3.9193 3.98536 4.07886 3.98574L4.0791 3.88574ZM3.88574 3.69727H3.98574V2.97168H3.88574H3.78574V3.69727H3.88574ZM3.88574 2.97168V2.87168H2.9707V2.97168V3.07168H3.88574V2.97168Z" fill="#B0B2B5" mask="url(#path-1-outside-1_37_26)"/>
</svg>
