<svg width="168" height="57" viewBox="0 0 168 57" fill="none" xmlns="http://www.w3.org/2000/svg">
<path d="M164 0H4C1.79086 0 0 1.79086 0 4V53C0 55.2091 1.79086 57 4 57H164C166.209 57 168 55.2091 168 53V4C168 1.79086 166.209 0 164 0Z" fill="url(#paint0_linear_18_552)"/>
<path d="M23.176 20.824C22.376 21.0907 21.4907 21.352 20.52 21.608V24.84C20.52 25.9173 19.96 26.456 18.84 26.456H17.032L16.664 24.872C17.2293 24.936 17.7627 24.968 18.264 24.968C18.6373 24.968 18.824 24.7867 18.824 24.424V22.008C17.8533 22.2107 16.8987 22.3867 15.96 22.536L15.72 20.856C16.744 20.7067 17.7787 20.52 18.824 20.296V17.544H15.704V15.944H18.824V14.456C18.1093 14.6053 17.3147 14.7387 16.44 14.856L16.088 13.272C18.328 13.0267 20.3013 12.5573 22.008 11.864L22.584 13.432C21.9867 13.656 21.2987 13.8693 20.52 14.072V15.944H23.8C23.7147 14.8453 23.672 13.4907 23.672 11.88H25.352C25.3733 13.48 25.4267 14.8347 25.512 15.944H30.296V17.544H25.64C25.736 18.5467 25.8747 19.4 26.056 20.104L26.248 20.808C26.9093 19.9867 27.48 19.08 27.96 18.088L29.4 18.856C28.696 20.3067 27.8533 21.56 26.872 22.616C27.032 23.0107 27.2027 23.336 27.384 23.592C27.832 24.296 28.1733 24.648 28.408 24.648C28.5787 24.648 28.76 23.8427 28.952 22.232L30.44 23.016C30.024 25.3093 29.4267 26.456 28.648 26.456C27.944 26.456 27.2133 25.9813 26.456 25.032C26.1467 24.6373 25.88 24.216 25.656 23.768C24.568 24.664 23.3573 25.368 22.024 25.88L21.096 24.456C22.5787 23.912 23.8693 23.144 24.968 22.152C24.7973 21.64 24.6373 21.112 24.488 20.568C24.2533 19.736 24.072 18.728 23.944 17.544H20.52V19.912C21.5547 19.6453 22.44 19.384 23.176 19.128V20.824ZM27.112 12.024C28.232 12.728 29.192 13.432 29.992 14.136L28.792 15.336C28.152 14.6533 27.2187 13.9067 25.992 13.096L27.112 12.024ZM35.304 15.496C35.7947 16.3067 36.2693 17.1813 36.728 18.12L35.592 18.696H38.152V15.192H32.584V13.576H38.152V11.912H39.848V13.576H45.56V15.192H39.848V18.696H41.128C41.6613 17.6827 42.1307 16.5787 42.536 15.384L44.168 15.96C43.752 16.9627 43.288 17.8747 42.776 18.696H46.008V20.312H41.128C42.2587 21.9333 44.0667 23.384 46.552 24.664L45.4 26.104C42.808 24.408 40.9573 22.5253 39.848 20.456V26.648H38.152V20.44C37.1173 22.648 35.192 24.5413 32.376 26.12L31.448 24.616C34.0827 23.3147 35.88 21.88 36.84 20.312H31.96V18.696H35.24C34.7813 17.7253 34.312 16.8933 33.832 16.2L35.304 15.496ZM48.072 14.616H54.264V11.848H55.96V14.616H58.744C58.2853 14.104 57.672 13.544 56.904 12.936L57.992 11.912C58.888 12.5733 59.6293 13.2133 60.216 13.832L59.432 14.616H61.896V16.232H55.96V17.064C56.3227 17.8107 56.776 18.5787 57.32 19.368C58.376 18.536 59.2667 17.6187 59.992 16.616L61.24 17.704C60.376 18.7813 59.368 19.7147 58.216 20.504C59.4 21.8587 60.824 23.0587 62.488 24.104L61.32 25.48C59.0267 23.8587 57.24 21.912 55.96 19.64V24.904C55.96 26.0133 55.4213 26.568 54.344 26.568H52.12L51.752 24.968C52.5733 25.0427 53.24 25.08 53.752 25.08C54.0933 25.08 54.264 24.8773 54.264 24.472V20.952C52.6853 22.776 50.8613 24.3333 48.792 25.624L47.88 24.104C50.2907 22.824 52.4187 21.1227 54.264 19V16.232H48.072V14.616ZM49.944 16.952C50.968 17.9013 51.8427 18.84 52.568 19.768L51.432 20.888C50.8347 20.0347 49.9493 19.096 48.776 18.072L49.944 16.952ZM63.672 12.36H70.152V13.896H69.416V22.088L70.344 21.816V23.432C70.1307 23.496 69.8213 23.5813 69.416 23.688V26.68H67.8V24.12C66.6587 24.3973 65.352 24.6747 63.88 24.952L63.48 23.352L64.52 23.208V13.896H63.672V12.36ZM66.104 22.92L67.8 22.536V20.616H66.104V22.92ZM66.104 19.112H67.8V17.288H66.104V19.112ZM66.104 15.784H67.8V13.896H66.104V15.784ZM70.712 12.648H77.72V20.584H70.712V12.648ZM76.088 19.016V14.232H72.344V19.016H76.088ZM73.576 21.96C72.8933 23.848 72.0987 25.448 71.192 26.76L69.8 25.752C70.728 24.4827 71.5067 22.984 72.136 21.256L73.576 21.96ZM76.136 21.192C77.2133 22.92 78.04 24.4293 78.616 25.72L77.208 26.696C76.6747 25.3947 75.8853 23.832 74.84 22.008L76.136 21.192Z" fill="white"/>
<path d="M25.8 37.692L25.896 38.304L22.104 39.012C22.184 39.828 22.288 40.52 22.416 41.088C22.544 41.64 22.668 42.112 22.788 42.504C23.66 41.696 24.388 40.724 24.972 39.588L25.536 39.888C24.856 41.2 24.02 42.292 23.028 43.164C23.18 43.596 23.352 43.964 23.544 44.268C24 44.996 24.42 45.364 24.804 45.372C25.108 45.324 25.416 44.552 25.728 43.056L26.304 43.428C26.128 44.124 25.936 44.712 25.728 45.192C25.464 45.768 25.168 46.056 24.84 46.056C24.304 46.056 23.772 45.676 23.244 44.916C22.98 44.54 22.74 44.092 22.524 43.572C21.708 44.196 20.808 44.688 19.824 45.048L19.464 44.472C20.528 44.096 21.468 43.584 22.284 42.936C22.108 42.4 21.972 41.936 21.876 41.544C21.7 40.888 21.564 40.084 21.468 39.132L19.776 39.444L19.692 38.82L21.408 38.508C21.32 37.476 21.276 36.384 21.276 35.232H21.924C21.924 36.432 21.964 37.484 22.044 38.388L25.8 37.692ZM19.572 40.728C19.1 40.984 18.572 41.24 17.988 41.496V45.06C17.988 45.748 17.676 46.092 17.052 46.092H16.02L15.876 45.468C16.324 45.5 16.64 45.516 16.824 45.516C17.176 45.516 17.352 45.308 17.352 44.892V41.772C16.728 42.012 16.164 42.212 15.66 42.372L15.48 41.688C16.152 41.512 16.776 41.316 17.352 41.1V38.136H15.624V37.5H17.352V35.268H17.988V37.5H19.536V38.136H17.988V40.836C18.596 40.564 19.124 40.304 19.572 40.056V40.728ZM23.712 35.208C24.16 35.752 24.552 36.3 24.888 36.852L24.3 37.14C23.932 36.524 23.544 35.976 23.136 35.496L23.712 35.208ZM32.724 36.744H28.452V36.12H37.656V36.744H33.372V44.916H38.172V45.564H27.828V44.916H32.724V36.744ZM44.7 37.632C44.156 38.792 43.508 39.82 42.756 40.716L42.3 40.176C43.42 38.864 44.308 37.192 44.964 35.16L45.612 35.316C45.46 35.788 45.252 36.348 44.988 36.996H50.364V37.632H46.176V39.816H49.812V40.464H46.176V42.684H49.908V43.32H46.176V46.176H45.528V37.632H44.7ZM41.088 39.144C40.64 39.736 40.168 40.288 39.672 40.8L39.468 40.116C40.796 38.676 41.764 37.044 42.372 35.22L42.972 35.496C42.644 36.464 42.232 37.356 41.736 38.172V46.176H41.088V39.144Z" fill="white"/>
<mask id="mask0_18_552" style="mask-type:luminance" maskUnits="userSpaceOnUse" x="120" y="12" width="34" height="34">
<path d="M154 12H120V46H154V12Z" fill="white"/>
</mask>
<g mask="url(#mask0_18_552)">
<path d="M132.822 24.8213C134.68 22.9593 137.204 21.9141 139.834 21.9167H142.184C142.127 21.7569 142.066 21.5984 141.999 21.4412C140.671 18.2929 137.584 16.2474 134.167 16.25H128.501C124.976 16.2499 121.817 18.4247 120.56 21.7171C119.302 25.0094 120.207 28.7364 122.834 31.0858V35.375C122.834 35.6615 123.007 35.9199 123.271 36.0295C123.536 36.1392 123.841 36.0786 124.043 35.8759L126.832 33.0869C127.382 33.1957 127.941 33.2503 128.501 33.25H130.018C129.951 32.7808 129.917 32.3073 129.917 31.8333C129.915 29.2028 130.96 26.6795 132.822 24.8213ZM127.084 26.1667C126.302 26.1667 125.667 25.5324 125.667 24.75C125.667 23.9676 126.302 23.3333 127.084 23.3333C127.866 23.3333 128.501 23.9676 128.501 24.75C128.501 25.5324 127.866 26.1667 127.084 26.1667Z" fill="#BCFFBC"/>
<path fill-rule="evenodd" clip-rule="evenodd" d="M139.834 40.3334C135.138 40.3357 131.33 36.5294 131.33 31.8334C131.33 27.1374 135.138 23.3311 139.834 23.3334H145.501C148.918 23.3308 152.004 25.3763 153.332 28.5246C154.744 31.8721 153.874 35.7462 151.167 38.1692V42.4584C151.167 42.7452 150.995 43.0036 150.73 43.1131C150.465 43.2227 150.16 43.1617 149.957 42.9587L147.168 40.1696C146.619 40.2786 146.061 40.3335 145.501 40.3334H139.834ZM137 33.25C136.218 33.25 135.584 32.6158 135.584 31.8334C135.584 31.051 136.218 30.4167 137 30.4167C137.783 30.4167 138.417 31.051 138.417 31.8334C138.417 32.6158 137.783 33.25 137 33.25ZM142.667 33.25C141.885 33.25 141.25 32.6158 141.25 31.8334C141.25 31.051 141.885 30.4167 142.667 30.4167C143.449 30.4167 144.084 31.051 144.084 31.8334C144.084 32.6158 143.449 33.25 142.667 33.25ZM148.334 33.25C147.551 33.25 146.917 32.6158 146.917 31.8334C146.917 31.051 147.551 30.4167 148.334 30.4167C149.116 30.4167 149.75 31.051 149.75 31.8334C149.75 32.6158 149.116 33.25 148.334 33.25Z" fill="white"/>
</g>
<defs>
<linearGradient id="paint0_linear_18_552" x1="168" y1="28.5" x2="0" y2="28.5" gradientUnits="userSpaceOnUse">
<stop offset="0.0571429" stop-color="#60A8EB"/>
<stop offset="1" stop-color="#1C82E2"/>
</linearGradient>
</defs>
</svg>
