<svg width="14" height="15" viewBox="0 0 14 15" fill="none" xmlns="http://www.w3.org/2000/svg">
<g clip-path="url(#clip0_211_869)">
<mask id="path-1-outside-1_211_869" maskUnits="userSpaceOnUse" x="0" y="1" width="14" height="14" fill="black">
<rect fill="white" y="1" width="14" height="14"/>
<path d="M3.74177 2.00454C4.35921 2.02022 4.9337 2.24974 5.45987 3.03185L5.50013 3.09197L5.89207 3.70366C6.33502 4.41729 6.50146 4.94689 6.342 5.59098L6.31838 5.66261C6.1371 6.10218 5.81588 6.4736 5.40188 6.72233L5.30738 6.78193C5.12306 6.90895 4.97265 7.0771 4.86873 7.27232L4.91383 7.19495L4.91008 7.32199C4.9133 7.55202 4.9745 7.77788 5.08725 7.97968L5.14846 8.07849L5.2102 8.16214L5.24135 8.2071C5.68657 8.91299 6.24567 9.54444 6.89716 10.0772C7.3589 10.4478 7.61017 10.5796 7.78896 10.544C7.93177 10.5153 8.04291 10.429 8.29902 10.153L8.41767 10.0254C8.80586 9.61972 9.07914 9.43621 9.54517 9.36616C10.2507 9.26003 10.7741 9.5047 11.4013 10.0406C11.4517 10.084 11.6461 10.2549 11.6965 10.2968L11.9795 10.5341L12.1599 10.6904C12.6887 11.1662 12.9556 11.5896 12.9116 12.1543L12.9008 12.2233C12.8008 12.681 12.5185 13.0814 12.1159 13.3369L12.1642 13.3034L12.0192 13.4414C11.9576 13.498 11.8951 13.5538 11.8318 13.6087L11.6396 13.7708L11.4431 13.9276L11.398 13.959C10.6565 14.4209 9.784 14.6428 8.90518 14.5932C8.08736 14.5503 7.29281 14.3128 6.59112 13.9015C5.41362 13.2349 4.36867 12.3677 3.50607 11.3413C2.5544 10.3221 1.81338 9.13392 1.32355 7.84166C1.02276 7.06993 0.929582 6.23614 1.05287 5.41948C1.17616 4.60282 1.51182 3.83041 2.02797 3.17562L2.06448 3.1338C2.26797 2.92572 2.48541 2.73228 2.71682 2.55453L2.67924 2.58381L2.73078 2.53048C2.8489 2.41285 2.98151 2.30934 3.12809 2.22098L3.22634 2.16556L3.74177 2.00454ZM3.90284 3.01094L3.8615 3.0261C3.70498 3.08754 3.56568 3.1843 3.45506 3.30842L3.38258 3.37481C3.19133 3.5222 3.01101 3.68258 2.84299 3.85475L2.86232 3.8354L2.79091 3.93003C2.43585 4.41857 2.20438 4.98189 2.11537 5.57407C2.02636 6.16626 2.08233 6.77055 2.27871 7.33767L2.32917 7.47517C2.77575 8.65142 3.45157 9.73254 4.31948 10.6591C5.10723 11.5987 6.06243 12.3925 7.1393 13.0023C7.69231 13.3269 8.31835 13.5146 8.96585 13.5491C9.61914 13.5864 10.2678 13.4217 10.8192 13.0786L10.7972 13.0911L10.9476 12.9709C11.0619 12.8773 11.1736 12.7806 11.2826 12.6807L11.4437 12.5291L11.5296 12.4612C11.6944 12.3566 11.8098 12.1924 11.8506 12.0058L11.8399 12.0429L11.8404 12.0346C11.8308 11.8861 11.7046 11.7047 11.427 11.4542L11.347 11.3842C11.289 11.3345 11.0431 11.1306 10.9868 11.082L10.7199 10.8499L10.6072 10.7547C10.2442 10.4588 9.99725 10.3558 9.70893 10.3992C9.52907 10.4264 9.40611 10.5174 9.12424 10.8227L9.00612 10.9482C8.65498 11.3167 8.4123 11.4861 8.00587 11.5682C7.37554 11.6937 6.93689 11.4637 6.21046 10.8812C5.46891 10.2754 4.83256 9.5571 4.32592 8.75395L4.33935 8.77382L4.27868 8.69226C3.94841 8.22312 3.79513 7.65711 3.84486 7.09039L3.86043 6.95969L3.87278 6.87081L3.91573 6.79134C4.12723 6.3927 4.44871 6.05939 4.84404 5.82886C5.05987 5.69816 5.22739 5.50367 5.32188 5.27364L5.31812 5.28201L5.30577 5.30815L5.31168 5.27991C5.35893 4.99446 5.25369 4.69437 4.96645 4.23326L4.89719 4.12347L4.63411 3.71411L4.50203 3.51754C4.26633 3.18399 4.087 3.03133 3.93828 3.01303L3.90284 3.01094ZM8.76827 4.15954C9.46535 4.39897 10.0923 4.79958 10.5954 5.32697C11.0492 5.85027 11.3736 6.46807 11.5435 7.13274C11.5743 7.26596 11.5504 7.40564 11.4768 7.52188C11.4032 7.63812 11.2858 7.72171 11.1497 7.75477C11.0136 7.78782 10.8697 7.76772 10.7486 7.69877C10.6276 7.62981 10.539 7.51747 10.5019 7.38577C10.3748 6.88499 10.1327 6.4188 9.79376 6.0223C9.41226 5.62675 8.93863 5.3264 8.41284 5.1466C8.27842 5.1007 8.16823 5.00469 8.1065 4.87968C8.04478 4.75468 8.03659 4.61091 8.08372 4.48002C8.13085 4.34913 8.22945 4.24183 8.35783 4.18173C8.48621 4.12163 8.63385 4.11365 8.76827 4.15954ZM9.28907 2.03068C10.2949 2.35159 11.2197 2.87573 12.0031 3.56877L12.2275 3.78469C12.8592 4.61622 13.3195 5.55892 13.5832 6.56079C13.6007 6.62731 13.6046 6.69654 13.5946 6.76452C13.5846 6.8325 13.561 6.8979 13.525 6.95698C13.4891 7.01606 13.4415 7.06767 13.3851 7.10886C13.3287 7.15005 13.2644 7.18001 13.1961 7.19704C13.1278 7.21407 13.0567 7.21782 12.9869 7.2081C12.9171 7.19837 12.8499 7.17534 12.7892 7.14034C12.7286 7.10534 12.6756 7.05904 12.6333 7.0041C12.591 6.94915 12.5602 6.88663 12.5427 6.8201C12.3327 6.02225 11.9792 5.26697 11.4984 4.58929L11.3911 4.4429L11.259 4.32266C10.6483 3.78749 9.93806 3.371 9.16666 3.09563L8.95511 3.02401C8.88631 3.00413 8.8223 2.97102 8.76686 2.92664C8.71143 2.88225 8.66569 2.8275 8.63236 2.76561C8.59903 2.70372 8.57878 2.63595 8.57281 2.56631C8.56684 2.49667 8.57526 2.42656 8.59759 2.36015C8.61992 2.29373 8.6557 2.23235 8.70281 2.17963C8.74992 2.12691 8.8074 2.08392 8.87187 2.05321C8.93633 2.02249 9.00647 2.00467 9.07813 2.0008C9.14978 1.99693 9.22151 2.00709 9.28907 2.03068Z"/>
</mask>
<path d="M3.74177 2.00454C4.35921 2.02022 4.9337 2.24974 5.45987 3.03185L5.50013 3.09197L5.89207 3.70366C6.33502 4.41729 6.50146 4.94689 6.342 5.59098L6.31838 5.66261C6.1371 6.10218 5.81588 6.4736 5.40188 6.72233L5.30738 6.78193C5.12306 6.90895 4.97265 7.0771 4.86873 7.27232L4.91383 7.19495L4.91008 7.32199C4.9133 7.55202 4.9745 7.77788 5.08725 7.97968L5.14846 8.07849L5.2102 8.16214L5.24135 8.2071C5.68657 8.91299 6.24567 9.54444 6.89716 10.0772C7.3589 10.4478 7.61017 10.5796 7.78896 10.544C7.93177 10.5153 8.04291 10.429 8.29902 10.153L8.41767 10.0254C8.80586 9.61972 9.07914 9.43621 9.54517 9.36616C10.2507 9.26003 10.7741 9.5047 11.4013 10.0406C11.4517 10.084 11.6461 10.2549 11.6965 10.2968L11.9795 10.5341L12.1599 10.6904C12.6887 11.1662 12.9556 11.5896 12.9116 12.1543L12.9008 12.2233C12.8008 12.681 12.5185 13.0814 12.1159 13.3369L12.1642 13.3034L12.0192 13.4414C11.9576 13.498 11.8951 13.5538 11.8318 13.6087L11.6396 13.7708L11.4431 13.9276L11.398 13.959C10.6565 14.4209 9.784 14.6428 8.90518 14.5932C8.08736 14.5503 7.29281 14.3128 6.59112 13.9015C5.41362 13.2349 4.36867 12.3677 3.50607 11.3413C2.5544 10.3221 1.81338 9.13392 1.32355 7.84166C1.02276 7.06993 0.929582 6.23614 1.05287 5.41948C1.17616 4.60282 1.51182 3.83041 2.02797 3.17562L2.06448 3.1338C2.26797 2.92572 2.48541 2.73228 2.71682 2.55453L2.67924 2.58381L2.73078 2.53048C2.8489 2.41285 2.98151 2.30934 3.12809 2.22098L3.22634 2.16556L3.74177 2.00454ZM3.90284 3.01094L3.8615 3.0261C3.70498 3.08754 3.56568 3.1843 3.45506 3.30842L3.38258 3.37481C3.19133 3.5222 3.01101 3.68258 2.84299 3.85475L2.86232 3.8354L2.79091 3.93003C2.43585 4.41857 2.20438 4.98189 2.11537 5.57407C2.02636 6.16626 2.08233 6.77055 2.27871 7.33767L2.32917 7.47517C2.77575 8.65142 3.45157 9.73254 4.31948 10.6591C5.10723 11.5987 6.06243 12.3925 7.1393 13.0023C7.69231 13.3269 8.31835 13.5146 8.96585 13.5491C9.61914 13.5864 10.2678 13.4217 10.8192 13.0786L10.7972 13.0911L10.9476 12.9709C11.0619 12.8773 11.1736 12.7806 11.2826 12.6807L11.4437 12.5291L11.5296 12.4612C11.6944 12.3566 11.8098 12.1924 11.8506 12.0058L11.8399 12.0429L11.8404 12.0346C11.8308 11.8861 11.7046 11.7047 11.427 11.4542L11.347 11.3842C11.289 11.3345 11.0431 11.1306 10.9868 11.082L10.7199 10.8499L10.6072 10.7547C10.2442 10.4588 9.99725 10.3558 9.70893 10.3992C9.52907 10.4264 9.40611 10.5174 9.12424 10.8227L9.00612 10.9482C8.65498 11.3167 8.4123 11.4861 8.00587 11.5682C7.37554 11.6937 6.93689 11.4637 6.21046 10.8812C5.46891 10.2754 4.83256 9.5571 4.32592 8.75395L4.33935 8.77382L4.27868 8.69226C3.94841 8.22312 3.79513 7.65711 3.84486 7.09039L3.86043 6.95969L3.87278 6.87081L3.91573 6.79134C4.12723 6.3927 4.44871 6.05939 4.84404 5.82886C5.05987 5.69816 5.22739 5.50367 5.32188 5.27364L5.31812 5.28201L5.30577 5.30815L5.31168 5.27991C5.35893 4.99446 5.25369 4.69437 4.96645 4.23326L4.89719 4.12347L4.63411 3.71411L4.50203 3.51754C4.26633 3.18399 4.087 3.03133 3.93828 3.01303L3.90284 3.01094ZM8.76827 4.15954C9.46535 4.39897 10.0923 4.79958 10.5954 5.32697C11.0492 5.85027 11.3736 6.46807 11.5435 7.13274C11.5743 7.26596 11.5504 7.40564 11.4768 7.52188C11.4032 7.63812 11.2858 7.72171 11.1497 7.75477C11.0136 7.78782 10.8697 7.76772 10.7486 7.69877C10.6276 7.62981 10.539 7.51747 10.5019 7.38577C10.3748 6.88499 10.1327 6.4188 9.79376 6.0223C9.41226 5.62675 8.93863 5.3264 8.41284 5.1466C8.27842 5.1007 8.16823 5.00469 8.1065 4.87968C8.04478 4.75468 8.03659 4.61091 8.08372 4.48002C8.13085 4.34913 8.22945 4.24183 8.35783 4.18173C8.48621 4.12163 8.63385 4.11365 8.76827 4.15954ZM9.28907 2.03068C10.2949 2.35159 11.2197 2.87573 12.0031 3.56877L12.2275 3.78469C12.8592 4.61622 13.3195 5.55892 13.5832 6.56079C13.6007 6.62731 13.6046 6.69654 13.5946 6.76452C13.5846 6.8325 13.561 6.8979 13.525 6.95698C13.4891 7.01606 13.4415 7.06767 13.3851 7.10886C13.3287 7.15005 13.2644 7.18001 13.1961 7.19704C13.1278 7.21407 13.0567 7.21782 12.9869 7.2081C12.9171 7.19837 12.8499 7.17534 12.7892 7.14034C12.7286 7.10534 12.6756 7.05904 12.6333 7.0041C12.591 6.94915 12.5602 6.88663 12.5427 6.8201C12.3327 6.02225 11.9792 5.26697 11.4984 4.58929L11.3911 4.4429L11.259 4.32266C10.6483 3.78749 9.93806 3.371 9.16666 3.09563L8.95511 3.02401C8.88631 3.00413 8.8223 2.97102 8.76686 2.92664C8.71143 2.88225 8.66569 2.8275 8.63236 2.76561C8.59903 2.70372 8.57878 2.63595 8.57281 2.56631C8.56684 2.49667 8.57526 2.42656 8.59759 2.36015C8.61992 2.29373 8.6557 2.23235 8.70281 2.17963C8.74992 2.12691 8.8074 2.08392 8.87187 2.05321C8.93633 2.02249 9.00647 2.00467 9.07813 2.0008C9.14978 1.99693 9.22151 2.00709 9.28907 2.03068Z" fill="#B0B2B5"/>
<path d="M3.74177 2.00454C4.35921 2.02022 4.9337 2.24974 5.45987 3.03185L5.50013 3.09197L5.89207 3.70366C6.33502 4.41729 6.50146 4.94689 6.342 5.59098L6.31838 5.66261C6.1371 6.10218 5.81588 6.4736 5.40188 6.72233L5.30738 6.78193C5.12306 6.90895 4.97265 7.0771 4.86873 7.27232L4.91383 7.19495L4.91008 7.32199C4.9133 7.55202 4.9745 7.77788 5.08725 7.97968L5.14846 8.07849L5.2102 8.16214L5.24135 8.2071C5.68657 8.91299 6.24567 9.54444 6.89716 10.0772C7.3589 10.4478 7.61017 10.5796 7.78896 10.544C7.93177 10.5153 8.04291 10.429 8.29902 10.153L8.41767 10.0254C8.80586 9.61972 9.07914 9.43621 9.54517 9.36616C10.2507 9.26003 10.7741 9.5047 11.4013 10.0406C11.4517 10.084 11.6461 10.2549 11.6965 10.2968L11.9795 10.5341L12.1599 10.6904C12.6887 11.1662 12.9556 11.5896 12.9116 12.1543L12.9008 12.2233C12.8008 12.681 12.5185 13.0814 12.1159 13.3369L12.1642 13.3034L12.0192 13.4414C11.9576 13.498 11.8951 13.5538 11.8318 13.6087L11.6396 13.7708L11.4431 13.9276L11.398 13.959C10.6565 14.4209 9.784 14.6428 8.90518 14.5932C8.08736 14.5503 7.29281 14.3128 6.59112 13.9015C5.41362 13.2349 4.36867 12.3677 3.50607 11.3413C2.5544 10.3221 1.81338 9.13392 1.32355 7.84166C1.02276 7.06993 0.929582 6.23614 1.05287 5.41948C1.17616 4.60282 1.51182 3.83041 2.02797 3.17562L2.06448 3.1338C2.26797 2.92572 2.48541 2.73228 2.71682 2.55453L2.67924 2.58381L2.73078 2.53048C2.8489 2.41285 2.98151 2.30934 3.12809 2.22098L3.22634 2.16556L3.74177 2.00454ZM3.90284 3.01094L3.8615 3.0261C3.70498 3.08754 3.56568 3.1843 3.45506 3.30842L3.38258 3.37481C3.19133 3.5222 3.01101 3.68258 2.84299 3.85475L2.86232 3.8354L2.79091 3.93003C2.43585 4.41857 2.20438 4.98189 2.11537 5.57407C2.02636 6.16626 2.08233 6.77055 2.27871 7.33767L2.32917 7.47517C2.77575 8.65142 3.45157 9.73254 4.31948 10.6591C5.10723 11.5987 6.06243 12.3925 7.1393 13.0023C7.69231 13.3269 8.31835 13.5146 8.96585 13.5491C9.61914 13.5864 10.2678 13.4217 10.8192 13.0786L10.7972 13.0911L10.9476 12.9709C11.0619 12.8773 11.1736 12.7806 11.2826 12.6807L11.4437 12.5291L11.5296 12.4612C11.6944 12.3566 11.8098 12.1924 11.8506 12.0058L11.8399 12.0429L11.8404 12.0346C11.8308 11.8861 11.7046 11.7047 11.427 11.4542L11.347 11.3842C11.289 11.3345 11.0431 11.1306 10.9868 11.082L10.7199 10.8499L10.6072 10.7547C10.2442 10.4588 9.99725 10.3558 9.70893 10.3992C9.52907 10.4264 9.40611 10.5174 9.12424 10.8227L9.00612 10.9482C8.65498 11.3167 8.4123 11.4861 8.00587 11.5682C7.37554 11.6937 6.93689 11.4637 6.21046 10.8812C5.46891 10.2754 4.83256 9.5571 4.32592 8.75395L4.33935 8.77382L4.27868 8.69226C3.94841 8.22312 3.79513 7.65711 3.84486 7.09039L3.86043 6.95969L3.87278 6.87081L3.91573 6.79134C4.12723 6.3927 4.44871 6.05939 4.84404 5.82886C5.05987 5.69816 5.22739 5.50367 5.32188 5.27364L5.31812 5.28201L5.30577 5.30815L5.31168 5.27991C5.35893 4.99446 5.25369 4.69437 4.96645 4.23326L4.89719 4.12347L4.63411 3.71411L4.50203 3.51754C4.26633 3.18399 4.087 3.03133 3.93828 3.01303L3.90284 3.01094ZM8.76827 4.15954C9.46535 4.39897 10.0923 4.79958 10.5954 5.32697C11.0492 5.85027 11.3736 6.46807 11.5435 7.13274C11.5743 7.26596 11.5504 7.40564 11.4768 7.52188C11.4032 7.63812 11.2858 7.72171 11.1497 7.75477C11.0136 7.78782 10.8697 7.76772 10.7486 7.69877C10.6276 7.62981 10.539 7.51747 10.5019 7.38577C10.3748 6.88499 10.1327 6.4188 9.79376 6.0223C9.41226 5.62675 8.93863 5.3264 8.41284 5.1466C8.27842 5.1007 8.16823 5.00469 8.1065 4.87968C8.04478 4.75468 8.03659 4.61091 8.08372 4.48002C8.13085 4.34913 8.22945 4.24183 8.35783 4.18173C8.48621 4.12163 8.63385 4.11365 8.76827 4.15954ZM9.28907 2.03068C10.2949 2.35159 11.2197 2.87573 12.0031 3.56877L12.2275 3.78469C12.8592 4.61622 13.3195 5.55892 13.5832 6.56079C13.6007 6.62731 13.6046 6.69654 13.5946 6.76452C13.5846 6.8325 13.561 6.8979 13.525 6.95698C13.4891 7.01606 13.4415 7.06767 13.3851 7.10886C13.3287 7.15005 13.2644 7.18001 13.1961 7.19704C13.1278 7.21407 13.0567 7.21782 12.9869 7.2081C12.9171 7.19837 12.8499 7.17534 12.7892 7.14034C12.7286 7.10534 12.6756 7.05904 12.6333 7.0041C12.591 6.94915 12.5602 6.88663 12.5427 6.8201C12.3327 6.02225 11.9792 5.26697 11.4984 4.58929L11.3911 4.4429L11.259 4.32266C10.6483 3.78749 9.93806 3.371 9.16666 3.09563L8.95511 3.02401C8.88631 3.00413 8.8223 2.97102 8.76686 2.92664C8.71143 2.88225 8.66569 2.8275 8.63236 2.76561C8.59903 2.70372 8.57878 2.63595 8.57281 2.56631C8.56684 2.49667 8.57526 2.42656 8.59759 2.36015C8.61992 2.29373 8.6557 2.23235 8.70281 2.17963C8.74992 2.12691 8.8074 2.08392 8.87187 2.05321C8.93633 2.02249 9.00647 2.00467 9.07813 2.0008C9.14978 1.99693 9.22151 2.00709 9.28907 2.03068Z" stroke="#B0B2B5" stroke-width="0.2" mask="url(#path-1-outside-1_211_869)"/>
</g>
<defs>
<clipPath id="clip0_211_869">
<rect width="14" height="14" fill="white" transform="translate(0 0.5)"/>
</clipPath>
</defs>
</svg>
