<svg width="168" height="57" viewBox="0 0 168 57" fill="none" xmlns="http://www.w3.org/2000/svg">
<path d="M164 0H4C1.79086 0 0 1.79086 0 4V53C0 55.2091 1.79086 57 4 57H164C166.209 57 168 55.2091 168 53V4C168 1.79086 166.209 0 164 0Z" fill="url(#paint0_linear_18_536)"/>
<path d="M23.176 20.824C22.376 21.0907 21.4907 21.352 20.52 21.608V24.84C20.52 25.9173 19.96 26.456 18.84 26.456H17.032L16.664 24.872C17.2293 24.936 17.7627 24.968 18.264 24.968C18.6373 24.968 18.824 24.7867 18.824 24.424V22.008C17.8533 22.2107 16.8987 22.3867 15.96 22.536L15.72 20.856C16.744 20.7067 17.7787 20.52 18.824 20.296V17.544H15.704V15.944H18.824V14.456C18.1093 14.6053 17.3147 14.7387 16.44 14.856L16.088 13.272C18.328 13.0267 20.3013 12.5573 22.008 11.864L22.584 13.432C21.9867 13.656 21.2987 13.8693 20.52 14.072V15.944H23.8C23.7147 14.8453 23.672 13.4907 23.672 11.88H25.352C25.3733 13.48 25.4267 14.8347 25.512 15.944H30.296V17.544H25.64C25.736 18.5467 25.8747 19.4 26.056 20.104L26.248 20.808C26.9093 19.9867 27.48 19.08 27.96 18.088L29.4 18.856C28.696 20.3067 27.8533 21.56 26.872 22.616C27.032 23.0107 27.2027 23.336 27.384 23.592C27.832 24.296 28.1733 24.648 28.408 24.648C28.5787 24.648 28.76 23.8427 28.952 22.232L30.44 23.016C30.024 25.3093 29.4267 26.456 28.648 26.456C27.944 26.456 27.2133 25.9813 26.456 25.032C26.1467 24.6373 25.88 24.216 25.656 23.768C24.568 24.664 23.3573 25.368 22.024 25.88L21.096 24.456C22.5787 23.912 23.8693 23.144 24.968 22.152C24.7973 21.64 24.6373 21.112 24.488 20.568C24.2533 19.736 24.072 18.728 23.944 17.544H20.52V19.912C21.5547 19.6453 22.44 19.384 23.176 19.128V20.824ZM27.112 12.024C28.232 12.728 29.192 13.432 29.992 14.136L28.792 15.336C28.152 14.6533 27.2187 13.9067 25.992 13.096L27.112 12.024ZM35.304 15.496C35.7947 16.3067 36.2693 17.1813 36.728 18.12L35.592 18.696H38.152V15.192H32.584V13.576H38.152V11.912H39.848V13.576H45.56V15.192H39.848V18.696H41.128C41.6613 17.6827 42.1307 16.5787 42.536 15.384L44.168 15.96C43.752 16.9627 43.288 17.8747 42.776 18.696H46.008V20.312H41.128C42.2587 21.9333 44.0667 23.384 46.552 24.664L45.4 26.104C42.808 24.408 40.9573 22.5253 39.848 20.456V26.648H38.152V20.44C37.1173 22.648 35.192 24.5413 32.376 26.12L31.448 24.616C34.0827 23.3147 35.88 21.88 36.84 20.312H31.96V18.696H35.24C34.7813 17.7253 34.312 16.8933 33.832 16.2L35.304 15.496ZM61.56 19.688V26.648H59.912V26.104H55.544V26.648H53.896V19.688H61.56ZM55.544 24.504H59.912V21.288H55.544V24.504ZM48.2 26.488L47.832 24.872C48.2693 24.936 48.68 24.968 49.064 24.968C49.448 24.968 49.64 24.7813 49.64 24.408V21.192C48.872 21.4907 48.296 21.704 47.912 21.832L47.448 20.088C48.12 19.9387 48.8507 19.7253 49.64 19.448V16.232H47.768V14.616H49.64V11.88H51.304V14.616H53.016V16.232H51.304V18.76C51.848 18.4933 52.3387 18.2373 52.776 17.992V19.688C52.2427 19.976 51.752 20.2267 51.304 20.44V24.84C51.304 25.9387 50.7493 26.488 49.64 26.488H48.2ZM53.656 13.928V12.36H61.864C61.832 15.528 61.6347 17.4267 61.272 18.056C60.8773 18.6747 60.232 18.984 59.336 18.984C59.048 18.984 58.648 18.9573 58.136 18.904L57.736 17.448C58.248 17.48 58.664 17.512 58.984 17.544C59.5173 17.5227 59.8533 17.3147 59.992 16.92C60.12 16.536 60.2 15.5387 60.232 13.928H57.688C57.432 15.1653 57.0853 16.168 56.648 16.936C56.072 17.8533 55.2293 18.6747 54.12 19.4L53.112 18.088C54.0187 17.5227 54.7173 16.888 55.208 16.184C55.5707 15.5973 55.8533 14.8453 56.056 13.928H53.656ZM70.344 13.08H73.304V11.976H74.824V13.08H77.784V18.904H70.344V13.08ZM76.28 17.576V16.648H74.824V17.576H76.28ZM73.304 17.576V16.648H71.816V17.576H73.304ZM71.816 15.4H73.304V14.424H71.816V15.4ZM74.824 14.424V15.4H76.28V14.424H74.824ZM69.624 19.608H78.344V21.048H73.272L72.84 22.008H77.56C77.4533 24.216 77.2133 25.528 76.84 25.944C76.488 26.3493 75.7733 26.552 74.696 26.552C74.0773 26.552 73.4853 26.5093 72.92 26.424L72.392 25C73.1813 25.0853 73.8373 25.128 74.36 25.128C75.0213 25.128 75.432 25.032 75.592 24.84C75.7413 24.6053 75.848 24.12 75.912 23.384H70.776L71.656 21.048H69.624V19.608ZM63.848 12.36H69.992V13.896H69.272V21.896L69.864 21.688V23.304L69.272 23.496V26.648H67.736V23.96C66.52 24.3013 65.2827 24.6053 64.024 24.872L63.624 23.272L64.52 23.128V13.896H63.848V12.36ZM66.04 22.824C66.5947 22.696 67.16 22.552 67.736 22.392V20.552H66.04V22.824ZM66.04 19.048H67.736V17.24H66.04V19.048ZM66.04 15.736H67.736V13.896H66.04V15.736Z" fill="white"/>
<path d="M25.8 37.692L25.896 38.304L22.104 39.012C22.184 39.828 22.288 40.52 22.416 41.088C22.544 41.64 22.668 42.112 22.788 42.504C23.66 41.696 24.388 40.724 24.972 39.588L25.536 39.888C24.856 41.2 24.02 42.292 23.028 43.164C23.18 43.596 23.352 43.964 23.544 44.268C24 44.996 24.42 45.364 24.804 45.372C25.108 45.324 25.416 44.552 25.728 43.056L26.304 43.428C26.128 44.124 25.936 44.712 25.728 45.192C25.464 45.768 25.168 46.056 24.84 46.056C24.304 46.056 23.772 45.676 23.244 44.916C22.98 44.54 22.74 44.092 22.524 43.572C21.708 44.196 20.808 44.688 19.824 45.048L19.464 44.472C20.528 44.096 21.468 43.584 22.284 42.936C22.108 42.4 21.972 41.936 21.876 41.544C21.7 40.888 21.564 40.084 21.468 39.132L19.776 39.444L19.692 38.82L21.408 38.508C21.32 37.476 21.276 36.384 21.276 35.232H21.924C21.924 36.432 21.964 37.484 22.044 38.388L25.8 37.692ZM19.572 40.728C19.1 40.984 18.572 41.24 17.988 41.496V45.06C17.988 45.748 17.676 46.092 17.052 46.092H16.02L15.876 45.468C16.324 45.5 16.64 45.516 16.824 45.516C17.176 45.516 17.352 45.308 17.352 44.892V41.772C16.728 42.012 16.164 42.212 15.66 42.372L15.48 41.688C16.152 41.512 16.776 41.316 17.352 41.1V38.136H15.624V37.5H17.352V35.268H17.988V37.5H19.536V38.136H17.988V40.836C18.596 40.564 19.124 40.304 19.572 40.056V40.728ZM23.712 35.208C24.16 35.752 24.552 36.3 24.888 36.852L24.3 37.14C23.932 36.524 23.544 35.976 23.136 35.496L23.712 35.208ZM33.336 35.244C33.336 36.14 33.308 37.016 33.252 37.872C33.924 41.2 35.68 43.744 38.52 45.504L38.088 46.056C35.504 44.384 33.816 42.132 33.024 39.3C32.36 42.028 30.64 44.284 27.864 46.068L27.468 45.492C30.812 43.404 32.544 40.636 32.664 37.188L32.676 35.244H33.336ZM44.16 46.068L44.016 45.444C44.848 45.476 45.444 45.492 45.804 45.492C46.188 45.492 46.38 45.272 46.38 44.832V38.136H45.828C44.676 40.68 42.684 42.756 39.852 44.364L39.516 43.812C42.18 42.34 44.072 40.448 45.192 38.136H39.708V37.5H46.38V35.244H47.016V37.5H50.124V38.136H47.016V45C47.016 45.712 46.688 46.068 46.032 46.068H44.16Z" fill="white"/>
<mask id="mask0_18_536" style="mask-type:luminance" maskUnits="userSpaceOnUse" x="120" y="12" width="34" height="34">
<path d="M154 12H120V46H154V12Z" fill="white"/>
</mask>
<g mask="url(#mask0_18_536)">
<path d="M147.317 24.9641V19.4814C147.302 18.865 146.794 18.3752 146.178 18.3836H138.207V15.1216C138.186 14.4957 137.672 13.9996 137.046 14H130.266C129.639 13.999 129.125 14.4952 129.103 15.1216V18.3836H122.138C121.521 18.3745 121.013 18.8649 121 19.4814V24.9641L133.655 27.1571L147.317 24.9641ZM131.235 16.9237H135.621V18.3861H131.235V16.9237ZM131.235 23.137C131.242 22.9314 131.488 22.7698 131.785 22.7723H135.071C135.369 22.7685 135.615 22.9314 135.622 23.1357V23.8676C135.615 24.0731 135.369 24.236 135.071 24.2335H131.774C131.48 24.231 131.242 24.0706 131.235 23.8676V23.137ZM134.255 29.3465L138.545 28.933V40.3168H122.192C121.544 40.3244 121.011 39.8331 121.001 39.2178V27.1585L134.256 29.3465H134.255Z" fill="white"/>
<path fill-rule="evenodd" clip-rule="evenodd" d="M141.501 44.5662C141.028 44.7781 139.725 45.0449 139.725 43.6878V29.7223C139.725 29.2035 140.087 28.6571 140.605 28.6571H152.004C152.532 28.6571 153 29.2035 153 29.7235V43.5611C153 44.7604 151.955 44.8569 151.486 44.6514L147.035 42.5925C146.826 42.5085 146.601 42.4609 146.376 42.4484C146.017 42.417 145.656 42.4684 145.323 42.5987L141.501 44.5662ZM144.001 35.7562L142.649 34.4065L144.002 34.1847L145.171 33.9917L146.277 31.5806L146.618 32.2836L147.431 33.9654L149.96 34.3225L148.153 36.2086L148.613 38.8403L146.618 37.77L146.341 37.6222L144.092 38.8904L144.498 36.2512L144.001 35.7562Z" fill="#BCFFBC"/>
</g>
<defs>
<linearGradient id="paint0_linear_18_536" x1="168" y1="28.5" x2="0" y2="28.5" gradientUnits="userSpaceOnUse">
<stop offset="0.0571429" stop-color="#56C5A8"/>
<stop offset="1" stop-color="#22A886"/>
</linearGradient>
</defs>
</svg>
