<svg width="20" height="20" viewBox="0 0 20 20" fill="none" xmlns="http://www.w3.org/2000/svg">
<mask id="mask0_1508_77" style="mask-type:luminance" maskUnits="userSpaceOnUse" x="0" y="0" width="20" height="20">
<path d="M20 0H0V20H20V0Z" fill="white"/>
</mask>
<g mask="url(#mask0_1508_77)">
<path d="M12.0662 10.3071L12.8488 9.97332L12.0662 9.63954L11.7217 8.88138L11.3771 9.63954L10.5946 9.97332L11.3771 10.3071L11.7217 11.0653L12.0662 10.3071ZM9.6251 12.5809L11.1588 11.8836L9.6251 11.2167L8.90531 9.70034L8.21691 11.2167L6.65182 11.8836L8.21691 12.5809L8.90531 14.0669L9.6251 12.5809ZM14.0065 5H16.6667V14.0669C16.6667 14.4106 16.5363 14.7138 16.2754 14.9764C16.0145 15.239 15.7067 15.3703 15.352 15.3703H4.64805C4.29328 15.3703 3.98547 15.239 3.72462 14.9764C3.46377 14.7138 3.33334 14.4106 3.33334 14.0669V6.30414C3.33334 5.96043 3.46377 5.65726 3.72462 5.39462C3.98547 5.13198 4.29328 5.00064 4.64805 5.00064H5.33645L6.65115 7.60829H8.65426L7.33955 5.00064H8.65426L10.0003 7.60829H12.0034L10.6574 5.00064H12.0034L13.3495 7.60829H15.3527L14.0065 5Z" fill="#248069"/>
</g>
</svg>
