<svg width="24" height="24" viewBox="0 0 24 24" fill="none" xmlns="http://www.w3.org/2000/svg">
<mask id="mask0_13_1249" style="mask-type:luminance" maskUnits="userSpaceOnUse" x="0" y="0" width="24" height="24">
<path d="M24 0H0V24H24V0Z" fill="white"/>
</mask>
<g mask="url(#mask0_13_1249)">
<path d="M14.4794 12.3686L15.4185 11.968L14.4794 11.5674L14.066 10.6577L13.6526 11.5674L12.7135 11.968L13.6526 12.3686L14.066 13.2784L14.4794 12.3686ZM11.5501 15.0971L13.3905 14.2603L11.5501 13.46L10.6864 11.6404L9.86028 13.46L7.98217 14.2603L9.86028 15.0971L10.6864 16.8803L11.5501 15.0971ZM16.8078 6H20V16.8803C20 17.2927 19.8435 17.6565 19.5305 17.9717C19.2174 18.2868 18.8481 18.4444 18.4224 18.4444H5.57765C5.15192 18.4444 4.78255 18.2868 4.46953 17.9717C4.15651 17.6565 4 17.2927 4 16.8803V7.56497C4 7.15251 4.15651 6.78871 4.46953 6.47354C4.78255 6.15837 5.15192 6.00076 5.57765 6.00076H6.40373L7.98137 9.12994H10.3851L8.80745 6.00076H10.3851L12.0004 9.12994H14.4041L12.7888 6.00076H14.4041L16.0194 9.12994H18.4232L16.8078 6Z" fill="#B2B2B2"/>
</g>
</svg>
