<svg width="14" height="13" viewBox="0 0 14 13" fill="none" xmlns="http://www.w3.org/2000/svg">
<mask id="path-1-outside-1_94_341" maskUnits="userSpaceOnUse" x="-0.999268" y="-0.5" width="15" height="14" fill="black">
<rect fill="white" x="-0.999268" y="-0.5" width="15" height="14"/>
<path d="M6.81917 0.5C6.98648 0.5 7.15236 0.535891 7.30452 0.605469L13.0282 3.31934C13.21 3.40139 13.3637 3.5347 13.4705 3.70312C13.5774 3.8717 13.633 4.068 13.6297 4.26758C13.6264 4.46715 13.5644 4.66125 13.452 4.82617C13.3395 4.99111 13.1815 5.1203 12.9969 5.19629L11.4793 5.86523V9.66895C11.4797 9.86368 11.4249 10.055 11.3211 10.2197C11.2174 10.3842 11.069 10.516 10.8934 10.5996L7.05354 12.4375C6.98246 12.4789 6.90144 12.5005 6.81917 12.5C6.74366 12.5003 6.6682 12.4843 6.59944 12.4531L2.75276 10.6152C2.57765 10.5308 2.4297 10.3988 2.326 10.2344C2.2223 10.0698 2.16649 9.87909 2.16585 9.68457V5.87207L0.633619 5.19629C0.449901 5.11862 0.292809 4.98906 0.180494 4.82422C0.0682255 4.65927 0.00574672 4.4651 0.000806843 4.26562C-0.00159168 4.06645 0.0540331 3.87019 0.160963 3.70215C0.267815 3.53436 0.421211 3.40148 0.602369 3.31934L6.33479 0.605469C6.48686 0.535967 6.65197 0.500019 6.81917 0.5ZM7.27327 7.72168C7.13075 7.78571 6.97539 7.81765 6.81917 7.81543C6.66078 7.81525 6.50411 7.78338 6.35823 7.72168L3.18245 6.32031V9.67676L6.81917 11.4287L10.4471 9.69238L10.4598 6.31543L7.27327 7.72168ZM13.4871 8.91016C13.488 9.06088 13.4438 9.20858 13.3602 9.33398C13.2766 9.45934 13.1578 9.55706 13.0184 9.61426C12.9365 9.64864 12.847 9.66199 12.7586 9.65332C12.6702 9.64463 12.5852 9.61407 12.5115 9.56445C12.438 9.51484 12.378 9.44772 12.3367 9.36914C12.2956 9.29058 12.2742 9.20295 12.2752 9.11426V6.18164L13.4871 5.67285V8.91016ZM6.76448 1.50488L1.03303 4.22656C1.00957 4.23438 1.00178 4.24218 1.00178 4.25C1.01142 4.25853 1.02213 4.2666 1.03303 4.27344L6.76448 6.79883C6.78027 6.80655 6.79769 6.81053 6.81526 6.81055C6.83285 6.81055 6.85023 6.80654 6.86604 6.79883L12.5907 4.27344C12.6035 4.26978 12.6148 4.26131 12.6219 4.25C12.6123 4.24145 12.6015 4.23342 12.5907 4.22656L6.86604 1.5127C6.853 1.50164 6.83624 1.49605 6.81917 1.49707C6.80061 1.49583 6.78194 1.49848 6.76448 1.50488Z"/>
</mask>
<path d="M6.81917 0.5C6.98648 0.5 7.15236 0.535891 7.30452 0.605469L13.0282 3.31934C13.21 3.40139 13.3637 3.5347 13.4705 3.70312C13.5774 3.8717 13.633 4.068 13.6297 4.26758C13.6264 4.46715 13.5644 4.66125 13.452 4.82617C13.3395 4.99111 13.1815 5.1203 12.9969 5.19629L11.4793 5.86523V9.66895C11.4797 9.86368 11.4249 10.055 11.3211 10.2197C11.2174 10.3842 11.069 10.516 10.8934 10.5996L7.05354 12.4375C6.98246 12.4789 6.90144 12.5005 6.81917 12.5C6.74366 12.5003 6.6682 12.4843 6.59944 12.4531L2.75276 10.6152C2.57765 10.5308 2.4297 10.3988 2.326 10.2344C2.2223 10.0698 2.16649 9.87909 2.16585 9.68457V5.87207L0.633619 5.19629C0.449901 5.11862 0.292809 4.98906 0.180494 4.82422C0.0682255 4.65927 0.00574672 4.4651 0.000806843 4.26562C-0.00159168 4.06645 0.0540331 3.87019 0.160963 3.70215C0.267815 3.53436 0.421211 3.40148 0.602369 3.31934L6.33479 0.605469C6.48686 0.535967 6.65197 0.500019 6.81917 0.5ZM7.27327 7.72168C7.13075 7.78571 6.97539 7.81765 6.81917 7.81543C6.66078 7.81525 6.50411 7.78338 6.35823 7.72168L3.18245 6.32031V9.67676L6.81917 11.4287L10.4471 9.69238L10.4598 6.31543L7.27327 7.72168ZM13.4871 8.91016C13.488 9.06088 13.4438 9.20858 13.3602 9.33398C13.2766 9.45934 13.1578 9.55706 13.0184 9.61426C12.9365 9.64864 12.847 9.66199 12.7586 9.65332C12.6702 9.64463 12.5852 9.61407 12.5115 9.56445C12.438 9.51484 12.378 9.44772 12.3367 9.36914C12.2956 9.29058 12.2742 9.20295 12.2752 9.11426V6.18164L13.4871 5.67285V8.91016ZM6.76448 1.50488L1.03303 4.22656C1.00957 4.23438 1.00178 4.24218 1.00178 4.25C1.01142 4.25853 1.02213 4.2666 1.03303 4.27344L6.76448 6.79883C6.78027 6.80655 6.79769 6.81053 6.81526 6.81055C6.83285 6.81055 6.85023 6.80654 6.86604 6.79883L12.5907 4.27344C12.6035 4.26978 12.6148 4.26131 12.6219 4.25C12.6123 4.24145 12.6015 4.23342 12.5907 4.22656L6.86604 1.5127C6.853 1.50164 6.83624 1.49605 6.81917 1.49707C6.80061 1.49583 6.78194 1.49848 6.76448 1.50488Z" fill="#B0B2B5"/>
<path d="M6.81917 0.5V0.4H6.81916L6.81917 0.5ZM7.30452 0.605469L7.34736 0.515103L7.3461 0.514526L7.30452 0.605469ZM13.0282 3.31934L12.9853 3.40971L12.987 3.41048L13.0282 3.31934ZM13.4705 3.70312L13.555 3.64957L13.555 3.64954L13.4705 3.70312ZM13.6297 4.26758L13.7297 4.26924V4.26924L13.6297 4.26758ZM13.452 4.82617L13.5346 4.88251L13.5346 4.8825L13.452 4.82617ZM12.9969 5.19629L12.9588 5.10379L12.9566 5.10478L12.9969 5.19629ZM11.4793 5.86523L11.439 5.77373L11.3793 5.80003V5.86523H11.4793ZM11.4793 9.66895H11.3793L11.3793 9.66914L11.4793 9.66895ZM11.3211 10.2197L11.4057 10.2731L11.4057 10.273L11.3211 10.2197ZM10.8934 10.5996L10.8504 10.5093L10.8502 10.5094L10.8934 10.5996ZM7.05354 12.4375L7.01022 12.347L7.00318 12.3511L7.05354 12.4375ZM6.81917 12.5L6.81975 12.4L6.81877 12.4L6.81917 12.5ZM6.59944 12.4531L6.55632 12.5434L6.5581 12.5442L6.59944 12.4531ZM2.75276 10.6152L2.70932 10.7053L2.70965 10.7055L2.75276 10.6152ZM2.326 10.2344L2.2414 10.2877L2.24142 10.2877L2.326 10.2344ZM2.16585 9.68457H2.06585L2.06585 9.6849L2.16585 9.68457ZM2.16585 5.87207H2.26585V5.80688L2.2062 5.78057L2.16585 5.87207ZM0.633619 5.19629L0.673978 5.10478L0.672559 5.10418L0.633619 5.19629ZM0.180494 4.82422L0.0978255 4.88048L0.0978543 4.88053L0.180494 4.82422ZM0.000806843 4.26562L-0.099194 4.26683L-0.0991625 4.2681L0.000806843 4.26562ZM0.160963 3.70215L0.0766149 3.64843L0.076595 3.64846L0.160963 3.70215ZM0.602369 3.31934L0.643671 3.41042L0.645159 3.40972L0.602369 3.31934ZM6.33479 0.605469L6.29322 0.51451L6.292 0.515086L6.33479 0.605469ZM7.27327 7.72168L7.23289 7.63019L7.23229 7.63046L7.27327 7.72168ZM6.81917 7.81543L6.82059 7.71543L6.81928 7.71543L6.81917 7.81543ZM6.35823 7.72168L6.31785 7.81318L6.31928 7.81378L6.35823 7.72168ZM3.18245 6.32031L3.22282 6.22882L3.08245 6.16688V6.32031H3.18245ZM3.18245 9.67676H3.08245V9.73958L3.13905 9.76685L3.18245 9.67676ZM6.81917 11.4287L6.77577 11.5188L6.81902 11.5396L6.86234 11.5189L6.81917 11.4287ZM10.4471 9.69238L10.4903 9.78258L10.5469 9.7555L10.5471 9.69276L10.4471 9.69238ZM10.4598 6.31543L10.5598 6.31581L10.5604 6.16174L10.4194 6.22394L10.4598 6.31543ZM13.4871 8.91016H13.3871L13.3871 8.91071L13.4871 8.91016ZM13.3602 9.33398L13.4434 9.38946L13.4434 9.38945L13.3602 9.33398ZM13.0184 9.61426L12.9804 9.52174L12.9797 9.52205L13.0184 9.61426ZM12.7586 9.65332L12.7488 9.75284L12.7489 9.75284L12.7586 9.65332ZM12.5115 9.56445L12.4556 9.64736L12.4557 9.64739L12.5115 9.56445ZM12.3367 9.36914L12.2482 9.41557L12.2482 9.41559L12.3367 9.36914ZM12.2752 9.11426L12.3752 9.11539V9.11426H12.2752ZM12.2752 6.18164L12.2365 6.08944L12.1752 6.11517V6.18164H12.2752ZM13.4871 5.67285H13.5871V5.52241L13.4484 5.58065L13.4871 5.67285ZM6.76448 1.50488L6.72991 1.4106L6.72158 1.41455L6.76448 1.50488ZM1.03303 4.22656L1.06489 4.32214L1.07593 4.31689L1.03303 4.22656ZM1.00178 4.25H0.901783V4.29503L0.9355 4.32488L1.00178 4.25ZM1.03303 4.27344L0.979906 4.35816L0.986062 4.36202L0.992712 4.36495L1.03303 4.27344ZM6.76448 6.79883L6.80843 6.70892L6.8048 6.70732L6.76448 6.79883ZM6.81526 6.81055L6.81515 6.91055H6.81526V6.81055ZM6.86604 6.79883L6.82565 6.70727L6.82218 6.70896L6.86604 6.79883ZM12.5907 4.27344L12.563 4.17635L12.5503 4.18194L12.5907 4.27344ZM12.6219 4.25L12.7066 4.30309L12.7515 4.23146L12.6884 4.17528L12.6219 4.25ZM12.5907 4.22656L12.6444 4.14136L12.6335 4.1362L12.5907 4.22656ZM6.86604 1.5127L6.80139 1.58899L6.81138 1.59745L6.8232 1.60306L6.86604 1.5127ZM6.81917 1.49707L6.81244 1.59765L6.82511 1.59689L6.81917 1.49707ZM6.81917 0.5V0.6C6.97222 0.6 7.12391 0.632841 7.26293 0.696412L7.30452 0.605469L7.3461 0.514526C7.18081 0.43894 7.00073 0.4 6.81917 0.4V0.5ZM7.30452 0.605469L7.26167 0.695826L12.9853 3.40969L13.0282 3.31934L13.071 3.22898L7.34736 0.515111L7.30452 0.605469ZM13.0282 3.31934L12.987 3.41048C13.151 3.48452 13.2897 3.60477 13.3861 3.75671L13.4705 3.70312L13.555 3.64954C13.4376 3.46463 13.2689 3.31827 13.0693 3.22819L13.0282 3.31934ZM13.4705 3.70312L13.3861 3.75668C13.4826 3.90886 13.5327 4.08598 13.5297 4.26592L13.6297 4.26758L13.7297 4.26924C13.7333 4.05001 13.6723 3.83453 13.555 3.64957L13.4705 3.70312ZM13.6297 4.26758L13.5297 4.26591C13.5267 4.44585 13.4708 4.62096 13.3694 4.76984L13.452 4.82617L13.5346 4.8825C13.658 4.70154 13.726 4.48846 13.7297 4.26924L13.6297 4.26758ZM13.452 4.82617L13.3694 4.76983C13.2677 4.91888 13.1251 5.03537 12.9588 5.10382L12.9969 5.19629L13.035 5.28876C13.2379 5.20523 13.4113 5.06335 13.5346 4.88251L13.452 4.82617ZM12.9969 5.19629L12.9566 5.10478L11.439 5.77373L11.4793 5.86523L11.5197 5.95674L13.0372 5.28779L12.9969 5.19629ZM11.4793 5.86523H11.3793V9.66895H11.4793H11.5793V5.86523H11.4793ZM11.4793 9.66895L11.3793 9.66914C11.3797 9.84504 11.3302 10.0178 11.2365 10.1664L11.3211 10.2197L11.4057 10.273C11.5197 10.0922 11.5797 9.88232 11.5793 9.66875L11.4793 9.66895ZM11.3211 10.2197L11.2365 10.1664C11.1429 10.3149 11.0089 10.4338 10.8504 10.5093L10.8934 10.5996L10.9364 10.6899C11.129 10.5981 11.2919 10.4536 11.4057 10.2731L11.3211 10.2197ZM10.8934 10.5996L10.8502 10.5094L7.01037 12.3473L7.05354 12.4375L7.09671 12.5277L10.9366 10.6898L10.8934 10.5996ZM7.05354 12.4375L7.00318 12.3511C6.94762 12.3835 6.88421 12.4004 6.81975 12.4L6.81917 12.5L6.81858 12.6C6.91867 12.6006 7.0173 12.5744 7.10391 12.5239L7.05354 12.4375ZM6.81917 12.5L6.81877 12.4C6.75747 12.4002 6.69626 12.3873 6.64078 12.3621L6.59944 12.4531L6.5581 12.5442C6.64014 12.5814 6.72985 12.6004 6.81956 12.6L6.81917 12.5ZM6.59944 12.4531L6.64255 12.3629L2.79587 10.525L2.75276 10.6152L2.70965 10.7055L6.55633 12.5434L6.59944 12.4531ZM2.75276 10.6152L2.7962 10.5252C2.63795 10.4488 2.50427 10.3296 2.41059 10.181L2.326 10.2344L2.24142 10.2877C2.35513 10.468 2.51735 10.6127 2.70932 10.7053L2.75276 10.6152ZM2.326 10.2344L2.4106 10.1811C2.31683 10.0323 2.26642 9.85987 2.26585 9.68424L2.16585 9.68457L2.06585 9.6849C2.06655 9.8983 2.12776 10.1074 2.2414 10.2877L2.326 10.2344ZM2.16585 9.68457H2.26585V5.87207H2.16585H2.06585V9.68457H2.16585ZM2.16585 5.87207L2.2062 5.78057L0.673973 5.10479L0.633619 5.19629L0.593265 5.28779L2.12549 5.96357L2.16585 5.87207ZM0.633619 5.19629L0.672559 5.10418C0.506764 5.03409 0.36476 4.91706 0.263134 4.76791L0.180494 4.82422L0.0978543 4.88053C0.220858 5.06105 0.393038 5.20315 0.59468 5.2884L0.633619 5.19629ZM0.180494 4.82422L0.263163 4.76795C0.161707 4.61889 0.10524 4.44339 0.100776 4.26315L0.000806843 4.26562L-0.0991625 4.2681C-0.0937464 4.4868 -0.025256 4.69965 0.0978255 4.88048L0.180494 4.82422ZM0.000806843 4.26562L0.1008 4.26442C0.098634 4.08459 0.148875 3.90742 0.245331 3.75583L0.160963 3.70215L0.076595 3.64846C-0.0408084 3.83297 -0.101817 4.04831 -0.0991859 4.26683L0.000806843 4.26562ZM0.160963 3.70215L0.245311 3.75586C0.341708 3.6045 0.480123 3.48457 0.643665 3.41041L0.602369 3.31934L0.561073 3.22826C0.362298 3.31839 0.193921 3.46423 0.0766149 3.64843L0.160963 3.70215ZM0.602369 3.31934L0.645159 3.40972L6.37758 0.695852L6.33479 0.605469L6.292 0.515086L0.55958 3.22895L0.602369 3.31934ZM6.33479 0.605469L6.37636 0.696419C6.51538 0.63288 6.66632 0.600017 6.81918 0.6L6.81917 0.5L6.81916 0.4C6.63762 0.40002 6.45833 0.439054 6.29322 0.514518L6.33479 0.605469ZM7.27327 7.72168L7.23229 7.63046C7.10318 7.68847 6.96229 7.71745 6.82059 7.71544L6.81917 7.81543L6.81775 7.91542C6.98848 7.91784 7.15833 7.88295 7.31425 7.8129L7.27327 7.72168ZM6.81917 7.81543L6.81928 7.71543C6.67424 7.71527 6.53078 7.68608 6.39718 7.62958L6.35823 7.72168L6.31928 7.81378C6.47744 7.88068 6.64731 7.91524 6.81905 7.91543L6.81917 7.81543ZM6.35823 7.72168L6.3986 7.63019L3.22282 6.22882L3.18245 6.32031L3.14208 6.4118L6.31786 7.81317L6.35823 7.72168ZM3.18245 6.32031H3.08245V9.67676H3.18245H3.28245V6.32031H3.18245ZM3.18245 9.67676L3.13905 9.76685L6.77577 11.5188L6.81917 11.4287L6.86257 11.3386L3.22585 9.58667L3.18245 9.67676ZM6.81917 11.4287L6.86234 11.5189L10.4903 9.78258L10.4471 9.69238L10.4039 9.60218L6.776 11.3385L6.81917 11.4287ZM10.4471 9.69238L10.5471 9.69276L10.5598 6.31581L10.4598 6.31543L10.3598 6.31505L10.3471 9.69201L10.4471 9.69238ZM10.4598 6.31543L10.4194 6.22394L7.23289 7.63019L7.27327 7.72168L7.31364 7.81317L10.5002 6.40692L10.4598 6.31543ZM13.4871 8.91016L13.3871 8.91071C13.3879 9.04154 13.3495 9.16972 13.277 9.27852L13.3602 9.33398L13.4434 9.38945C13.5381 9.24743 13.5881 9.08021 13.5871 8.9096L13.4871 8.91016ZM13.3602 9.33398L13.277 9.27851C13.2044 9.38742 13.1012 9.47217 12.9804 9.52175L13.0184 9.61426L13.0564 9.70677C13.2143 9.64195 13.3488 9.53127 13.4434 9.38946L13.3602 9.33398ZM13.0184 9.61426L12.9797 9.52205C12.9132 9.54997 12.8404 9.56086 12.7684 9.5538L12.7586 9.65332L12.7489 9.75284C12.8537 9.76313 12.9598 9.74731 13.0571 9.70647L13.0184 9.61426ZM12.7586 9.65332L12.7684 9.5538C12.6965 9.54673 12.6273 9.52186 12.5674 9.48152L12.5115 9.56445L12.4557 9.64739C12.5431 9.70629 12.644 9.74253 12.7488 9.75284L12.7586 9.65332ZM12.5115 9.56445L12.5675 9.48155C12.5077 9.44122 12.4588 9.38664 12.4253 9.32269L12.3367 9.36914L12.2482 9.41559C12.2971 9.5088 12.3683 9.58846 12.4556 9.64736L12.5115 9.56445ZM12.3367 9.36914L12.4253 9.32271C12.3917 9.25861 12.3744 9.18731 12.3752 9.11539L12.2752 9.11426L12.1752 9.11312C12.174 9.2186 12.1994 9.32254 12.2482 9.41557L12.3367 9.36914ZM12.2752 9.11426H12.3752V6.18164H12.2752H12.1752V9.11426H12.2752ZM12.2752 6.18164L12.3139 6.27384L13.5258 5.76506L13.4871 5.67285L13.4484 5.58065L12.2365 6.08944L12.2752 6.18164ZM13.4871 5.67285H13.3871V8.91016H13.4871H13.5871V5.67285H13.4871ZM6.76448 1.50488L6.72158 1.41455L0.990137 4.13623L1.03303 4.22656L1.07593 4.31689L6.80737 1.59522L6.76448 1.50488ZM1.03303 4.22656L1.00141 4.1317C0.985314 4.13706 0.964543 4.14547 0.94614 4.1602C0.925389 4.1768 0.901783 4.20691 0.901783 4.25H1.00178H1.10178C1.10178 4.26563 1.09765 4.28049 1.09055 4.29311C1.0839 4.30496 1.07604 4.3124 1.07108 4.31637C1.06244 4.32328 1.05729 4.32389 1.06466 4.32143L1.03303 4.22656ZM1.00178 4.25L0.9355 4.32488C0.949071 4.33689 0.964162 4.34828 0.979906 4.35816L1.03303 4.27344L1.08616 4.18872C1.0801 4.18491 1.07377 4.18017 1.06807 4.17512L1.00178 4.25ZM1.03303 4.27344L0.992712 4.36495L6.72416 6.89034L6.76448 6.79883L6.8048 6.70732L1.07335 4.18193L1.03303 4.27344ZM6.76448 6.79883L6.72056 6.88867C6.75019 6.90315 6.78262 6.91051 6.81515 6.91055L6.81526 6.81055L6.81537 6.71055C6.81275 6.71054 6.81034 6.70994 6.8084 6.70899L6.76448 6.79883ZM6.81526 6.81055V6.91055C6.84801 6.91055 6.88039 6.9031 6.9099 6.8887L6.86604 6.79883L6.82218 6.70896C6.82007 6.70999 6.81769 6.71055 6.81526 6.71055V6.81055ZM6.86604 6.79883L6.9064 6.89032L12.631 4.36493L12.5907 4.27344L12.5503 4.18194L6.82568 6.70734L6.86604 6.79883ZM12.5907 4.27344L12.6181 4.3696C12.6545 4.35922 12.6863 4.33552 12.7066 4.30309L12.6219 4.25L12.5372 4.19691C12.5433 4.18709 12.5525 4.18034 12.5632 4.17727L12.5907 4.27344ZM12.6219 4.25L12.6884 4.17528C12.6745 4.16292 12.6593 4.15162 12.644 4.14198L12.5907 4.22656L12.5373 4.31115C12.5438 4.31522 12.5501 4.31998 12.5554 4.32472L12.6219 4.25ZM12.5907 4.22656L12.6335 4.1362L6.90888 1.42234L6.86604 1.5127L6.8232 1.60306L12.5478 4.31692L12.5907 4.22656ZM6.86604 1.5127L6.93069 1.4364C6.89802 1.40871 6.85597 1.3947 6.81322 1.39725L6.81917 1.49707L6.82511 1.59689C6.8165 1.59741 6.80798 1.59457 6.80139 1.58899L6.86604 1.5127ZM6.81917 1.49707L6.82584 1.39729C6.79341 1.39512 6.76073 1.39975 6.73006 1.41099L6.76448 1.50488L6.7989 1.59877C6.80315 1.59722 6.80781 1.59653 6.81249 1.59685L6.81917 1.49707Z" fill="#B0B2B5" mask="url(#path-1-outside-1_94_341)"/>
</svg>
