<svg width="14" height="15" viewBox="0 0 14 15" fill="none" xmlns="http://www.w3.org/2000/svg">
<g clip-path="url(#clip0_94_340)">
<mask id="path-1-outside-1_94_340" maskUnits="userSpaceOnUse" x="-0.999268" y="0.5" width="15" height="14" fill="black">
<rect fill="white" x="-0.999268" y="0.5" width="15" height="14"/>
<path d="M6.81917 1.5C6.98648 1.5 7.15236 1.53589 7.30452 1.60547L13.0282 4.31934C13.21 4.40139 13.3637 4.5347 13.4705 4.70312C13.5774 4.8717 13.633 5.068 13.6297 5.26758C13.6264 5.46715 13.5644 5.66125 13.452 5.82617C13.3395 5.99111 13.1815 6.1203 12.9969 6.19629L11.4793 6.86523V10.6689C11.4797 10.8637 11.4249 11.055 11.3211 11.2197C11.2174 11.3842 11.069 11.516 10.8934 11.5996L7.05354 13.4375C6.98246 13.4789 6.90144 13.5005 6.81917 13.5C6.74366 13.5003 6.6682 13.4843 6.59944 13.4531L2.75276 11.6152C2.57765 11.5308 2.4297 11.3988 2.326 11.2344C2.2223 11.0698 2.16649 10.8791 2.16585 10.6846V6.87207L0.633619 6.19629C0.449901 6.11862 0.292809 5.98906 0.180494 5.82422C0.0682255 5.65927 0.00574672 5.4651 0.000806843 5.26562C-0.00159168 5.06645 0.0540331 4.87019 0.160963 4.70215C0.267815 4.53436 0.421211 4.40148 0.602369 4.31934L6.33479 1.60547C6.48686 1.53597 6.65197 1.50002 6.81917 1.5ZM7.27327 8.72168C7.13075 8.78571 6.97539 8.81765 6.81917 8.81543C6.66078 8.81525 6.50411 8.78338 6.35823 8.72168L3.18245 7.32031V10.6768L6.81917 12.4287L10.4471 10.6924L10.4598 7.31543L7.27327 8.72168ZM13.4871 9.91016C13.488 10.0609 13.4438 10.2086 13.3602 10.334C13.2766 10.4593 13.1578 10.5571 13.0184 10.6143C12.9365 10.6486 12.847 10.662 12.7586 10.6533C12.6702 10.6446 12.5852 10.6141 12.5115 10.5645C12.438 10.5148 12.378 10.4477 12.3367 10.3691C12.2956 10.2906 12.2742 10.203 12.2752 10.1143V7.18164L13.4871 6.67285V9.91016ZM6.76448 2.50488L1.03303 5.22656C1.00957 5.23438 1.00178 5.24218 1.00178 5.25C1.01142 5.25853 1.02213 5.2666 1.03303 5.27344L6.76448 7.79883C6.78027 7.80655 6.79769 7.81053 6.81526 7.81055C6.83285 7.81055 6.85023 7.80654 6.86604 7.79883L12.5907 5.27344C12.6035 5.26978 12.6148 5.26131 12.6219 5.25C12.6123 5.24145 12.6015 5.23342 12.5907 5.22656L6.86604 2.5127C6.853 2.50164 6.83624 2.49605 6.81917 2.49707C6.80061 2.49583 6.78194 2.49848 6.76448 2.50488Z"/>
</mask>
<path d="M6.81917 1.5C6.98648 1.5 7.15236 1.53589 7.30452 1.60547L13.0282 4.31934C13.21 4.40139 13.3637 4.5347 13.4705 4.70312C13.5774 4.8717 13.633 5.068 13.6297 5.26758C13.6264 5.46715 13.5644 5.66125 13.452 5.82617C13.3395 5.99111 13.1815 6.1203 12.9969 6.19629L11.4793 6.86523V10.6689C11.4797 10.8637 11.4249 11.055 11.3211 11.2197C11.2174 11.3842 11.069 11.516 10.8934 11.5996L7.05354 13.4375C6.98246 13.4789 6.90144 13.5005 6.81917 13.5C6.74366 13.5003 6.6682 13.4843 6.59944 13.4531L2.75276 11.6152C2.57765 11.5308 2.4297 11.3988 2.326 11.2344C2.2223 11.0698 2.16649 10.8791 2.16585 10.6846V6.87207L0.633619 6.19629C0.449901 6.11862 0.292809 5.98906 0.180494 5.82422C0.0682255 5.65927 0.00574672 5.4651 0.000806843 5.26562C-0.00159168 5.06645 0.0540331 4.87019 0.160963 4.70215C0.267815 4.53436 0.421211 4.40148 0.602369 4.31934L6.33479 1.60547C6.48686 1.53597 6.65197 1.50002 6.81917 1.5ZM7.27327 8.72168C7.13075 8.78571 6.97539 8.81765 6.81917 8.81543C6.66078 8.81525 6.50411 8.78338 6.35823 8.72168L3.18245 7.32031V10.6768L6.81917 12.4287L10.4471 10.6924L10.4598 7.31543L7.27327 8.72168ZM13.4871 9.91016C13.488 10.0609 13.4438 10.2086 13.3602 10.334C13.2766 10.4593 13.1578 10.5571 13.0184 10.6143C12.9365 10.6486 12.847 10.662 12.7586 10.6533C12.6702 10.6446 12.5852 10.6141 12.5115 10.5645C12.438 10.5148 12.378 10.4477 12.3367 10.3691C12.2956 10.2906 12.2742 10.203 12.2752 10.1143V7.18164L13.4871 6.67285V9.91016ZM6.76448 2.50488L1.03303 5.22656C1.00957 5.23438 1.00178 5.24218 1.00178 5.25C1.01142 5.25853 1.02213 5.2666 1.03303 5.27344L6.76448 7.79883C6.78027 7.80655 6.79769 7.81053 6.81526 7.81055C6.83285 7.81055 6.85023 7.80654 6.86604 7.79883L12.5907 5.27344C12.6035 5.26978 12.6148 5.26131 12.6219 5.25C12.6123 5.24145 12.6015 5.23342 12.5907 5.22656L6.86604 2.5127C6.853 2.50164 6.83624 2.49605 6.81917 2.49707C6.80061 2.49583 6.78194 2.49848 6.76448 2.50488Z" fill="#B0B2B5"/>
<path d="M6.81917 1.5V1.4H6.81916L6.81917 1.5ZM7.30452 1.60547L7.34736 1.5151L7.3461 1.51453L7.30452 1.60547ZM13.0282 4.31934L12.9853 4.40971L12.987 4.41048L13.0282 4.31934ZM13.4705 4.70312L13.555 4.64957L13.555 4.64954L13.4705 4.70312ZM13.6297 5.26758L13.7297 5.26924V5.26924L13.6297 5.26758ZM13.452 5.82617L13.5346 5.88251L13.5346 5.8825L13.452 5.82617ZM12.9969 6.19629L12.9588 6.10379L12.9566 6.10478L12.9969 6.19629ZM11.4793 6.86523L11.439 6.77373L11.3793 6.80003V6.86523H11.4793ZM11.4793 10.6689H11.3793L11.3793 10.6691L11.4793 10.6689ZM11.3211 11.2197L11.4057 11.2731L11.4057 11.273L11.3211 11.2197ZM10.8934 11.5996L10.8504 11.5093L10.8502 11.5094L10.8934 11.5996ZM7.05354 13.4375L7.01022 13.347L7.00318 13.3511L7.05354 13.4375ZM6.81917 13.5L6.81975 13.4L6.81877 13.4L6.81917 13.5ZM6.59944 13.4531L6.55632 13.5434L6.5581 13.5442L6.59944 13.4531ZM2.75276 11.6152L2.70932 11.7053L2.70965 11.7055L2.75276 11.6152ZM2.326 11.2344L2.2414 11.2877L2.24142 11.2877L2.326 11.2344ZM2.16585 10.6846H2.06585L2.06585 10.6849L2.16585 10.6846ZM2.16585 6.87207H2.26585V6.80688L2.2062 6.78057L2.16585 6.87207ZM0.633619 6.19629L0.673978 6.10478L0.672559 6.10418L0.633619 6.19629ZM0.180494 5.82422L0.0978255 5.88048L0.0978543 5.88053L0.180494 5.82422ZM0.000806843 5.26562L-0.099194 5.26683L-0.0991625 5.2681L0.000806843 5.26562ZM0.160963 4.70215L0.0766149 4.64843L0.076595 4.64846L0.160963 4.70215ZM0.602369 4.31934L0.643671 4.41042L0.645159 4.40972L0.602369 4.31934ZM6.33479 1.60547L6.29322 1.51451L6.292 1.51509L6.33479 1.60547ZM7.27327 8.72168L7.23289 8.63019L7.23229 8.63046L7.27327 8.72168ZM6.81917 8.81543L6.82059 8.71543L6.81928 8.71543L6.81917 8.81543ZM6.35823 8.72168L6.31785 8.81318L6.31928 8.81378L6.35823 8.72168ZM3.18245 7.32031L3.22282 7.22882L3.08245 7.16688V7.32031H3.18245ZM3.18245 10.6768H3.08245V10.7396L3.13905 10.7668L3.18245 10.6768ZM6.81917 12.4287L6.77577 12.5188L6.81902 12.5396L6.86234 12.5189L6.81917 12.4287ZM10.4471 10.6924L10.4903 10.7826L10.5469 10.7555L10.5471 10.6928L10.4471 10.6924ZM10.4598 7.31543L10.5598 7.31581L10.5604 7.16174L10.4194 7.22394L10.4598 7.31543ZM13.4871 9.91016H13.3871L13.3871 9.91071L13.4871 9.91016ZM13.3602 10.334L13.4434 10.3895L13.4434 10.3895L13.3602 10.334ZM13.0184 10.6143L12.9804 10.5217L12.9797 10.522L13.0184 10.6143ZM12.7586 10.6533L12.7488 10.7528L12.7489 10.7528L12.7586 10.6533ZM12.5115 10.5645L12.4556 10.6474L12.4557 10.6474L12.5115 10.5645ZM12.3367 10.3691L12.2482 10.4156L12.2482 10.4156L12.3367 10.3691ZM12.2752 10.1143L12.3752 10.1154V10.1143H12.2752ZM12.2752 7.18164L12.2365 7.08944L12.1752 7.11517V7.18164H12.2752ZM13.4871 6.67285H13.5871V6.52241L13.4484 6.58065L13.4871 6.67285ZM6.76448 2.50488L6.72991 2.4106L6.72158 2.41455L6.76448 2.50488ZM1.03303 5.22656L1.06489 5.32214L1.07593 5.31689L1.03303 5.22656ZM1.00178 5.25H0.901783V5.29503L0.9355 5.32488L1.00178 5.25ZM1.03303 5.27344L0.979906 5.35816L0.986062 5.36202L0.992712 5.36495L1.03303 5.27344ZM6.76448 7.79883L6.80843 7.70892L6.8048 7.70732L6.76448 7.79883ZM6.81526 7.81055L6.81515 7.91055H6.81526V7.81055ZM6.86604 7.79883L6.82565 7.70727L6.82218 7.70896L6.86604 7.79883ZM12.5907 5.27344L12.563 5.17635L12.5503 5.18194L12.5907 5.27344ZM12.6219 5.25L12.7066 5.30309L12.7515 5.23146L12.6884 5.17528L12.6219 5.25ZM12.5907 5.22656L12.6444 5.14136L12.6335 5.1362L12.5907 5.22656ZM6.86604 2.5127L6.80139 2.58899L6.81138 2.59745L6.8232 2.60306L6.86604 2.5127ZM6.81917 2.49707L6.81244 2.59765L6.82511 2.59689L6.81917 2.49707ZM6.81917 1.5V1.6C6.97222 1.6 7.12391 1.63284 7.26293 1.69641L7.30452 1.60547L7.3461 1.51453C7.18081 1.43894 7.00073 1.4 6.81917 1.4V1.5ZM7.30452 1.60547L7.26167 1.69583L12.9853 4.40969L13.0282 4.31934L13.071 4.22898L7.34736 1.51511L7.30452 1.60547ZM13.0282 4.31934L12.987 4.41048C13.151 4.48452 13.2897 4.60477 13.3861 4.75671L13.4705 4.70312L13.555 4.64954C13.4376 4.46463 13.2689 4.31827 13.0693 4.22819L13.0282 4.31934ZM13.4705 4.70312L13.3861 4.75668C13.4826 4.90886 13.5327 5.08598 13.5297 5.26592L13.6297 5.26758L13.7297 5.26924C13.7333 5.05001 13.6723 4.83453 13.555 4.64957L13.4705 4.70312ZM13.6297 5.26758L13.5297 5.26591C13.5267 5.44585 13.4708 5.62096 13.3694 5.76984L13.452 5.82617L13.5346 5.8825C13.658 5.70154 13.726 5.48846 13.7297 5.26924L13.6297 5.26758ZM13.452 5.82617L13.3694 5.76983C13.2677 5.91888 13.1251 6.03537 12.9588 6.10382L12.9969 6.19629L13.035 6.28876C13.2379 6.20523 13.4113 6.06335 13.5346 5.88251L13.452 5.82617ZM12.9969 6.19629L12.9566 6.10478L11.439 6.77373L11.4793 6.86523L11.5197 6.95674L13.0372 6.28779L12.9969 6.19629ZM11.4793 6.86523H11.3793V10.6689H11.4793H11.5793V6.86523H11.4793ZM11.4793 10.6689L11.3793 10.6691C11.3797 10.845 11.3302 11.0178 11.2365 11.1664L11.3211 11.2197L11.4057 11.273C11.5197 11.0922 11.5797 10.8823 11.5793 10.6688L11.4793 10.6689ZM11.3211 11.2197L11.2365 11.1664C11.1429 11.3149 11.0089 11.4338 10.8504 11.5093L10.8934 11.5996L10.9364 11.6899C11.129 11.5981 11.2919 11.4536 11.4057 11.2731L11.3211 11.2197ZM10.8934 11.5996L10.8502 11.5094L7.01037 13.3473L7.05354 13.4375L7.09671 13.5277L10.9366 11.6898L10.8934 11.5996ZM7.05354 13.4375L7.00318 13.3511C6.94762 13.3835 6.88421 13.4004 6.81975 13.4L6.81917 13.5L6.81858 13.6C6.91867 13.6006 7.0173 13.5744 7.10391 13.5239L7.05354 13.4375ZM6.81917 13.5L6.81877 13.4C6.75747 13.4002 6.69626 13.3873 6.64078 13.3621L6.59944 13.4531L6.5581 13.5442C6.64014 13.5814 6.72985 13.6004 6.81956 13.6L6.81917 13.5ZM6.59944 13.4531L6.64255 13.3629L2.79587 11.525L2.75276 11.6152L2.70965 11.7055L6.55633 13.5434L6.59944 13.4531ZM2.75276 11.6152L2.7962 11.5252C2.63795 11.4488 2.50427 11.3296 2.41059 11.181L2.326 11.2344L2.24142 11.2877C2.35513 11.468 2.51735 11.6127 2.70932 11.7053L2.75276 11.6152ZM2.326 11.2344L2.4106 11.1811C2.31683 11.0323 2.26642 10.8599 2.26585 10.6842L2.16585 10.6846L2.06585 10.6849C2.06655 10.8983 2.12776 11.1074 2.2414 11.2877L2.326 11.2344ZM2.16585 10.6846H2.26585V6.87207H2.16585H2.06585V10.6846H2.16585ZM2.16585 6.87207L2.2062 6.78057L0.673973 6.10479L0.633619 6.19629L0.593265 6.28779L2.12549 6.96357L2.16585 6.87207ZM0.633619 6.19629L0.672559 6.10418C0.506764 6.03409 0.36476 5.91706 0.263134 5.76791L0.180494 5.82422L0.0978543 5.88053C0.220858 6.06105 0.393038 6.20315 0.59468 6.2884L0.633619 6.19629ZM0.180494 5.82422L0.263163 5.76795C0.161707 5.61889 0.10524 5.44339 0.100776 5.26315L0.000806843 5.26562L-0.0991625 5.2681C-0.0937464 5.4868 -0.025256 5.69965 0.0978255 5.88048L0.180494 5.82422ZM0.000806843 5.26562L0.1008 5.26442C0.098634 5.08459 0.148875 4.90742 0.245331 4.75583L0.160963 4.70215L0.076595 4.64846C-0.0408084 4.83297 -0.101817 5.04831 -0.0991859 5.26683L0.000806843 5.26562ZM0.160963 4.70215L0.245311 4.75586C0.341708 4.6045 0.480123 4.48457 0.643665 4.41041L0.602369 4.31934L0.561073 4.22826C0.362298 4.31839 0.193921 4.46423 0.0766149 4.64843L0.160963 4.70215ZM0.602369 4.31934L0.645159 4.40972L6.37758 1.69585L6.33479 1.60547L6.292 1.51509L0.55958 4.22895L0.602369 4.31934ZM6.33479 1.60547L6.37636 1.69642C6.51538 1.63288 6.66632 1.60002 6.81918 1.6L6.81917 1.5L6.81916 1.4C6.63762 1.40002 6.45833 1.43905 6.29322 1.51452L6.33479 1.60547ZM7.27327 8.72168L7.23229 8.63046C7.10318 8.68847 6.96229 8.71745 6.82059 8.71544L6.81917 8.81543L6.81775 8.91542C6.98848 8.91784 7.15833 8.88295 7.31425 8.8129L7.27327 8.72168ZM6.81917 8.81543L6.81928 8.71543C6.67424 8.71527 6.53078 8.68608 6.39718 8.62958L6.35823 8.72168L6.31928 8.81378C6.47744 8.88068 6.64731 8.91524 6.81905 8.91543L6.81917 8.81543ZM6.35823 8.72168L6.3986 8.63019L3.22282 7.22882L3.18245 7.32031L3.14208 7.4118L6.31786 8.81317L6.35823 8.72168ZM3.18245 7.32031H3.08245V10.6768H3.18245H3.28245V7.32031H3.18245ZM3.18245 10.6768L3.13905 10.7668L6.77577 12.5188L6.81917 12.4287L6.86257 12.3386L3.22585 10.5867L3.18245 10.6768ZM6.81917 12.4287L6.86234 12.5189L10.4903 10.7826L10.4471 10.6924L10.4039 10.6022L6.776 12.3385L6.81917 12.4287ZM10.4471 10.6924L10.5471 10.6928L10.5598 7.31581L10.4598 7.31543L10.3598 7.31505L10.3471 10.692L10.4471 10.6924ZM10.4598 7.31543L10.4194 7.22394L7.23289 8.63019L7.27327 8.72168L7.31364 8.81317L10.5002 7.40692L10.4598 7.31543ZM13.4871 9.91016L13.3871 9.91071C13.3879 10.0415 13.3495 10.1697 13.277 10.2785L13.3602 10.334L13.4434 10.3895C13.5381 10.2474 13.5881 10.0802 13.5871 9.9096L13.4871 9.91016ZM13.3602 10.334L13.277 10.2785C13.2044 10.3874 13.1012 10.4722 12.9804 10.5217L13.0184 10.6143L13.0564 10.7068C13.2143 10.6419 13.3488 10.5313 13.4434 10.3895L13.3602 10.334ZM13.0184 10.6143L12.9797 10.522C12.9132 10.55 12.8404 10.5609 12.7684 10.5538L12.7586 10.6533L12.7489 10.7528C12.8537 10.7631 12.9598 10.7473 13.0571 10.7065L13.0184 10.6143ZM12.7586 10.6533L12.7684 10.5538C12.6965 10.5467 12.6273 10.5219 12.5674 10.4815L12.5115 10.5645L12.4557 10.6474C12.5431 10.7063 12.644 10.7425 12.7488 10.7528L12.7586 10.6533ZM12.5115 10.5645L12.5675 10.4815C12.5077 10.4412 12.4588 10.3866 12.4253 10.3227L12.3367 10.3691L12.2482 10.4156C12.2971 10.5088 12.3683 10.5885 12.4556 10.6474L12.5115 10.5645ZM12.3367 10.3691L12.4253 10.3227C12.3917 10.2586 12.3744 10.1873 12.3752 10.1154L12.2752 10.1143L12.1752 10.1131C12.174 10.2186 12.1994 10.3225 12.2482 10.4156L12.3367 10.3691ZM12.2752 10.1143H12.3752V7.18164H12.2752H12.1752V10.1143H12.2752ZM12.2752 7.18164L12.3139 7.27384L13.5258 6.76506L13.4871 6.67285L13.4484 6.58065L12.2365 7.08944L12.2752 7.18164ZM13.4871 6.67285H13.3871V9.91016H13.4871H13.5871V6.67285H13.4871ZM6.76448 2.50488L6.72158 2.41455L0.990137 5.13623L1.03303 5.22656L1.07593 5.31689L6.80737 2.59522L6.76448 2.50488ZM1.03303 5.22656L1.00141 5.1317C0.985314 5.13706 0.964543 5.14547 0.94614 5.1602C0.925389 5.1768 0.901783 5.20691 0.901783 5.25H1.00178H1.10178C1.10178 5.26563 1.09765 5.28049 1.09055 5.29311C1.0839 5.30496 1.07604 5.3124 1.07108 5.31637C1.06244 5.32328 1.05729 5.32389 1.06466 5.32143L1.03303 5.22656ZM1.00178 5.25L0.9355 5.32488C0.949071 5.33689 0.964162 5.34828 0.979906 5.35816L1.03303 5.27344L1.08616 5.18872C1.0801 5.18491 1.07377 5.18017 1.06807 5.17512L1.00178 5.25ZM1.03303 5.27344L0.992712 5.36495L6.72416 7.89034L6.76448 7.79883L6.8048 7.70732L1.07335 5.18193L1.03303 5.27344ZM6.76448 7.79883L6.72056 7.88867C6.75019 7.90315 6.78262 7.91051 6.81515 7.91055L6.81526 7.81055L6.81537 7.71055C6.81275 7.71054 6.81034 7.70994 6.8084 7.70899L6.76448 7.79883ZM6.81526 7.81055V7.91055C6.84801 7.91055 6.88039 7.9031 6.9099 7.8887L6.86604 7.79883L6.82218 7.70896C6.82007 7.70999 6.81769 7.71055 6.81526 7.71055V7.81055ZM6.86604 7.79883L6.9064 7.89032L12.631 5.36493L12.5907 5.27344L12.5503 5.18194L6.82568 7.70734L6.86604 7.79883ZM12.5907 5.27344L12.6181 5.3696C12.6545 5.35922 12.6863 5.33552 12.7066 5.30309L12.6219 5.25L12.5372 5.19691C12.5433 5.18709 12.5525 5.18034 12.5632 5.17727L12.5907 5.27344ZM12.6219 5.25L12.6884 5.17528C12.6745 5.16292 12.6593 5.15162 12.644 5.14198L12.5907 5.22656L12.5373 5.31115C12.5438 5.31522 12.5501 5.31998 12.5554 5.32472L12.6219 5.25ZM12.5907 5.22656L12.6335 5.1362L6.90888 2.42234L6.86604 2.5127L6.8232 2.60306L12.5478 5.31692L12.5907 5.22656ZM6.86604 2.5127L6.93069 2.4364C6.89802 2.40871 6.85597 2.3947 6.81322 2.39725L6.81917 2.49707L6.82511 2.59689C6.8165 2.59741 6.80798 2.59457 6.80139 2.58899L6.86604 2.5127ZM6.81917 2.49707L6.82584 2.39729C6.79341 2.39512 6.76073 2.39975 6.73006 2.41099L6.76448 2.50488L6.7989 2.59877C6.80315 2.59722 6.80781 2.59653 6.81249 2.59685L6.81917 2.49707Z" fill="#B0B2B5" mask="url(#path-1-outside-1_94_340)"/>
</g>
<defs>
<clipPath id="clip0_94_340">
<rect width="14" height="14" fill="white" transform="translate(0 0.5)"/>
</clipPath>
</defs>
</svg>
