<svg width="24" height="24" viewBox="0 0 24 24" fill="none" xmlns="http://www.w3.org/2000/svg">
<path d="M22.765 12.8966L18.1782 21.0545C18.0186 21.3402 17.7837 21.5787 17.498 21.745C17.2124 21.9113 16.8864 21.9994 16.5543 22H7.44574C7.11355 21.9994 6.78763 21.9113 6.50198 21.745C6.21633 21.5787 5.98142 21.3402 5.82176 21.0545L1.23504 12.8966C1.08085 12.6219 1 12.3135 1 12C1 11.6865 1.08085 11.3781 1.23504 11.1034L5.82176 2.94553C5.98142 2.6598 6.21633 2.42134 6.50198 2.25502C6.78763 2.08871 7.11355 2.00064 7.44574 2H16.5543C16.8864 2.00064 17.2124 2.08871 17.498 2.25502C17.7837 2.42134 18.0186 2.6598 18.1782 2.94553L22.765 11.1034C22.9191 11.3781 23 11.6865 23 12C23 12.3135 22.9191 12.6219 22.765 12.8966ZM21.3567 12.1282C21.3787 12.0889 21.3902 12.0449 21.3902 12.0001C21.3902 11.9554 21.3787 11.9113 21.3567 11.8721L16.778 3.71421C16.7553 3.67338 16.7219 3.63929 16.6811 3.61549C16.6404 3.5917 16.5939 3.57907 16.5465 3.57895H7.45352C7.40611 3.57907 7.35961 3.5917 7.31887 3.61549C7.27814 3.63929 7.24468 3.67338 7.22198 3.71421L2.6433 11.8721C2.62132 11.9113 2.6098 11.9554 2.6098 12.0001C2.6098 12.0449 2.62132 12.0889 2.6433 12.1282L7.22198 20.2861C7.24471 20.3268 7.27819 20.3609 7.31892 20.3846C7.35965 20.4084 7.40614 20.421 7.45352 20.4211H16.5465C16.5939 20.421 16.6403 20.4084 16.6811 20.3846C16.7218 20.3609 16.7553 20.3268 16.778 20.2861L21.3567 12.1282ZM11.9308 16.1089C9.55988 16.1089 7.6381 14.2239 7.6381 11.8984C7.6381 9.57289 9.55988 7.68789 11.9308 7.68789C14.3014 7.68789 16.2235 9.57289 16.2235 11.8984C16.2235 14.2239 14.3014 16.1089 11.9308 16.1089ZM11.9308 14.53C13.4126 14.53 14.6137 13.3518 14.6137 11.8984C14.6137 10.445 13.4126 9.26684 11.9308 9.26684C10.449 9.26684 9.24786 10.445 9.24786 11.8984C9.24786 13.3518 10.449 14.53 11.9308 14.53Z" fill="#414141"/>
</svg>
