<svg width="20" height="20" viewBox="0 0 20 20" fill="none" xmlns="http://www.w3.org/2000/svg">
<mask id="mask0_31_1210" style="mask-type:luminance" maskUnits="userSpaceOnUse" x="0" y="0" width="20" height="20">
<path d="M20 0H0V20H20V0Z" fill="white"/>
</mask>
<g mask="url(#mask0_31_1210)">
<path d="M14.9762 0.227539C14.9294 0.227539 14.9201 0.417904 14.862 0.503647C14.8001 0.594865 14.6764 0.807755 14.831 1.38553C14.862 1.47675 14.831 1.71999 14.7692 1.99369C14.7073 2.26737 14.6454 2.84517 14.6454 3.2709C14.6454 3.69664 14.3362 3.9095 14.2124 4.06151C14.1506 3.84865 13.9649 3.51416 13.9649 3.48376C14.0268 3.39254 14.0477 3.30332 14.0268 3.17968C13.9959 2.99722 13.9031 2.63226 13.6557 2.51066C13.6347 2.34584 13.3582 2.05547 12.9801 2.05541C12.8001 2.05541 12.597 2.12122 12.3875 2.29778C11.738 2.84518 12.2637 3.81826 13.0989 4.33521C13.0597 4.39301 13.0329 4.41422 12.987 4.41422C12.9606 4.41422 12.9277 4.40715 12.8823 4.39601C12.8316 4.38352 12.7442 4.3351 12.5924 4.3351C12.3747 4.3351 12.0245 4.43465 11.4596 4.88256C11.1193 5.1258 10.4389 5.4299 10.2533 5.46034C10.0677 5.49074 9.7584 5.46034 9.48003 5.55156C9.20164 5.64278 7.59326 6.28139 7.28395 6.40303C7.09835 6.43343 6.5416 6.46381 6.38694 6.49422C6.23229 6.52462 5.73742 6.55503 5.64462 6.55503C5.56024 6.55503 5.70596 6.68071 5.87257 6.68071C5.88925 6.68071 5.9061 6.67947 5.92297 6.67669C5.9356 6.67463 5.9472 6.67369 5.95803 6.67369C6.01415 6.67369 6.04855 6.69912 6.08842 6.72458C6.1283 6.74996 6.17365 6.77539 6.25167 6.77539C6.30164 6.77539 6.36494 6.76498 6.44878 6.7375C6.50114 6.72039 6.54301 6.71352 6.57864 6.71352C6.65028 6.71352 6.69643 6.74136 6.75107 6.76916C6.8057 6.79704 6.86881 6.82488 6.9744 6.82488C7.08259 6.82488 7.23542 6.79565 7.46953 6.70711C8.02625 6.58545 9.85115 6.2814 10.0367 6.251C10.2223 6.22056 10.4697 6.00771 10.6553 5.97731C10.8409 5.94691 11.9854 5.52118 12.2328 5.42992C12.2468 5.42536 12.2606 5.42318 12.2742 5.42318C12.4413 5.42318 12.5801 5.75006 12.6658 5.94689C12.7587 6.15975 13.068 6.98079 12.8514 7.16327C12.785 7.21924 12.6517 7.23801 12.4843 7.23801C12.3141 7.23801 12.1087 7.21859 11.903 7.19913C11.6973 7.17966 11.4913 7.16024 11.3199 7.16024C11.2822 7.16024 11.2462 7.16118 11.2122 7.16327C11.1837 7.16501 11.1482 7.16576 11.1062 7.16576C10.9857 7.16576 10.8123 7.15963 10.6028 7.15353C10.3935 7.1474 10.1479 7.14127 9.88332 7.14127C8.89912 7.14127 7.65023 7.22596 7.00556 7.71065C5.95394 8.50128 8.61397 8.44049 7.34581 8.68371C6.07765 8.92704 6.29416 8.92703 6.17045 8.95745C6.04673 8.98787 5.76834 8.95745 5.33529 9.07904C4.90229 9.2007 4.37649 9.3832 4.00532 9.44395C3.9311 9.45612 3.86797 9.46096 3.81329 9.46096C3.59451 9.46096 3.51041 9.38319 3.38669 9.38319C3.3248 9.38319 3.2085 9.37829 3.05165 9.37829C2.81632 9.37829 2.48972 9.3892 2.11854 9.44395C1.49994 9.5352 0.788519 10.0825 1.59269 10.3259C1.6473 10.342 1.72402 10.3485 1.81476 10.3485C2.23818 10.3485 2.96636 10.2042 3.17016 10.2042C3.41762 10.2042 3.72693 9.96097 4.03625 9.96097C4.26119 9.96097 5.32049 9.89663 6.00051 9.89663C6.25562 9.89663 6.45725 9.90561 6.54161 9.93053C6.85092 10.0218 7.28396 10.1434 7.3458 10.5995C7.40766 11.0556 7.28394 11.5422 7.93346 11.7247C8.58303 11.9071 8.86138 11.9375 9.04697 12.3633C9.19325 12.6988 9.41636 13.0154 10.0192 13.0154C10.1813 13.0154 10.3707 12.9926 10.5936 12.941C10.7768 12.8986 10.9216 12.8803 11.0367 12.8803C11.582 12.8803 11.461 13.2929 11.6142 13.5188C11.7998 13.7925 12.1092 13.7317 12.4494 13.9445C12.7896 14.1574 13.501 14.6135 13.3772 14.9785C13.336 15.1 13.3497 15.1406 13.3876 15.1406C13.4632 15.1406 13.635 14.9785 13.6557 14.9785C13.6866 14.9785 13.5937 15.7386 14.2124 16.5597C14.4598 16.955 14.9238 18.0802 14.6764 18.293C14.4289 18.5059 14.3052 18.7796 14.7073 18.9621C15.1094 19.1445 15.4497 19.1749 15.4806 19.3878C15.5088 19.5824 15.8215 19.7261 16.2294 19.7261C16.2677 19.7261 16.3068 19.7249 16.3466 19.7223C16.8106 19.6919 16.192 19.4486 16.0063 19.1444C15.8208 18.8404 15.6042 18.2626 15.4806 17.7457C15.3568 17.2287 14.9857 15.6171 15.1094 15.1305C15.2332 14.644 15.3259 14.948 15.5424 14.5527C15.7589 14.1574 15.3457 11.7416 15.3259 10.5387C15.295 8.65338 14.7073 8.74462 14.8001 8.41012C14.9901 7.72522 15.0784 7.22414 15.2641 6.88963C15.4497 6.55511 15.6919 6.24222 15.2332 5.46044C14.7692 4.66977 14.8929 4.3657 15.0166 4.09201C15.1477 3.80208 15.3495 3.32772 15.3259 3.1189C15.295 2.84523 15.1404 1.99379 15.2022 1.68969C15.2641 1.38562 15.3877 1.29438 15.295 0.929469C15.2652 0.783009 15.3789 0.410913 15.3043 0.410873C15.3016 0.410873 15.2984 0.411407 15.295 0.412526C15.2362 0.431773 15.1712 0.442919 15.1403 0.686193C15.128 0.783507 15.1057 0.822428 15.0834 0.822428C15.05 0.822428 15.0166 0.734873 15.0166 0.625387C15.0166 0.442931 15.1094 0.290881 14.9857 0.230082C14.9823 0.228368 14.9792 0.227539 14.9762 0.227539Z" fill="#248069"/>
</g>
</svg>
