<svg width="16" height="16" viewBox="0 0 16 16" fill="none" xmlns="http://www.w3.org/2000/svg">
<path d="M7.99996 1.14285C11.7872 1.14285 14.8571 4.2128 14.8571 8C14.8571 11.7872 11.7872 14.8571 7.99996 14.8571C4.21276 14.8571 1.14282 11.7872 1.14282 8C1.14282 4.2128 4.21276 1.14285 7.99996 1.14285ZM7.99996 2.51428C4.97014 2.51428 2.51425 4.97017 2.51425 8C2.51425 11.0298 4.97014 13.4857 7.99996 13.4857C11.0298 13.4857 13.4857 11.0298 13.4857 8C13.4857 4.97017 11.0298 2.51428 7.99996 2.51428ZM7.99996 4.22857C8.04499 4.22857 8.08957 4.23744 8.13117 4.25467C8.17277 4.2719 8.21056 4.29715 8.2424 4.32899C8.27424 4.36082 8.29949 4.39862 8.31672 4.44022C8.33395 4.48182 8.34282 4.5264 8.34282 4.57142V8.34285H11.0857C11.1307 8.34285 11.1753 8.35172 11.2169 8.36895C11.2585 8.38618 11.2963 8.41144 11.3281 8.44327C11.36 8.47511 11.3852 8.51291 11.4024 8.5545C11.4197 8.5961 11.4285 8.64069 11.4285 8.68571V9.37142C11.4285 9.41645 11.4197 9.46103 11.4024 9.50263C11.3852 9.54423 11.36 9.58202 11.3281 9.61386C11.2963 9.6457 11.2585 9.67095 11.2169 9.68818C11.1753 9.70541 11.1307 9.71428 11.0857 9.71428H7.31425C7.26923 9.71428 7.22464 9.70541 7.18304 9.68818C7.14145 9.67095 7.10365 9.6457 7.07181 9.61386C7.03998 9.58202 7.01472 9.54423 6.99749 9.50263C6.98026 9.46103 6.97139 9.41645 6.97139 9.37142V4.57142C6.97139 4.5264 6.98026 4.48182 6.99749 4.44022C7.01472 4.39862 7.03998 4.36082 7.07181 4.32899C7.10365 4.29715 7.14145 4.2719 7.18304 4.25467C7.22464 4.23744 7.26923 4.22857 7.31425 4.22857H7.99996Z" fill="#B0B2B5"/>
</svg>
