<svg width="32" height="32" viewBox="0 0 32 32" fill="none" xmlns="http://www.w3.org/2000/svg">
<rect width="32" height="32" rx="16" fill="#C5C5C5"/>
<g clip-path="url(#clip0_541_656)">
<path d="M14.9311 11.3368L9.85815 16.4102C9.49748 16.7704 8.90633 16.7728 8.54285 16.4094C8.17732 16.0434 8.17938 15.4571 8.54245 15.0945L15.3027 8.33378C15.4934 8.14351 15.7483 8.05325 16 8.06382C16.2517 8.05325 16.5066 8.14351 16.6971 8.33378L23.4574 15.0945C23.8204 15.4572 23.8227 16.0434 23.457 16.4094C23.0937 16.7728 22.5023 16.7704 22.1419 16.4102L16.9819 11.2498V22.9155C16.9819 23.4799 16.5229 23.9369 15.9565 23.9369C15.386 23.9369 14.9311 23.4799 14.9311 22.9155V11.3368Z" fill="white"/>
</g>
<defs>
<clipPath id="clip0_541_656">
<rect width="16" height="16" fill="white" transform="matrix(-1 0 0 1 24 8)"/>
</clipPath>
</defs>
</svg>
