<svg width="24" height="24" viewBox="0 0 24 24" fill="none" xmlns="http://www.w3.org/2000/svg">
<path d="M17.4658 2.06152C19.032 2.06155 20.3066 3.35086 20.3066 4.93359V9.19922C20.3066 9.62162 19.9677 9.96559 19.5498 9.96582C19.1317 9.96582 18.7891 9.62176 18.7891 9.19922V4.93359C18.7891 4.19368 18.1959 3.59397 17.4639 3.59375H4.81836C4.08854 3.59391 3.49316 4.19603 3.49316 4.93359V19.123C3.49316 19.863 4.08623 20.4618 4.81836 20.4619H9.04102C9.4591 20.4619 9.7988 20.8061 9.79883 21.2334C9.79883 21.6559 9.45912 22 9.04102 22H4.81836C4.08394 21.9999 3.38863 21.7182 2.85742 21.2051C2.32852 20.6943 2.01653 20.0066 1.97949 19.2715V4.79004C2.01645 4.05241 2.32848 3.36731 2.85742 2.85645C3.38865 2.34325 4.0862 2.0616 4.81836 2.06152H17.4658ZM16.0479 10.5527C17.563 10.5528 18.9837 11.1472 20.0508 12.2285C21.1203 13.3099 21.709 14.7475 21.709 16.2754C21.7089 17.8054 21.1201 19.2423 20.0508 20.3213C18.9837 21.4026 17.5607 21.997 16.0479 21.9971C14.5325 21.9971 13.1112 21.4027 12.0439 20.3213C10.9747 19.2399 10.3858 17.803 10.3857 16.2754C10.3857 14.7452 10.9744 13.3076 12.0439 12.2285C13.1135 11.1471 14.5371 10.5527 16.0479 10.5527ZM16.0479 12.0879C13.761 12.0879 11.9014 13.9669 11.9014 16.2754C11.9015 18.5838 13.761 20.4629 16.0479 20.4629C18.3345 20.4627 20.1933 18.5836 20.1934 16.2754C20.1934 13.9671 18.3345 12.0881 16.0479 12.0879ZM16.0479 18.3398C16.4658 18.3401 16.8047 18.684 16.8047 19.1064C16.8047 19.5288 16.4658 19.8728 16.0479 19.873C15.6298 19.873 15.2901 19.529 15.29 19.1064C15.29 18.6839 15.6297 18.3398 16.0479 18.3398ZM16.0479 12.6777C16.4658 12.678 16.8047 13.0215 16.8047 13.4463V16.9795C16.8046 17.4018 16.4657 17.7459 16.0479 17.7461C15.6298 17.7461 15.2901 17.402 15.29 16.9795V13.4443C15.29 13.0218 15.6297 12.6777 16.0479 12.6777ZM8.33887 14.0928C8.75692 14.0928 9.09659 14.4369 9.09668 14.8594C9.09668 15.2819 8.75697 15.626 8.33887 15.626H6.23926C5.82115 15.626 5.48145 15.2819 5.48145 14.8594C5.48154 14.4369 5.82121 14.0928 6.23926 14.0928H8.33887ZM10.4434 9.84668C10.8614 9.84668 11.201 10.1899 11.2012 10.6123C11.2012 11.0371 10.8617 11.3811 10.4414 11.3789H6.2373C5.8192 11.3789 5.47949 11.0348 5.47949 10.6123C5.47957 10.1041 5.66643 9.84673 6.03125 9.84668H10.4434ZM16.0479 5.60156C16.4658 5.60179 16.8047 5.94576 16.8047 6.36816C16.8046 6.79053 16.4657 7.13454 16.0479 7.13477H6.23926C5.82118 7.13476 5.48149 6.79067 5.48145 6.36816C5.48145 5.94562 5.82115 5.60157 6.23926 5.60156H16.0479Z" fill="#414141"/>
</svg>
