<svg width="10" height="13" viewBox="0 0 10 13" fill="none" xmlns="http://www.w3.org/2000/svg">
<path d="M8.63999 5.45291C8.63999 3.40051 7.00815 1.74011 4.99999 1.74011C2.99183 1.74011 1.35999 3.40051 1.35999 5.45291C1.35999 6.76247 2.56399 8.73593 4.99999 11.2943C7.43599 8.73593 8.63999 6.76219 8.63999 5.45291ZM5.58379 12.3029C5.25023 12.6252 4.71845 12.6163 4.39603 12.2827C1.63551 9.42641 0.23999 7.17856 0.23999 5.4532C0.23999 2.7862 2.36883 0.620117 4.99999 0.620117C7.63115 0.620117 9.75999 2.78619 9.75999 5.45291C9.75999 7.17855 8.36447 9.42612 5.60395 12.2824L5.58379 12.3029ZM4.99999 7.62012C3.76287 7.62012 2.75999 6.61722 2.75999 5.3801C2.75999 4.14298 3.76287 3.14012 4.99999 3.14012C6.23711 3.14012 7.23999 4.14298 7.23999 5.3801C7.23999 6.61722 6.23711 7.62012 4.99999 7.62012ZM4.99999 6.50013C5.61855 6.50013 6.11999 5.99866 6.11999 5.3801C6.11999 4.76155 5.61855 4.26011 4.99999 4.26011C4.38144 4.26011 3.87999 4.76155 3.87999 5.3801C3.87999 5.99866 4.38144 6.50013 4.99999 6.50013Z" fill="#B0B2B5"/>
</svg>
