<svg width="14" height="14" viewBox="0 0 14 14" fill="none" xmlns="http://www.w3.org/2000/svg">
<path d="M12.2498 2H1.75019C1.33593 2 1 2.34997 1 2.78154V11.2185C1 11.65 1.33593 12 1.75019 12H12.2498C12.3055 12 12.3613 11.9937 12.4155 11.9812C12.5104 11.9812 12.6008 11.9451 12.6701 11.8792V11.8556C12.8735 11.7128 12.997 11.4743 13 11.2185V2.77997C13 2.3484 12.6641 2 12.2498 2ZM7 7.70308L1.84359 2.87884H12.1865L7 7.70308ZM1.75019 3.8393L5.20738 7.07847L1.75019 10.6676V3.8393ZM5.76626 7.58537L6.76349 8.51915C6.9051 8.65097 7.12051 8.65097 7.26211 8.51915L8.32413 7.53045L11.5749 11.2185H2.27894L5.76626 7.58537ZM8.87396 7.00785L12.2483 3.88324V10.8371L8.87396 7.00785Z" fill="#878787"/>
</svg>
