<svg width="22" height="20" viewBox="0 0 22 20" fill="none" xmlns="http://www.w3.org/2000/svg">
<path d="M21.5071 9.36589C21.3531 9.25529 21.1734 9.18527 20.9847 9.16237C20.796 9.13948 20.6046 9.16446 20.4283 9.23499L10.9999 12.9015L1.57085 8.92128C1.39244 8.84815 1.19809 8.82178 1.00646 8.8447C0.814826 8.86762 0.632341 8.93907 0.47651 9.05219C0.326922 9.16115 0.205665 9.30399 0.122805 9.46883C0.039945 9.63367 -0.00212683 9.81577 8.2745e-05 10V18.8315C-0.00202963 19.1388 0.118631 19.4343 0.335607 19.6534C0.552582 19.8724 0.848164 19.9971 1.15754 20H20.8428C21.152 19.9966 21.4473 19.8718 21.6641 19.6529C21.881 19.4339 22.0017 19.1386 22 18.8315V10.3184C21.9996 10.1322 21.9548 9.94874 21.8691 9.78315C21.7834 9.61755 21.6593 9.47454 21.5071 9.36589ZM19.2762 8.19738V1.35685C19.2829 1.00471 19.149 0.664245 18.9036 0.409956C18.6583 0.155667 18.3215 0.0082628 17.9669 0H4.03372C3.67906 0.00803464 3.34207 0.155349 3.09657 0.409671C2.85106 0.663994 2.71706 1.00459 2.72391 1.35685V7.90408L10.9999 11.4137L19.2762 8.19738ZM6.41644 1.76239H15.5827V3.1379H6.41644V1.76239ZM6.41644 4.97085H11.9166V6.34577H6.41644V4.97085Z" fill="url(#paint0_linear_542_742)"/>
<defs>
<linearGradient id="paint0_linear_542_742" x1="11" y1="0" x2="11" y2="20" gradientUnits="userSpaceOnUse">
<stop stop-color="#509A87"/>
<stop offset="1" stop-color="#57BBA3"/>
</linearGradient>
</defs>
</svg>
