<svg width="20" height="20" viewBox="0 0 20 20" fill="none" xmlns="http://www.w3.org/2000/svg">
<mask id="mask0_1508_85" style="mask-type:luminance" maskUnits="userSpaceOnUse" x="0" y="0" width="20" height="20">
<path d="M20 0H0V20H20V0Z" fill="white"/>
</mask>
<g mask="url(#mask0_1508_85)">
<path d="M16.1667 4.16666C16.4428 4.16666 16.6667 4.39405 16.6667 4.67455C16.6667 4.95504 16.4428 5.18243 16.1667 5.18243H15.6667V12.6314C15.6667 13.1924 15.2189 13.6471 14.6667 13.6471H13.042L14.523 15.1512C14.7183 15.3496 14.7183 15.6713 14.523 15.8697C14.3277 16.0681 14.011 16.0681 13.8157 15.8697L11.6277 13.6471H8.375L6.18867 15.8683C5.99248 16.0608 5.68062 16.0581 5.48775 15.8622C5.2949 15.6662 5.29218 15.3495 5.48166 15.1502L6.96066 13.6471H5.33332C4.78104 13.6471 4.33333 13.1924 4.33333 12.6314V5.18243H3.83333C3.55719 5.18243 3.33333 4.95504 3.33333 4.67455C3.33333 4.39405 3.55719 4.16666 3.83333 4.16666H16.1667ZM13.8557 7.36396C13.6604 7.16569 13.3439 7.16569 13.1487 7.36396L11.1693 9.37385L9.52766 7.7056L9.52466 7.70255C9.50077 7.67826 9.47453 7.65649 9.44633 7.63755L9.40366 7.61181C9.34626 7.58119 9.28354 7.56221 9.219 7.55594L9.171 7.5539C9.139 7.5539 9.10699 7.55697 9.07566 7.56306L9.02899 7.57458C8.95132 7.59828 8.87867 7.64059 8.81767 7.70255L6.14833 10.4133C5.94736 10.6107 5.94471 10.9371 6.14247 11.1378C6.34023 11.3384 6.66156 11.3355 6.85567 11.1311L9.171 8.77995L10.8157 10.4516C10.9133 10.5508 11.0413 10.6006 11.169 10.6006L11.2173 10.5982C11.3287 10.5874 11.4373 10.5383 11.5227 10.4516L13.856 8.08211L13.89 8.04353C14.0517 7.84155 14.0369 7.54806 13.8557 7.36396Z" fill="#248069"/>
</g>
</svg>
