<svg width="24" height="24" viewBox="0 0 24 24" fill="none" xmlns="http://www.w3.org/2000/svg">
<mask id="mask0_13_1259" style="mask-type:luminance" maskUnits="userSpaceOnUse" x="0" y="0" width="24" height="24">
<path d="M24 0H0V24H24V0Z" fill="white"/>
</mask>
<g mask="url(#mask0_13_1259)">
<path d="M19.4 5C19.7314 5 20 5.27287 20 5.60947C20 5.94606 19.7314 6.21893 19.4 6.21893H18.8V15.1577C18.8 15.8309 18.2627 16.3766 17.6 16.3766H15.6504L17.4276 18.1815C17.662 18.4196 17.662 18.8056 17.4276 19.0437C17.1932 19.2817 16.8132 19.2817 16.5788 19.0437L13.9532 16.3766H10.05L7.42641 19.042C7.19098 19.273 6.81675 19.2697 6.58531 19.0346C6.35388 18.7995 6.35062 18.4194 6.578 18.1803L8.3528 16.3766H6.39999C5.73725 16.3766 5.2 15.8309 5.2 15.1577V6.21893H4.60001C4.26864 6.21893 4 5.94606 4 5.60947C4 5.27287 4.26864 5 4.60001 5H19.4ZM16.6268 8.83676C16.3925 8.59884 16.0127 8.59884 15.7784 8.83676L13.4032 11.2486L11.4332 9.24673L11.4296 9.24307C11.4009 9.21392 11.3694 9.1878 11.3356 9.16507L11.2844 9.13419C11.2155 9.09744 11.1403 9.07466 11.0628 9.06714L11.0052 9.0647C10.9668 9.0647 10.9284 9.06837 10.8908 9.07568L10.8348 9.08951C10.7416 9.11795 10.6544 9.16872 10.5812 9.24307L7.37801 12.496C7.13684 12.7328 7.13366 13.1245 7.37097 13.3653C7.60828 13.6061 7.99388 13.6026 8.22681 13.3574L11.0052 10.5359L12.9788 12.5419C13.096 12.661 13.2496 12.7207 13.4028 12.7207L13.4608 12.7178C13.5944 12.7048 13.7248 12.6459 13.8272 12.5419L16.6272 9.69855L16.668 9.65225C16.8621 9.40987 16.8443 9.05768 16.6268 8.83676Z" fill="#B2B2B2"/>
</g>
</svg>
