<svg width="16" height="16" viewBox="0 0 16 16" fill="none" xmlns="http://www.w3.org/2000/svg">
<g clip-path="url(#clip0_37_31)">
<mask id="path-1-outside-1_37_31" maskUnits="userSpaceOnUse" x="-1.00012" y="0.142578" width="17" height="15" fill="black">
<rect fill="white" x="-1.00012" y="0.142578" width="17" height="15"/>
<path d="M7.79293 1.14258C7.98414 1.14258 8.17372 1.18415 8.34762 1.26367L14.8896 4.36426C15.0975 4.45809 15.2733 4.6111 15.3955 4.80371C15.5176 4.99637 15.5809 5.22112 15.5771 5.44922C15.5732 5.6772 15.5024 5.89951 15.374 6.08789C15.2455 6.27627 15.0644 6.42296 14.8535 6.50977L13.1191 7.27441V11.6221C13.1195 11.8445 13.057 12.0628 12.9384 12.251C12.8198 12.4392 12.65 12.5899 12.4492 12.6855L8.06051 14.7861C7.97932 14.8333 7.88685 14.858 7.79293 14.8574C7.70676 14.8578 7.62141 14.8393 7.54293 14.8037L3.14547 12.7031C2.94536 12.6066 2.77665 12.4556 2.65817 12.2676C2.53964 12.0795 2.47628 11.862 2.47555 11.6396V7.28223L0.724572 6.50977C0.514387 6.42092 0.334415 6.27263 0.206017 6.08398C0.0777375 5.89545 0.00557706 5.67426 -3.77194e-05 5.44629C-0.00277889 5.21866 0.0613504 4.99479 0.183556 4.80273C0.305755 4.61071 0.481119 4.45817 0.688439 4.36426L7.23922 1.26367C7.41299 1.18421 7.60186 1.14264 7.79293 1.14258ZM8.31149 9.39648C8.14867 9.46959 7.97138 9.50644 7.79293 9.50391C7.61209 9.50367 7.43314 9.4669 7.26656 9.39648L3.63766 7.79492V11.6309L7.79293 13.6328L11.9394 11.6484L11.9541 7.78906L8.31149 9.39648ZM15.414 10.7549C15.415 10.9271 15.364 11.0959 15.2685 11.2393C15.173 11.3824 15.0371 11.4943 14.8779 11.5596C14.7843 11.5988 14.682 11.6134 14.581 11.6035C14.4801 11.5936 14.3829 11.5586 14.2988 11.502C14.2148 11.4453 14.1457 11.369 14.0986 11.2793C14.0515 11.1894 14.028 11.0888 14.0293 10.9873V7.63574L15.414 7.05469V10.7549ZM7.73043 2.29102L1.17965 5.40137C1.15353 5.41014 1.14472 5.41896 1.14449 5.42773C1.15557 5.43759 1.1671 5.44719 1.17965 5.45508L7.73043 8.3418C7.74852 8.35064 7.76889 8.35547 7.78902 8.35547C7.809 8.35545 7.82868 8.35052 7.84664 8.3418L14.3886 5.45508C14.4035 5.45092 14.4166 5.44083 14.4248 5.42773C14.4136 5.41782 14.4013 5.40929 14.3886 5.40137L7.84664 2.2998C7.83177 2.28732 7.81232 2.28107 7.79293 2.28223C7.77182 2.28086 7.7503 2.28373 7.73043 2.29102Z"/>
</mask>
<path d="M7.79293 1.14258C7.98414 1.14258 8.17372 1.18415 8.34762 1.26367L14.8896 4.36426C15.0975 4.45809 15.2733 4.6111 15.3955 4.80371C15.5176 4.99637 15.5809 5.22112 15.5771 5.44922C15.5732 5.6772 15.5024 5.89951 15.374 6.08789C15.2455 6.27627 15.0644 6.42296 14.8535 6.50977L13.1191 7.27441V11.6221C13.1195 11.8445 13.057 12.0628 12.9384 12.251C12.8198 12.4392 12.65 12.5899 12.4492 12.6855L8.06051 14.7861C7.97932 14.8333 7.88685 14.858 7.79293 14.8574C7.70676 14.8578 7.62141 14.8393 7.54293 14.8037L3.14547 12.7031C2.94536 12.6066 2.77665 12.4556 2.65817 12.2676C2.53964 12.0795 2.47628 11.862 2.47555 11.6396V7.28223L0.724572 6.50977C0.514387 6.42092 0.334415 6.27263 0.206017 6.08398C0.0777375 5.89545 0.00557706 5.67426 -3.77194e-05 5.44629C-0.00277889 5.21866 0.0613504 4.99479 0.183556 4.80273C0.305755 4.61071 0.481119 4.45817 0.688439 4.36426L7.23922 1.26367C7.41299 1.18421 7.60186 1.14264 7.79293 1.14258ZM8.31149 9.39648C8.14867 9.46959 7.97138 9.50644 7.79293 9.50391C7.61209 9.50367 7.43314 9.4669 7.26656 9.39648L3.63766 7.79492V11.6309L7.79293 13.6328L11.9394 11.6484L11.9541 7.78906L8.31149 9.39648ZM15.414 10.7549C15.415 10.9271 15.364 11.0959 15.2685 11.2393C15.173 11.3824 15.0371 11.4943 14.8779 11.5596C14.7843 11.5988 14.682 11.6134 14.581 11.6035C14.4801 11.5936 14.3829 11.5586 14.2988 11.502C14.2148 11.4453 14.1457 11.369 14.0986 11.2793C14.0515 11.1894 14.028 11.0888 14.0293 10.9873V7.63574L15.414 7.05469V10.7549ZM7.73043 2.29102L1.17965 5.40137C1.15353 5.41014 1.14472 5.41896 1.14449 5.42773C1.15557 5.43759 1.1671 5.44719 1.17965 5.45508L7.73043 8.3418C7.74852 8.35064 7.76889 8.35547 7.78902 8.35547C7.809 8.35545 7.82868 8.35052 7.84664 8.3418L14.3886 5.45508C14.4035 5.45092 14.4166 5.44083 14.4248 5.42773C14.4136 5.41782 14.4013 5.40929 14.3886 5.40137L7.84664 2.2998C7.83177 2.28732 7.81232 2.28107 7.79293 2.28223C7.77182 2.28086 7.7503 2.28373 7.73043 2.29102Z" fill="#B0B2B5"/>
<path d="M7.79293 1.14258V1.04258L7.7929 1.04258L7.79293 1.14258ZM8.34762 1.26367L8.39045 1.1733L8.3892 1.17273L8.34762 1.26367ZM14.8896 4.36426L14.8468 4.45464L14.8485 4.4554L14.8896 4.36426ZM15.3955 4.80371L15.4799 4.75017L15.4799 4.75016L15.3955 4.80371ZM15.5771 5.44922L15.6771 5.45092V5.45088L15.5771 5.44922ZM15.374 6.08789L15.4566 6.14425L15.4566 6.14423L15.374 6.08789ZM14.8535 6.50977L14.8154 6.41726L14.8131 6.41826L14.8535 6.50977ZM13.1191 7.27441L13.0788 7.18291L13.0191 7.20921V7.27441H13.1191ZM13.1191 11.6221H13.0191V11.6222L13.1191 11.6221ZM12.9384 12.251L13.023 12.3043L13.023 12.3043L12.9384 12.251ZM12.4492 12.6855L12.4062 12.5953L12.406 12.5953L12.4492 12.6855ZM8.06051 14.7861L8.0172 14.6956L8.01024 14.6997L8.06051 14.7861ZM7.79293 14.8574L7.79357 14.7574L7.79254 14.7574L7.79293 14.8574ZM7.54293 14.8037L7.49982 14.894L7.50165 14.8948L7.54293 14.8037ZM3.14547 12.7031L3.10201 12.7932L3.10237 12.7934L3.14547 12.7031ZM2.65817 12.2676L2.57356 12.3209L2.57357 12.3209L2.65817 12.2676ZM2.47555 11.6396H2.37555L2.37555 11.64L2.47555 11.6396ZM2.47555 7.28223H2.57555V7.21704L2.51591 7.19073L2.47555 7.28223ZM0.724572 6.50977L0.764939 6.41826L0.763505 6.41766L0.724572 6.50977ZM0.206017 6.08398L0.12334 6.14024L0.123348 6.14025L0.206017 6.08398ZM-3.77194e-05 5.44629L-0.100038 5.44749L-0.100007 5.44875L-3.77194e-05 5.44629ZM0.183556 4.80273L0.0991902 4.74905L0.099188 4.74905L0.183556 4.80273ZM0.688439 4.36426L0.729708 4.45536L0.73122 4.45464L0.688439 4.36426ZM7.23922 1.26367L7.19763 1.17272L7.19644 1.17329L7.23922 1.26367ZM8.31149 9.39648L8.27111 9.30499L8.27052 9.30526L8.31149 9.39648ZM7.79293 9.50391L7.79435 9.40391L7.79306 9.40391L7.79293 9.50391ZM7.26656 9.39648L7.22618 9.48798L7.22763 9.48859L7.26656 9.39648ZM3.63766 7.79492L3.67803 7.70344L3.53766 7.64148V7.79492H3.63766ZM3.63766 11.6309H3.53766V11.6937L3.59425 11.7209L3.63766 11.6309ZM7.79293 13.6328L7.74953 13.7229L7.79279 13.7437L7.8361 13.723L7.79293 13.6328ZM11.9394 11.6484L11.9826 11.7386L12.0392 11.7116L12.0394 11.6488L11.9394 11.6484ZM11.9541 7.78906L12.0541 7.78944L12.0546 7.63537L11.9137 7.69757L11.9541 7.78906ZM15.414 10.7549H15.314L15.314 10.7554L15.414 10.7549ZM15.2685 11.2393L15.3517 11.2948L15.3517 11.2947L15.2685 11.2393ZM14.8779 11.5596L14.8399 11.467L14.8392 11.4674L14.8779 11.5596ZM14.581 11.6035L14.5712 11.703L14.5713 11.703L14.581 11.6035ZM14.2988 11.502L14.2429 11.5848L14.2429 11.5849L14.2988 11.502ZM14.0986 11.2793L14.01 11.3257L14.01 11.3258L14.0986 11.2793ZM14.0293 10.9873L14.1293 10.9885V10.9873H14.0293ZM14.0293 7.63574L13.9906 7.54353L13.9293 7.56926V7.63574H14.0293ZM15.414 7.05469H15.514V6.90428L15.3753 6.96248L15.414 7.05469ZM7.73043 2.29102L7.69586 2.19673L7.68754 2.20068L7.73043 2.29102ZM1.17965 5.40137L1.21171 5.49684L1.22254 5.4917L1.17965 5.40137ZM1.14449 5.42773L1.04453 5.42514L1.04332 5.47158L1.07803 5.50245L1.14449 5.42773ZM1.17965 5.45508L1.12643 5.53974L1.13263 5.54364L1.13932 5.54659L1.17965 5.45508ZM7.73043 8.3418L7.77439 8.25189L7.77076 8.25029L7.73043 8.3418ZM7.78902 8.35547V8.45547H7.78913L7.78902 8.35547ZM7.84664 8.3418L7.80624 8.25025L7.80295 8.25185L7.84664 8.3418ZM14.3886 5.45508L14.3617 5.35878L14.3548 5.3607L14.3483 5.36359L14.3886 5.45508ZM14.4248 5.42773L14.5097 5.48056L14.5542 5.40901L14.4912 5.35301L14.4248 5.42773ZM14.3886 5.40137L14.4421 5.31606L14.4315 5.31101L14.3886 5.40137ZM7.84664 2.2998L7.78234 2.37639L7.79219 2.38466L7.8038 2.39016L7.84664 2.2998ZM7.79293 2.28223L7.7864 2.38279L7.79887 2.38205L7.79293 2.28223ZM7.79293 1.14258V1.24258C7.96969 1.24258 8.1451 1.28102 8.30603 1.35461L8.34762 1.26367L8.3892 1.17273C8.20235 1.08728 7.9986 1.04258 7.79293 1.04258V1.14258ZM8.34762 1.26367L8.30479 1.35404L14.8468 4.45462L14.8896 4.36426L14.9324 4.27389L8.39045 1.17331L8.34762 1.26367ZM14.8896 4.36426L14.8485 4.4554C15.0384 4.54117 15.1993 4.68108 15.311 4.85726L15.3955 4.80371L15.4799 4.75016C15.3474 4.54113 15.1565 4.37502 14.9308 4.27312L14.8896 4.36426ZM15.3955 4.80371L15.311 4.85726C15.4227 5.03345 15.4806 5.239 15.4771 5.44755L15.5771 5.44922L15.6771 5.45088C15.6812 5.20324 15.6125 4.9593 15.4799 4.75017L15.3955 4.80371ZM15.5771 5.44922L15.4771 5.44751C15.4736 5.65594 15.4088 5.85927 15.2914 6.03155L15.374 6.08789L15.4566 6.14423C15.596 5.93975 15.6729 5.69845 15.6771 5.45092L15.5771 5.44922ZM15.374 6.08789L15.2914 6.03153C15.1739 6.20375 15.0083 6.33791 14.8154 6.41729L14.8535 6.50977L14.8915 6.60224C15.1204 6.50802 15.317 6.34878 15.4566 6.14425L15.374 6.08789ZM14.8535 6.50977L14.8131 6.41826L13.0788 7.18291L13.1191 7.27441L13.1594 7.36592L14.8938 6.60127L14.8535 6.50977ZM13.1191 7.27441H13.0191V11.6221H13.1191H13.2191V7.27441H13.1191ZM13.1191 11.6221L13.0191 11.6222C13.0194 11.8259 12.9623 12.0256 12.8538 12.1977L12.9384 12.251L13.023 12.3043C13.1518 12.1 13.2195 11.8632 13.2191 11.6219L13.1191 11.6221ZM12.9384 12.251L12.8538 12.1977C12.7453 12.3698 12.59 12.5078 12.4062 12.5953L12.4492 12.6855L12.4922 12.7758C12.7101 12.6721 12.8943 12.5085 13.023 12.3043L12.9384 12.251ZM12.4492 12.6855L12.406 12.5953L8.01734 14.6959L8.06051 14.7861L8.10368 14.8763L12.4924 12.7757L12.4492 12.6855ZM8.06051 14.7861L8.01024 14.6997C7.94446 14.7379 7.86957 14.7579 7.79357 14.7574L7.79293 14.8574L7.79229 14.9574C7.90413 14.9581 8.01417 14.9288 8.11078 14.8726L8.06051 14.7861ZM7.79293 14.8574L7.79254 14.7574C7.72091 14.7577 7.64976 14.7423 7.58421 14.7126L7.54293 14.8037L7.50165 14.8948C7.59307 14.9362 7.69262 14.9578 7.79332 14.9574L7.79293 14.8574ZM7.54293 14.8037L7.58603 14.7135L3.18857 12.6129L3.14547 12.7031L3.10237 12.7934L7.49983 14.8939L7.54293 14.8037ZM3.14547 12.7031L3.18893 12.6131C3.00578 12.5247 2.85129 12.3864 2.74276 12.2143L2.65817 12.2676L2.57357 12.3209C2.702 12.5247 2.88495 12.6884 3.10201 12.7932L3.14547 12.7031ZM2.65817 12.2676L2.74277 12.2143C2.63422 12.042 2.57622 11.8428 2.57555 11.6393L2.47555 11.6396L2.37555 11.64C2.37634 11.8811 2.44507 12.117 2.57356 12.3209L2.65817 12.2676ZM2.47555 11.6396H2.57555V7.28223H2.47555H2.37555V11.6396H2.47555ZM2.47555 7.28223L2.51591 7.19073L0.764934 6.41827L0.724572 6.50977L0.684209 6.60126L2.43519 7.37372L2.47555 7.28223ZM0.724572 6.50977L0.763505 6.41766C0.571217 6.33638 0.406365 6.20062 0.288686 6.02772L0.206017 6.08398L0.123348 6.14025C0.262466 6.34465 0.457556 6.50547 0.685639 6.60188L0.724572 6.50977ZM0.206017 6.08398L0.288694 6.02773C0.171056 5.85484 0.105066 5.65227 0.099932 5.44383L-3.77194e-05 5.44629L-0.100007 5.44875C-0.0939117 5.69625 -0.015581 5.93607 0.12334 6.14024L0.206017 6.08398ZM-3.77194e-05 5.44629L0.099955 5.44509C0.0974492 5.237 0.156084 5.03218 0.267924 4.85642L0.183556 4.80273L0.099188 4.74905C-0.0333833 4.95739 -0.103007 5.20032 -0.10003 5.44749L-3.77194e-05 5.44629ZM0.183556 4.80273L0.267922 4.85642C0.379738 4.68071 0.540156 4.54121 0.729703 4.45535L0.688439 4.36426L0.647175 4.27317C0.422082 4.37514 0.231773 4.5407 0.0991902 4.74905L0.183556 4.80273ZM0.688439 4.36426L0.73122 4.45464L7.282 1.35406L7.23922 1.26367L7.19644 1.17329L0.645657 4.27387L0.688439 4.36426ZM7.23922 1.26367L7.28081 1.35461C7.44166 1.28106 7.61638 1.24263 7.79296 1.24258L7.79293 1.14258L7.7929 1.04258C7.58735 1.04264 7.38431 1.08737 7.19763 1.17273L7.23922 1.26367ZM8.31149 9.39648L8.27052 9.30526C8.12097 9.37241 7.95814 9.40624 7.79435 9.40392L7.79293 9.50391L7.79151 9.6039C7.98463 9.60664 8.17638 9.56677 8.35245 9.48771L8.31149 9.39648ZM7.79293 9.50391L7.79306 9.40391C7.62569 9.40368 7.45992 9.36966 7.3055 9.30438L7.26656 9.39648L7.22763 9.48859C7.40635 9.56415 7.59849 9.60365 7.7928 9.60391L7.79293 9.50391ZM7.26656 9.39648L7.30694 9.305L3.67803 7.70344L3.63766 7.79492L3.59728 7.88641L7.22619 9.48797L7.26656 9.39648ZM3.63766 7.79492H3.53766V11.6309H3.63766H3.73766V7.79492H3.63766ZM3.63766 11.6309L3.59425 11.7209L7.74953 13.7229L7.79293 13.6328L7.83633 13.5427L3.68106 11.5408L3.63766 11.6309ZM7.79293 13.6328L7.8361 13.723L11.9826 11.7386L11.9394 11.6484L11.8962 11.5582L7.74976 13.5426L7.79293 13.6328ZM11.9394 11.6484L12.0394 11.6488L12.0541 7.78944L11.9541 7.78906L11.8541 7.78868L11.8394 11.6481L11.9394 11.6484ZM11.9541 7.78906L11.9137 7.69757L8.27111 9.305L8.31149 9.39648L8.35186 9.48797L11.9944 7.88055L11.9541 7.78906ZM15.414 10.7549L15.314 10.7554C15.3149 10.9076 15.2699 11.057 15.1853 11.1838L15.2685 11.2393L15.3517 11.2947C15.4582 11.1349 15.5151 10.9466 15.514 10.7543L15.414 10.7549ZM15.2685 11.2393L15.1853 11.1837C15.1007 11.3105 14.9805 11.4094 14.8399 11.4671L14.8779 11.5596L14.9158 11.6521C15.0937 11.5791 15.2452 11.4543 15.3517 11.2948L15.2685 11.2393ZM14.8779 11.5596L14.8392 11.4674C14.7614 11.5 14.6758 11.5123 14.5908 11.504L14.581 11.6035L14.5713 11.703C14.6882 11.7145 14.8072 11.6977 14.9166 11.6518L14.8779 11.5596ZM14.581 11.6035L14.5908 11.504C14.5063 11.4957 14.425 11.4664 14.3547 11.419L14.2988 11.502L14.2429 11.5849C14.3408 11.6508 14.4538 11.6915 14.5712 11.703L14.581 11.6035ZM14.2988 11.502L14.3547 11.4191C14.2841 11.3714 14.2263 11.3075 14.1871 11.2328L14.0986 11.2793L14.01 11.3258C14.065 11.4305 14.1455 11.5192 14.2429 11.5848L14.2988 11.502ZM14.0986 11.2793L14.1872 11.2329C14.1479 11.158 14.1282 11.0739 14.1293 10.9885L14.0293 10.9873L13.9293 10.9861C13.9278 11.1037 13.955 11.2207 14.01 11.3257L14.0986 11.2793ZM14.0293 10.9873H14.1293V7.63574H14.0293H13.9293V10.9873H14.0293ZM14.0293 7.63574L14.068 7.72795L15.4527 7.1469L15.414 7.05469L15.3753 6.96248L13.9906 7.54353L14.0293 7.63574ZM15.414 7.05469H15.314V10.7549H15.414H15.514V7.05469H15.414ZM7.73043 2.29102L7.68754 2.20068L1.13676 5.31103L1.17965 5.40137L1.22254 5.4917L7.77332 2.38135L7.73043 2.29102ZM1.17965 5.40137L1.14781 5.30657C1.13021 5.31248 1.10871 5.3214 1.08987 5.33648C1.06892 5.35325 1.04562 5.38285 1.04453 5.42514L1.14449 5.42773L1.24446 5.43033C1.24407 5.44531 1.23983 5.45931 1.23306 5.47106C1.2267 5.48211 1.21937 5.489 1.21485 5.49262C1.207 5.4989 1.20297 5.49902 1.21149 5.49616L1.17965 5.40137ZM1.14449 5.42773L1.07803 5.50245C1.09032 5.51338 1.10676 5.52738 1.12643 5.53974L1.17965 5.45508L1.23287 5.37042C1.22744 5.367 1.22083 5.36179 1.21095 5.35302L1.14449 5.42773ZM1.17965 5.45508L1.13932 5.54659L7.69011 8.43331L7.73043 8.3418L7.77076 8.25029L1.21997 5.36357L1.17965 5.45508ZM7.73043 8.3418L7.68651 8.43163C7.71793 8.447 7.75329 8.45547 7.78902 8.45547V8.35547V8.25547C7.78449 8.25547 7.77911 8.25428 7.77435 8.25196L7.73043 8.3418ZM7.78902 8.35547L7.78913 8.45547C7.82548 8.45543 7.85998 8.44649 7.89033 8.43175L7.84664 8.3418L7.80295 8.25185C7.79737 8.25456 7.79252 8.25547 7.78892 8.25547L7.78902 8.35547ZM7.84664 8.3418L7.88701 8.43329L14.429 5.54657L14.3886 5.45508L14.3483 5.36359L7.80627 8.25031L7.84664 8.3418ZM14.3886 5.45508L14.4156 5.55138C14.4554 5.54025 14.4888 5.51411 14.5097 5.48056L14.4248 5.42773L14.3399 5.37491C14.3444 5.36754 14.3516 5.3616 14.3617 5.35878L14.3886 5.45508ZM14.4248 5.42773L14.4912 5.35301C14.4742 5.33786 14.4566 5.32597 14.4418 5.31665L14.3886 5.40137L14.3355 5.48609C14.3459 5.49262 14.3531 5.49778 14.3583 5.50246L14.4248 5.42773ZM14.3886 5.40137L14.4315 5.31101L7.88948 2.20945L7.84664 2.2998L7.8038 2.39016L14.3458 5.49173L14.3886 5.40137ZM7.84664 2.2998L7.91094 2.22322C7.87598 2.19386 7.83123 2.17977 7.78699 2.1824L7.79293 2.28223L7.79887 2.38205C7.79341 2.38237 7.78756 2.38077 7.78234 2.37639L7.84664 2.2998ZM7.79293 2.28223L7.79941 2.18244C7.76514 2.18021 7.72962 2.1848 7.69601 2.19713L7.73043 2.29102L7.76485 2.3849C7.77097 2.38266 7.7785 2.3815 7.78645 2.38202L7.79293 2.28223Z" fill="#B0B2B5" mask="url(#path-1-outside-1_37_31)"/>
</g>
<defs>
<clipPath id="clip0_37_31">
<rect width="16" height="16" fill="white"/>
</clipPath>
</defs>
</svg>
