<svg width="20" height="20" viewBox="0 0 20 20" fill="none" xmlns="http://www.w3.org/2000/svg">
<path d="M11.9736 4.99023C13.5973 4.89745 15.1752 5.50039 16.4277 6.66016C17.7265 7.91266 18.4687 9.62891 18.4688 11.4844C18.4688 15.1493 16.01 18.4892 13.876 18.9531C13.6904 18.9995 13.5049 19 13.3193 19C12.4843 19 11.7417 18.4893 11.3242 17.5615C11.1388 17.144 11.1392 16.5873 11.0928 15.9844C11 14.0361 10.7679 12.6447 8.95898 12.6445C7.01057 12.6445 6.31397 11.4381 6.26758 10.2783C6.2212 7.95888 8.6801 5.17601 11.9736 4.99023ZM12.0205 6.38184C9.42262 6.47462 7.61377 8.74792 7.66016 10.2324C7.66016 10.5111 7.66079 11.2529 8.95898 11.2529C12.206 11.2532 12.3916 14.268 12.4844 15.8916C12.5307 16.3089 12.5304 16.8191 12.623 17.0049C12.9014 17.608 13.2729 17.6543 13.5977 17.5615C14.9894 17.2368 17.0771 14.5462 17.0771 11.4844C17.0771 10.0463 16.4737 8.65484 15.4531 7.68066C14.5717 6.84563 13.4581 6.38184 12.252 6.38184H12.0205ZM4.55176 2.85547C5.94334 2.85561 7.1025 4.01562 7.10254 5.40723C7.10254 6.84525 5.94337 7.95884 4.55176 7.95898C3.16003 7.95898 2 6.79895 2 5.40723C2.00004 4.01553 3.16006 2.85547 4.55176 2.85547ZM4.55176 4.24707C3.90231 4.24707 3.39164 4.75779 3.3916 5.40723C3.3916 6.0567 3.90229 6.56738 4.55176 6.56738C5.2011 6.56725 5.71094 6.05661 5.71094 5.40723C5.7109 4.75788 5.20108 4.24721 4.55176 4.24707ZM15.917 1.46387C16.2861 1.46387 16.6404 1.61107 16.9014 1.87207C17.1622 2.13297 17.3085 2.48657 17.3086 2.85547C17.3086 3.22456 17.1623 3.57885 16.9014 3.83984C16.6404 4.10084 16.2861 4.24707 15.917 4.24707C15.5481 4.247 15.1945 4.10066 14.9336 3.83984C14.6726 3.57884 14.5254 3.22458 14.5254 2.85547C14.5255 2.48648 14.6727 2.13299 14.9336 1.87207C15.1945 1.61116 15.548 1.46393 15.917 1.46387ZM10.3506 1C10.7196 1.00006 11.073 1.14728 11.334 1.4082C11.5949 1.66913 11.7421 2.0226 11.7422 2.3916C11.7422 2.76071 11.595 3.11498 11.334 3.37598C11.0731 3.63678 10.7195 3.78314 10.3506 3.7832C9.98148 3.7832 9.62721 3.63698 9.36621 3.37598C9.10523 3.11498 8.95898 2.7607 8.95898 2.3916C8.95906 2.0227 9.10542 1.66911 9.36621 1.4082C9.62721 1.1472 9.98148 1 10.3506 1Z" fill="#252525"/>
</svg>
